<mxfile host="app.diagrams.net" modified="2023-12-04T13:03:01.006Z" agent="Mozilla/5.0 (X11; Ubuntu; Linux x86_64; rv:120.0) Gecko/20100101 Firefox/120.0" etag="c_S_16fdZTvgEM8OMp9Y" version="21.8.2" type="device">
  <diagram name="Page-1" id="WGor0NDcYrJDy8xw03e6">
    <mxGraphModel dx="2045" dy="763" grid="1" gridSize="10" guides="1" tooltips="1" connect="1" arrows="1" fold="1" page="1" pageScale="1" pageWidth="850" pageHeight="1100" math="0" shadow="0">
      <root>
        <mxCell id="0" />
        <mxCell id="1" parent="0" />
        <mxCell id="FWO0GWQRVAM2mk7AwP2H-29" value="" style="rounded=0;whiteSpace=wrap;html=1;fillColor=none;strokeWidth=3;dashed=1;dashPattern=1 4;" vertex="1" parent="1">
          <mxGeometry x="110" y="220" width="710" height="450" as="geometry" />
        </mxCell>
        <mxCell id="FWO0GWQRVAM2mk7AwP2H-1" value="" style="image;sketch=0;aspect=fixed;html=1;points=[];align=center;fontSize=12;image=img/lib/mscae/Kubernetes.svg;" vertex="1" parent="1">
          <mxGeometry x="120" y="230" width="39.58" height="38" as="geometry" />
        </mxCell>
        <mxCell id="FWO0GWQRVAM2mk7AwP2H-2" value="" style="rounded=0;whiteSpace=wrap;html=1;strokeWidth=2;" vertex="1" parent="1">
          <mxGeometry x="-80" y="320" width="140" height="120" as="geometry" />
        </mxCell>
        <mxCell id="FWO0GWQRVAM2mk7AwP2H-3" value="" style="endArrow=none;html=1;rounded=0;exitX=0;exitY=0.25;exitDx=0;exitDy=0;entryX=1;entryY=0.25;entryDx=0;entryDy=0;strokeWidth=2;" edge="1" parent="1" source="FWO0GWQRVAM2mk7AwP2H-2" target="FWO0GWQRVAM2mk7AwP2H-2">
          <mxGeometry width="50" height="50" relative="1" as="geometry">
            <mxPoint x="400" y="500" as="sourcePoint" />
            <mxPoint x="450" y="450" as="targetPoint" />
          </mxGeometry>
        </mxCell>
        <mxCell id="FWO0GWQRVAM2mk7AwP2H-4" value="&lt;font style=&quot;font-size: 14px;&quot;&gt;&lt;b&gt;Feature Store&lt;/b&gt;&lt;/font&gt;" style="text;html=1;strokeColor=none;fillColor=none;align=center;verticalAlign=middle;whiteSpace=wrap;rounded=0;" vertex="1" parent="1">
          <mxGeometry x="-65" y="320" width="110" height="30" as="geometry" />
        </mxCell>
        <mxCell id="FWO0GWQRVAM2mk7AwP2H-9" value="" style="rounded=0;whiteSpace=wrap;html=1;strokeWidth=2;" vertex="1" parent="1">
          <mxGeometry x="200" y="320" width="140" height="120" as="geometry" />
        </mxCell>
        <mxCell id="FWO0GWQRVAM2mk7AwP2H-10" value="" style="endArrow=none;html=1;rounded=0;exitX=0;exitY=0.25;exitDx=0;exitDy=0;entryX=1;entryY=0.25;entryDx=0;entryDy=0;strokeWidth=2;" edge="1" parent="1" source="FWO0GWQRVAM2mk7AwP2H-9" target="FWO0GWQRVAM2mk7AwP2H-9">
          <mxGeometry width="50" height="50" relative="1" as="geometry">
            <mxPoint x="680" y="500" as="sourcePoint" />
            <mxPoint x="730" y="450" as="targetPoint" />
          </mxGeometry>
        </mxCell>
        <mxCell id="FWO0GWQRVAM2mk7AwP2H-11" value="&lt;font size=&quot;1&quot;&gt;&lt;b style=&quot;font-size: 14px;&quot;&gt;Kubeflow&lt;/b&gt;&lt;/font&gt;" style="text;html=1;strokeColor=none;fillColor=none;align=center;verticalAlign=middle;whiteSpace=wrap;rounded=0;" vertex="1" parent="1">
          <mxGeometry x="215" y="320" width="110" height="30" as="geometry" />
        </mxCell>
        <mxCell id="FWO0GWQRVAM2mk7AwP2H-12" value="" style="rounded=0;whiteSpace=wrap;html=1;strokeWidth=2;" vertex="1" parent="1">
          <mxGeometry x="440" y="320" width="140" height="120" as="geometry" />
        </mxCell>
        <mxCell id="FWO0GWQRVAM2mk7AwP2H-13" value="" style="endArrow=none;html=1;rounded=0;exitX=0;exitY=0.25;exitDx=0;exitDy=0;entryX=1;entryY=0.25;entryDx=0;entryDy=0;strokeWidth=2;" edge="1" parent="1" source="FWO0GWQRVAM2mk7AwP2H-12" target="FWO0GWQRVAM2mk7AwP2H-12">
          <mxGeometry width="50" height="50" relative="1" as="geometry">
            <mxPoint x="920" y="500" as="sourcePoint" />
            <mxPoint x="970" y="450" as="targetPoint" />
          </mxGeometry>
        </mxCell>
        <mxCell id="FWO0GWQRVAM2mk7AwP2H-14" value="&lt;b&gt;&lt;font style=&quot;font-size: 14px;&quot;&gt;KServe&lt;/font&gt;&lt;/b&gt;" style="text;html=1;strokeColor=none;fillColor=none;align=center;verticalAlign=middle;whiteSpace=wrap;rounded=0;" vertex="1" parent="1">
          <mxGeometry x="455" y="320" width="110" height="30" as="geometry" />
        </mxCell>
        <mxCell id="FWO0GWQRVAM2mk7AwP2H-15" value="" style="rounded=0;whiteSpace=wrap;html=1;strokeWidth=2;" vertex="1" parent="1">
          <mxGeometry x="200" y="520" width="240" height="90" as="geometry" />
        </mxCell>
        <mxCell id="FWO0GWQRVAM2mk7AwP2H-16" value="" style="endArrow=none;html=1;rounded=0;exitX=0;exitY=0.25;exitDx=0;exitDy=0;entryX=1;entryY=0.25;entryDx=0;entryDy=0;strokeWidth=2;" edge="1" parent="1" source="FWO0GWQRVAM2mk7AwP2H-15" target="FWO0GWQRVAM2mk7AwP2H-15">
          <mxGeometry width="50" height="50" relative="1" as="geometry">
            <mxPoint x="680" y="700" as="sourcePoint" />
            <mxPoint x="730" y="650" as="targetPoint" />
          </mxGeometry>
        </mxCell>
        <mxCell id="FWO0GWQRVAM2mk7AwP2H-17" value="&lt;font size=&quot;1&quot;&gt;&lt;b style=&quot;font-size: 14px;&quot;&gt;Prometheus&lt;/b&gt;&lt;/font&gt;" style="text;html=1;strokeColor=none;fillColor=none;align=center;verticalAlign=middle;whiteSpace=wrap;rounded=0;" vertex="1" parent="1">
          <mxGeometry x="215" y="520" width="215" height="30" as="geometry" />
        </mxCell>
        <mxCell id="FWO0GWQRVAM2mk7AwP2H-18" value="" style="rounded=0;whiteSpace=wrap;html=1;strokeWidth=2;" vertex="1" parent="1">
          <mxGeometry x="550" y="520" width="240" height="90" as="geometry" />
        </mxCell>
        <mxCell id="FWO0GWQRVAM2mk7AwP2H-19" value="" style="endArrow=none;html=1;rounded=0;exitX=0;exitY=0.25;exitDx=0;exitDy=0;entryX=1;entryY=0.25;entryDx=0;entryDy=0;strokeWidth=2;" edge="1" parent="1" source="FWO0GWQRVAM2mk7AwP2H-18" target="FWO0GWQRVAM2mk7AwP2H-18">
          <mxGeometry width="50" height="50" relative="1" as="geometry">
            <mxPoint x="980" y="680" as="sourcePoint" />
            <mxPoint x="1030" y="630" as="targetPoint" />
          </mxGeometry>
        </mxCell>
        <mxCell id="FWO0GWQRVAM2mk7AwP2H-20" value="&lt;font size=&quot;1&quot;&gt;&lt;b style=&quot;font-size: 14px;&quot;&gt;Grafana&lt;/b&gt;&lt;/font&gt;" style="text;html=1;strokeColor=none;fillColor=none;align=center;verticalAlign=middle;whiteSpace=wrap;rounded=0;" vertex="1" parent="1">
          <mxGeometry x="562.5" y="520" width="215" height="30" as="geometry" />
        </mxCell>
        <mxCell id="FWO0GWQRVAM2mk7AwP2H-21" value="&lt;div style=&quot;font-size: 14px;&quot;&gt;&lt;font style=&quot;font-size: 14px;&quot;&gt;&lt;b&gt;Model Deployed&lt;/b&gt;&lt;/font&gt;&lt;/div&gt;&lt;div style=&quot;font-size: 14px;&quot;&gt;&lt;font style=&quot;font-size: 14px;&quot;&gt;&lt;b&gt;&lt;font style=&quot;font-size: 14px;&quot;&gt;Endpoint&lt;/font&gt;&lt;br&gt;&lt;/b&gt;&lt;/font&gt;&lt;/div&gt;" style="rounded=0;whiteSpace=wrap;html=1;strokeWidth=2;" vertex="1" parent="1">
          <mxGeometry x="650" y="340" width="130" height="80" as="geometry" />
        </mxCell>
        <mxCell id="FWO0GWQRVAM2mk7AwP2H-24" value="" style="endArrow=classic;html=1;rounded=0;exitX=1;exitY=0.5;exitDx=0;exitDy=0;entryX=0;entryY=0.5;entryDx=0;entryDy=0;strokeWidth=2;" edge="1" parent="1" source="FWO0GWQRVAM2mk7AwP2H-2" target="FWO0GWQRVAM2mk7AwP2H-9">
          <mxGeometry width="50" height="50" relative="1" as="geometry">
            <mxPoint x="400" y="500" as="sourcePoint" />
            <mxPoint x="450" y="450" as="targetPoint" />
          </mxGeometry>
        </mxCell>
        <mxCell id="FWO0GWQRVAM2mk7AwP2H-25" value="" style="endArrow=classic;html=1;rounded=0;exitX=1;exitY=0.5;exitDx=0;exitDy=0;strokeWidth=2;" edge="1" parent="1">
          <mxGeometry width="50" height="50" relative="1" as="geometry">
            <mxPoint x="340" y="379.5" as="sourcePoint" />
            <mxPoint x="440" y="380" as="targetPoint" />
          </mxGeometry>
        </mxCell>
        <mxCell id="FWO0GWQRVAM2mk7AwP2H-26" value="" style="endArrow=classic;html=1;rounded=0;exitX=1;exitY=0.5;exitDx=0;exitDy=0;strokeWidth=2;" edge="1" parent="1">
          <mxGeometry width="50" height="50" relative="1" as="geometry">
            <mxPoint x="580" y="379.5" as="sourcePoint" />
            <mxPoint x="650" y="380" as="targetPoint" />
          </mxGeometry>
        </mxCell>
        <mxCell id="FWO0GWQRVAM2mk7AwP2H-27" value="" style="endArrow=classic;html=1;rounded=0;strokeWidth=2;" edge="1" parent="1">
          <mxGeometry width="50" height="50" relative="1" as="geometry">
            <mxPoint x="320" y="520" as="sourcePoint" />
            <mxPoint x="680" y="420" as="targetPoint" />
            <Array as="points">
              <mxPoint x="320" y="480" />
              <mxPoint x="640" y="480" />
              <mxPoint x="680" y="480" />
              <mxPoint x="680" y="440" />
            </Array>
          </mxGeometry>
        </mxCell>
        <mxCell id="FWO0GWQRVAM2mk7AwP2H-28" value="" style="endArrow=classic;html=1;rounded=0;exitX=0.535;exitY=0.997;exitDx=0;exitDy=0;strokeWidth=2;exitPerimeter=0;" edge="1" parent="1" source="FWO0GWQRVAM2mk7AwP2H-21">
          <mxGeometry width="50" height="50" relative="1" as="geometry">
            <mxPoint x="400" y="500" as="sourcePoint" />
            <mxPoint x="720" y="520" as="targetPoint" />
          </mxGeometry>
        </mxCell>
        <mxCell id="FWO0GWQRVAM2mk7AwP2H-30" value="" style="shape=image;verticalLabelPosition=bottom;verticalAlign=top;imageAspect=0;aspect=fixed;image=data:image/png,iVBORw0KGgoAAAANSUhEUgAAAZAAAAGQCAMAAAC3Ycb+AAAC4lBMVEUbr4Aos4dEvZdhx6d80baR2MKh3suy5NTC6t3S7+bj9fDy+vj1/Pr////3/Pvm9vHY8enJ7OG45tii3suK1r50zrFVw6A2uI8dsIEcr4A5upFjyKiL1r6z5NXT8Ofw+vf4/PvM7eOZ28Zoyqs0uI4yt42d3MjN7ePn9/Kr4tBry60utopwza+t4tHi9e/+//+S2cJJv5lDvZbO7uTh9O6V2sQ/vJTc8+ze8+2F1Lswt4wrtYl90rf7/v1gx6YesIFXxKGv49P6/fzh9e8ms4YlsoV60LXd8+yX28Xx+vf7/f2j38w8u5Kp4c+c3Mgxt4yx5NQ7upLr+PR2z7M1uI6l3838/v7X8ekns4as4tHq+PTv+fZyzbBQwp3V8OjF6985uZAvtouo4c940LR50LTA6dxAvJTL7eLt+fVex6UgsYOM17/P7uRbxqRcxqT9/v5axaMksoU+u5PR7+YptIjl9vFGvpj0+/ltzK72/PpvzK/g9O6E1Lq659lUw6Dp9/Ov49IttYq/6NuD07pLwJuI1b0fsIJdxqXq9/NkyakstYm05dVBvJXI7OC559hpyqsjsoST2cPZ8uqq4dDy+/hmyapZxaKf3cohsYNWxKHR7+UotIeO18BSwp/k9vBTw5+k38yw49N1z7K25daY28ZMwJtOwZzH6+BPwZ3D6t6m4M3u+faP2MHs+PXK7OJCvZZHvpgqtIiC07kfsYLU8OeA0rg9u5ON17+e3clzzrHG69+u4tI6upGN18CG1bxRwp6b3MeW2sW+6NtiyKfo9/J0zrIisoRFvpfW8eh/0ri15da35te96NqH1bya3Mff9O1qy6w4uZBlyanB6d1szK03uY9YxKJ70bXI7OFNwZxIv5na8uv5/fzb8uuU2cPz+/lry6y759mQ2MFuzK6g3sp3z7Nfx6ZxzbBSwp6m4M7E6t4zt40wtouJ1r1+0re859pnyqpKwJpJv5qB07nQ7uWn4M57UNSKAAAXBUlEQVR4nO2dd2BURR7HA8IJJBt6WUC6gFKW4tK5KOWEBCPhOLpnPEBiKKEEAnKA3GEUCC2EZhBBUZqxXADjSRTwQCknVUEQREGQE8Vy9/8lIWF/s/vKzLx5M2/f/j7/wb6ZefP9Zfe9mfmVqCgEQRAEQRAEQRAEQRAEQRAEQRAEQRAEQRAEQRAEQRAEQRAEQRAEQRAEQRAEQRAEQRAEQRAEQRAEQRAEQRAEQRAEQRAEQRAEQRAEQRAEQRAEQRAEQZDwo1z5eypU/N29lSpXiY7xlBAbXbVa9Ro1a9WuU7ee6ruLJLz1GzS8r1FjjxFNmjZr3kL1jUYC9zdv2SrG0BSA1g882Eb1DbuZNm3btae1RRm+Rh06qr5vd9KpVmcfqzVKeciPNhFMl4ZdOY1RSrfuPVTPwT307NXImjVK6F3j93GqZ+IGvA8/0keAOUro26uf6umEO/3/8Kgoa5QQ7cdXYQvUHTBQqDmKiU+oq3pa4cqgx+KFm6OYJomPq55aONJpMO9LLoVJ/OVUTy/cSLLRHMUM+SO+cTEw9E/DbDVHMcPrqJ5l2DCiQxPbzVHMSNzmoqFe7VFSzFHE6DFe1bN1Pk/8WZY5inkyWfV8Hc5Tf5FpjiJixuKXRJ9648SvA00Zj4sSPZ6eIN8cRaQ8o3riziR1orA9RFYSU1VP3oEkVVNljiIm4fZWCDUU2qPoBXiy6vk7jin2bCTSktYd37aCmKrgDQsyeJpqBZzGdIun5laZge+/QaSPV2uRmbNUK+A04pqptUjGVNUKOI7Zc5RaJP5Z1QI4jvJzlVrE81fVAjiO9HlqLeLH198gvLXSlFokAc92g5m/QKlFnkOLBLPwb2gRZ+H9e2+0iLNYpPRtK8It0u/5e8uH/mcCWkQNmeNGeTyxzUM/eOFFtIgCFpd6t1cMff9fslShRRIicz2SteyuAstHhH68Yog6i/jlq6GclavgqVR2UugVS1YrM4inu3xBFDOlL6lAzhqNi9Yyh90Ko610RZSSrvHHv2596HXTBqhak8RH1G78hplaGryUrHFpl0qyTVFKRuScWGWu0gn/GLhC6/LFVeRaooyZkXKq+3h1fRHa5Wo0WLlRzclV5cjwfHjZMOBg0ytabR7fbH8MjwZbImE58qqJC5bPr/Fsj4qa/pocG5C4/+XXu9VchezXNZu+sc1+AwST5nafxtR7qWRopv3jvV2+p9Bod/v95u6g1GGuTkzmIulOwJPc7BufO4leiJ09tfuY1U6yG3CiXI1k0oYpgHCXXkxmjzfzbNJeG9dG9LRhjQF5622dnta37WyL9NqkuHR9mDuDWYphA3TzKb2zU95acbwrVyPTmvJosWCMbr7Xd/+huR9mB+NkCiWJfN431t36OTBS91DnJ7VGTH2JSknCQgT68r26ve6V9CVZ5rofrfesyNG7QPexukiU5Ca8L1MsCTS3qEesf6FOz/8Uorcpo5+SqpfdzIq1rEiMX/tb4hegNg0fSJbMVhZuEiFJk3X7NPouFNE1DQ/LVs0+vKKcp301Xg7pPFFQ36ZUy1QgnT18KFKWCulk55KeIUWMVaOeeD4SG4ETuxmu3r3RQjs3Ik/rcDkMGSHcs2o/6D1LdOcGHFAloVjE5yQ7CHofK7x3fZq4YpPxY/HCrAPdS/U1/Z0yFcVR7l/idTkE+h8uvnt94l1wnGtH3A2oznJYrnNQgjohBfGRHbKAt6xP7Ohfn/ih6qQUQuanNqgyGgxgdY+MlQHKpBRDLztEaQQGqGXHAAbkaIQVhRFtcuwQpRIYYbMdAxhxRJmYIlhniyZHwQjSUwy0D+cdren2vAKtBkPY8Ywy5h5lclrnmD2S1ARDtLZnCAPmKZPTMu/YJAn0JJRT2AIyLHz3T47bJAk0iE1DGPFvZYJa5HW7FPksMEa6XWMYcEKdpNaw6QlC/ImqMIgnTOvqZtlW1etkYBAlBgnTHA/2lWY5FRhEiUEeUieqBZ6yrfhENhhFiUHC8zeroW1yVACjrLdtFCNWKVOVn3zbkl2dICLM7BrFkEZ6s3Ywp+0So88iYpzRdo1jhC8M3UrP2KRFfNBWktji3rScVSOqBT636Z131xdBA6mpI/aAElGtYCn4QJ8zIdXpbVt9GtJahaaW6GaHDDHnQqNmpB9Q3SHcvE9s2cY6n6wxUgc7RjJHI4mqoykQL0HsEc3gT1sO7c35TOtenItXfOBf5+naQ8n2OimlqVxBrfKl6Pn36a6X19i2PX5jmujGajuSVYKn3zlLd6gegoeiJbye6mIdoGOPGKX9ln+GW4J+7LwTmSoyQsekBr2iErq15SgpiqnCXN6HnDWJ2FeS98/jaShHSGH0FLOCTlunFUVWHwb7iX5eUVJT476czTgBWUiqX9Dq+ZmBE8C/ZlsfhocakmQUSLLV8NiLmj6CmR18ngzw0tlJiL7MVJclo0C8bfMszHjmIU0n2lMlOZ5AMpp8NWW/q8lSUSjpA77inO+lMdqZJ8/eCYKGW0m7xanMQFU5CgqnbgLPH/CEBtoL4TZlrwqXwX+qqVUVLUc/G6i7/2u2qQ4s6KTT1ZWUsmtghMgY0VpTEStDO5sYcY4+12Kfb84e1unmcxAKkgMWJzIzBwCkSGcbb397iWKOMceu6iavSP2QSHnZJfCJN0WvP1uRIZutfF57i5Fy8ecLPzLIID21K3n5VfCZmlputgsmAW/W2QE7Qv12GndOeLWjZj2EMqZ/E9zmGvhUZnKNADZrJZFyWZO/m/jZtdVLa4xMnFhh8TumKXYWFoQWoZoBPk9SYA43GYSRfoVaezBp0IxKfLOUCaKW1CO7tPW4Di76TK4pSohRJolKMm/oHs5vBZd9L9MSpYTfwjBukNWyG5k3DEp4w4eIxCx/d6licXLS+bK958VeVkzS75xhRfU0mHmxDW2VGHFUtiqQZM6W7CpuqqBb28CEof6BJoqQ9Q63D6BZeQqkks6NOxPv3WO8jJtPsDfvd/K4+aH8I8Gt9o0dnGenCUgGi9BJFtOI89uuG/U2C7WIyzq3nMqRJDo/tLH36Rs1G9FtL+dsSyz0W3j2hFOyv/SQOiHd9k9dSdNyX63/ZFBLEhyYUEZ+p7MdXvvUwKjDhj8wttOd/f1F3C6WFUWpZT8/aDrmNNnWYbJJ3NGppUxBJS2Ne7u1aE2FijWXnr+UUrbOn1N198GEH9eUh9vJe3lP/ivoDuw0kvrqz2LBwcRe1zu20N5gv8KozYvU73Bx6UXovF4c4TRI2OQE6jSEZjrRRcSQ9SfY3diF/JGmcv5olRcxuAQ60R9OkPkQOLx5YvQ9fhn4B/vAxZQTMbb9JFF9P0qIJnLqd+Jx0W2tV1SPhVyuWm+NBYwsgRYM6cQKYcN8poKTd4n5SUBV1D/xjBwekepLuprPpAzyC8JdlGVIwVqN9QgTs3jGvc/ioFJgqlNIfEHetuLslrPlSrreLVHRimPQcPC19lLV5S6F+IJ4rZZRTZux9Tp/bY9nOUb82LpetvMmy4TehC2vcigSQlrla22f5go0W5/HPlqyEMlspQHLfIg1SH9x9RNydvhPTme2ykbmcTKcX2ayC/0mlCcog/q3zHoYM6epYbGow7PGtLzdDP7C9WB+hLWyRUORrGSKLEsDOeGiFgovZ9s4Ofj2hv7c3Z+YmLjz3vEz8u5csxN+3I51BJN9NAfAluFiOWx6mVUNM3wvkPeWP1Yj/fVXPcEVzG++P0uQ1BL3sM0H7pynC6+y9i15bxe0vYSIpPo1GIdwei7lNnlM06kCH7s/MmphygQy0OcenRCVi/CiX9iG6CtDVCsMZpsPPNzJFJ28PfoUcWsbdB/YG+BlbLXe28kQ1QKMP1gemLZEeK4SMtnb/Xm6F34Dr2NLBvKsDFX5mcZYeZgIzzvP1taUY8SteQ3+8n174ZUsx+s+vUriDoE1ZRXcB9rH2NaMlDbErb1qdC1RcY0liY3DVyHJrBmT4SmG6FSA5A9WsmE03VfEuxJDRohaMmTlh/GJTjphnmBsbMJ44s68Jr9DzeDFe+mrAbG4NclnEatoMCnFr6yNjYkl37AqmFxOnupTR/N2lSErP2wvjEU0AI3Zt/UM+ZG4s0GxZtcTX5HHabdwnH0Wwpw8Lg3uWYgN+j9BxMXFVTdtQFZ/pj227BLlZEKi/8yAcQRDWRsbM5m4s79StIChilEr6eq+O/s4nT1IvAC0PsTc2ojjxJ11ocnqMYz4a6c70uklQ1dudjLLNhu0Hsnc2oDeRN7Sem9RNbpNzIbmedinZ5SDSWd3aoJ/k1WYWxtQQNwZrSMk4bLdheKkaosMXbnZwywbTIpxirm1ATHEGv0U7SvTcOLA12/e4GEpwvLC4IhVCow8WsHc2oCNxI3RV8s4BJtNe8js8kcdfZrOvCgkEytR/D1Ss4soq32SvuEoouEXZpefkyIsLy3ZhYM715XYm+uyB95XOZZ6S/uJKT1mfPFA3qBJKcTlsQv3K2gvMI3PTGJNmMjSdNgnsGnPUYYXw/B45/EKh3LAjf8pjuZ6jIH39Qlb1fBWxGPhZ6NLezs7w/hWduEWgOYvszfXYy5xjr6NsfWrxKyMPGJXRzkajjI6/wTNBa7Tb8Dbeoa19Whi13eJviMlecjoOHiWEZtBe3E5Y4gvSD32bPB/IeY1Rfc6hwent+WQbiJof5ujvTbEuyhPUkwyxLqmzlU+4vHvPG5yzPyPoL2wugaN+4NeM3miONvDHqL665xjOvwLwpU3DHp5mmUzoQYuNjljGxKJmf2iuac1LEmGqvz056kdCeos9+dSTkuoH8BdebO5+vC9QcxNMzSX8M92IBz7Jh5P/UD7LlzKaUB4vLE67ZVxiVhZejWeb02cvQaJiqrNM2+wJWu6bUTLGnhX3I53xPl61MJQD1fH1+zm2hoEf4eGS2IGYmBeG/401z7C1zfqleAEUeQmpBPZwjHreNDe0KuQAcJ5lGkXi6QqGcv7fNDH5HLeiSzjmDRMHfl3fu0IYPzaeivl1cmUaF4yZuRT5xcu5HE6hAapaEE7CMx4csVSTyeJ+eUSE/xIiqaW0Emoawg0iIVfFwgsf8TulESQs4+Y4NvAYSAcCqjzxGraYJAzoMt+FqtMViYz0D9494OBJrnXHAHPjG0wyL9Blwwnt9oEZVIcUPb/zj64LYVnwj7QXoxBfGCpKaDIJPkYiTt4539bOf+JHsVnEJjCXoxBoJtUJlPyAk0yBhFzzC1xq4kXkinNdrh+r8HqSohBMuB+xnYBHV4kU8UNKt4BJT2MHAtXfDk4SRLy2ktsm9QS0eM35M/T2nhPtmGxGefAs636EmjfXYB644g7Yj1L1+YyOc3JRx2+636Xq+w1ui/CH+PvLEs3h8z/ns9bxTKIK1JlFEhWQR7TRF96kPANsby5OCPoWXvBaoelxL4jU0Wh5L/wSA7lLDN2LgpqbNELqM+PwbVy37fWYYDXZOlnB/l19psf5X699HRo7venLYnWNDRF7DVLHQImhnQdZvRovq6y7u93n7dWPayZzHWhBclaP6jhhM6Sg9OIlDBJkmxMZtaVjau3tYeBrymfztta+4J+FlfuVKTR703T6o9nt1OL8MmzT8P6W11mFZFVN900kKIqpzkKtbPCjhBkj7kCkjOHJ5N45Kr6vF6S3k8EGcTx2eJsg+PwYtnp4FerAExpUfVp6ugQKVthy9Po8TxaK9mou3NC7DHM2YlMbIUpr0blwgsm3QnZyfIckDJ1Z7KYVqS5j934wbw7Ic70m/qbD+QmvHXAP1IptidHHe+wuAVd36tFGOT3tkzbqaSfu+iBB0Cp1yfWPNaqvebByujdyw+8v90sawKMtGFN9arFc+In7VhWnh5cvJr/g8ZHuXu3N6j9W2FiCRv3vL+4znSqKnvphfCMnjWRmgb/cnTaDIFkdux1u3QNX2B+NSVF5iCKaAv4yZoq7ObU49XJ1Jn76+zL24CD0xnty5jJLSw+sYTfkALL9nDVG9YHnpzdr617/rsVk+fP/37+2gYN2v52+ebtSSFFwh4SMlrPwjsHyNAgA0IEZqSz1eJJToI6sVzau9YH+/xAmZMe/MlqaNEeeZRvc+EB/XF2c4sjeTccA2fH4AOL3vS96+gOGYY8QT/xtywNlPQmmYcP7MNPtWYQwyIwYQfLGuAK9yhZDRsFdwbcsqydQDq/RAsLSSzxn7FcqexzP16nlX/ul8AV/azY42icKC0cQTO22Xc+u4Sld+/esy1n6PgcwaLNefz2WBYmvnCUrG/MKoCvfaVr5ygSh4z49eqqSkbx7LBODn0WuWAm8RdBdCS8HlZkmGXc3dxgqQuTO0451HDzk+bFXuDCnztBXTWypEL4s5xPh4vwbC7rv0X/k1ZcZz2apdoCzL7PGx3iOnvkstarKAXuM2byJWDwjAJ9cGYiGO42e4DILyZiobcCd+zTrUAfXvpi7gC3PT+ijFOwGUDk1uHyQCkGZrN5jqP9GcfnA2AmjjM2HBZc5q8jAhNecGTKWu1CJyyuJDQezxz46s/qgBLgPOiFvdjCt270+eHMyDAPdHGY1oc+lK+gVyljSrTYK5KlkgPnSy98xzrN10UJU0A/E5laVu0YPBV3YJx5WJfyoAsrx+FwV5ApF9CZcEgGwMEPfDpmgN28fCv1iYkjyP9SN0urFRax5xxc59NxB+hiPl8XpcCvGnXc4qaXZeskDfYSIiXAGtvWAqRhT/0ov2sjXRGTow1nIBkMoKWrTqRHN/jqSpX9/MUGwZNwE5yb3iDSNZ9zL6yM78Hd1KUIy7qpF2HiDjgSwBcDnJqthjMTicJN63Vmu/fpcQe+jZOqoAer4cwxcDtqqHEKlq9/04/4cQeZfCJOAF0c4OsiAFFdx+iYaljCrSi3c4tPQ5hKlHOpH2Am3CHM1d+Er+Hsoqli2MunISwu/2dOOwT4Cd7RbJ2Lxv8SFQnM4pOwIuiC61yJIA9+RbxPal0y70vZyiiCc/MdBudbMUUpRNXV5JD0nPEPhEdOOBFwbnuAdWG6VWt4PJtIv/WgDZQh77n/UR6A0yBgrWy9hnef7UE3dTTwme9McxceChrAaZDrgR748+eXcTX4pt4tc+iaW1g/+DO3w2mQ+YEeOF8LAvhD7+qLYs/TBQVvhH7ietQbZLnWwcbakf7tbj3wMIYzLxw4PbVokM6aqZoiF04537DcQynZkRLJTMs+Ph3BT9Z0K/ao4qrAQBH04BNybaAHKzWKU8Ilp648DvMpCbKEpVqwRwTnUtKFrzzkIdDDHPPL0R70XOLS8kPQQ19Oe7QepHtTkcwOLjFh5JPm7qw5j55SNmdH045LzaOgB76sMZ1dF2cjCKZEfXdpBHoo5OngKK4HdeCpqu7x5IAeVnC07+DGOAIxcO6dgEh19hQMGWv07yfiacFlj/+BHuJYiydlR875HwdeDr/D8a8TXbzE1nonVf6/yMW8WgWJb2mw+wdTLrgUVzvmiuAgkzny/MkhPbBkgrjPpWE2AmH4+25y9GOtNHr0G5RV8ethzhRKMfParemn0wXl9ku8P8LyTnOyIfH2RZMXpZlHf5plsHLYT2WP+yLOYcEK9z8xe+Jj47PzSA19eZeOt6ww1WyXow6FOYLezBBKUpecKv/l/CK+n1X+1ELK9bR51OftSPEEdQgfGFoj9mZoSTbEVoxeDLrtEZDqF2EjU88DPqUguB4lIoWWWtY40Wy+u5KFhhFZQVlHfd1u3sC3XJXMzo4uXsvE7DpRfYu/9iJcASIIgiAIgiAIgiAIgiAIgiAIgiAIgiAIgiAIgiAIgiAIgiAIgiAIgiAIgiAIgiAIgiAIgiAIgiAIgiAIgiAIgiAIgiAIgiAIgiAIgiAIgiAIgiAIgiB283/Yhzofj4gvQwAAAABJRU5ErkJggg==" vertex="1" parent="1">
          <mxGeometry x="-105" y="300" width="40" height="40" as="geometry" />
        </mxCell>
        <mxCell id="FWO0GWQRVAM2mk7AwP2H-32" value="" style="shape=image;verticalLabelPosition=bottom;verticalAlign=top;imageAspect=0;aspect=fixed;image=data:image/png,iVBORw0KGgoAAAANSUhEUgAABLAAAAJ2CAIAAADAIuwLAAAACXBIWXMAAAsTAAALEwEAmpwYAAAgAElEQVR4nOzdB5wU9f3/8Wk7W65y9H4cRUBQimJBVOxdY9SYpun9n2piTDMxPzWJmhijUaPR2GusiIgiCooioDTpRXo7ruxt39mZ/2M9o6jHsXe3M9+Z2dfzkQcPOXZnP/nswdx7v022LEsCAAAAAJQeRXQBAAAAAAAxCIQAAAAAUKI00QUAAFB8ZiohGYaZiFqGISUT+a9k01Y6ve9jrERUtiQpHJGUj+6Gsqoq4bL8fwV1WQvJkfyfquWVvEkAAF8iEAIAvMA0c80NZnND/temPWZLkxVvMeMtViL/a/4/8r9GrUSLlc1ImY8Fv6KwFFUJR+RgWC6rUMoq879GyuWySiVSoZRVyBXValWNUlWjVPfI/6oHi14AAAB2kNlUBgDgEma8Jbd3Z27Pzvyv+f/YYTbuyTXVm82NZnODLHlnF7Rwmdqtp1LZTenWU+3R5/3/9X3/195qdU/RxQEA8BECIQDAcYZh7Nlu7NqS27HZ2Lklt3NL/r/rd0rJuP/fDC2gdO+t9eyn9h2k9Rmo9hmk9hmo9RmshEKiKwMAlCICIQDAXlYilt2yPrtlnbF1g7FlfT7+7d4mmzn6vq/8WGKfgYH+Q9QBddrAYdqgoVpNb1oEALAbgRAAUEymkTE2rctuXGlsWWdsXm9sXW827KbFnSBHyrXWcDigLjBkpDZkFHvbAACKjkAIAOgSMxXPbduU3bw2u2FFdn3+f5KRoad2kKt7BIaODtSNzv86cLjWZwB9BgB0EYEQANBBppnZtMZYuzyzZnFmzTJj20YvbffiI3J1D3342MCIcfqIMYFhByuh90/LAACgIwiEAIADyzU3ZFa9k12zJLNmaX4MMJ2ka65iyXJg0HB9+FhtxKH6yPGB/rWiKwIAeAOBEADQtlxjfWbdsuyqdzJL38xsWMUwoIfIVTWBYWP0kRNDhx4ZGDJSUhTRFQEAXIpACAD4SK6xPr1sfmbZ/MzKRbkdm2mND8gV1frI8fqYw4PjjgoMGCa6HACAuxAIAaDUmZlUZuXizNJ5jAT6nlxVo4+eGDrkaP2wKRxrAQAgEAJA6cpuXZdeOCe9eF5m5TvsC1pqLEkK1B6kH3JUaMIxwdETJVUTXREAQAxGCAGglBhGes2S9KJXU2/Nzm1/T3Q1cAc9pI+dFD5sanDScWp1T9HVAAAcRSAEAP/LNTekFr6aXjQnvWSelEqILgcuZcmyftC44MTjQ5OOZbUhAJQIAiEA+FauuSH99tzkGzPT77wumznR5cBLlF79Q4cdFzrqlOCoCZIsiy4HAGAXAiEA+I1Rvz315qz0wlfT7y6QTVN0OfA2pUff0KSpJEMA8CsCIQD4RK5hd/L1GcnXnjfWLRddC3xI6d47NPm08JQz9LrRomsBABQNgRAAvM1KxJLzZ70/L/Q1xgPhALX/kNDRp4annBnoX0vDAcDrCIQA4EmmkUkvnJOcMy29aC6HRkAIbfjY8DFnhI89Q62s4S0AAI8iEAKAx2S3rkvOfibx8lNWtFF0LUB+b9LgmEllp1wUOuIEzjMEAM8hEAKAN+Ri0fS8mYlXns6uXiy6FqANclX38ORTwyd8Rh8ykgYBgFcQCAHA3SwrvWx+fOZj6QWzJSMruhrgwAIjDgmf9Nnw5DOUUIh+AYDLEQgBwMW7xbw2Izb9/tyW9aJrATouVBY55rTI6V8I1I6gfQDgWgRCAHCd7PoViZmPJuY8J2VSomsBuipQNypy8kWh489SdAYMAcB1CIQA4BZmJp167fn49AeMjatE1wIUmVxVEzn5grJTP6fW9KK5AOAeBEIAEC/XtDfx8tOJ6febjXtE1wLYSdWCk6aWnXVJcOQ4Gg0AbkAgBACRMhtWJl94JPHqs1I2wzuB0ppHesYXI1POlDRNdC0AUNIIhAAggmWlFr4ae/ru7Mq3eQNQspSefcvO/FLk5AuUUER0LQBQogiEAOAs00wuejX+6K3ZDStpPZAXKouccG75Z7+hVvekIQDgMAIhADi4Z8zrM2KP/yu3czNNBz5JC4SOPrX8c98J9BlMcwDAMQRCALBdLhZNTH8gPv1Bq6WJdgPtsBQ1fMzp5ed/IzBwKI0CAAcQCAHARmYiFp/xaPypO614C40GCmRJcnDilIqLv6/XjaZpAGArAiEA2MKMt8RfeCz+5B1WIkaLgU4gFgKAAwiEAFBkuWhj/Nn74tMfkFIJmgt0kSXJoaNOqrjgO4HaETQTAIqOQAgARWOmEvHpDzMqCBSdJUmho06u+MIPA/1qaS8AFBGBEACKwDQyqZefiT58s9W8l4YCNrEUteyE88ou+q7WvTdNBoCiIBACQNeYZnz207FH/mnu3UkrPUTp3js4bnJgxCFa/yHJudOTLzwiuiIULKCXnfHFsvO/ppZX0zUA6CICIQB0XnL+rJYH/p7btpEmeoYeDB9zRuTkC/ThYyVZzq/5bNi9+wdnSemk6MrQMXKkvOzcr5adc4mih+gdAHQagRAAOiOzbnn0nuuzKxbRPq+wZDlywmcqLv6+WtNr36833fzb5OynxNWFLlG696744o8iU86UFIVWAkAnEAgBoGOM+u0t99+UnPtcfnQJHqEfclTlpZd9eptKY8fm3T88WzZNQXWhOLS60ZWXXhYcczgNBYCOIhACQKHMVCL21N3xp+6Sshm65hlaoOLLPyk/68tt/mHTP69MznrC8ZpgC33sEZVfuzwwaDj9BYDCEQgBoMCdY55qeeDvVnMD/fIQtc+g6p9dp9eNbvNP86sHv3OqlDMcrwt2bkN6xhcqLvquUlZBlwGgEARCADiAzNplzXdea6xbRqe8RZ94bLcf/amdYNDy6G2xR25xtig4Qa7qXvnlH0eOP7d13yAAQDsIhACwX7loQ8v9f0/MelLOH4sNLwkdc3q3H14jqdp+H2Gau75zirl3l6NlwUGBEYdUfePXgaFtjw8DAFoRCAGgLaaZePXZ6D3XWy1NNMhzwqdcWP3N37S/7WR66ZsNf/img0VBAEuSw8eeWXnpZWp1d94AAGjT/j86BYBSlVmztPn2q4z3VosuBJ0ROfuSqq/8/IAPS86fRX99T5as1Jxp6bfnVlzy07ITPsMMUgD4NEYIAeAjZryl5cGb4jMeYY6oR4WmnNHtR38q5Of+Xd84wWzc40hRcIXAqAlV3/5dYOBQ0YUAgLsQCAHgA8kFs6N3XM2iMu8KjJ5Y89vbFT14wEdmt6yv//F5jhQFF7EUtfycS8o/9z1FD4muBQDcgimjACAZDbuid/4pPf8leuFd6oChNZffVEgazM8KXv6W/RXBdWQzF3/q7uQbL1Z96zehcZNFlwMArtDegnsA8D/TjE1/cM8PziYNepocKa/59c1KeWWBj8+s5RCR0mXu2trwx+803fzbXCwquhYAEI9ACKB0GTu31v/+Gy3/vlZKJ0XXgi6p+t5VWq8BhT+eHYNKnCxJydlP7fnhOck3mRcAoNSxhhBASTLN2LT7Wh76h5RJiy4FXRU57eKqb/66A08wzR2fP0wysrQerRsRVX7tl2plN7oBoDQRCAGUHGPH5qZ//i67YpHoQlAE2qDh3f/8YIf2CDH27NjznVPoPj4kV3ar/uZvQkfzXQGgFDFlFEApMc3YM/fs+fFnSIM+oQWqf3pdR3eMNBt221YQPMmKNjbe8LPGGy7LxZpE1wIATmOXUQClwti9rekfv8muWCi6EBRN2We+3olj5XJNe3kP8GmpeS9kVr5d9YM/sgEpgJLCCCGAkpCaN7P+sgtJg36i9h1Ufv7XO/FEK5WwoRz4gdm4p+GP32m+9fcm3yQASgYjhAB8LhdtaL7tqvT8WaILQTFZ7+8s2rnjxS02lcX+yZKUeOm/6XcXVv/oWn34WFoFwPcYIQTgZ6lFc/f8+DOkQf+JTD0vOHpi554r53/mB9qT27Gp/ldfann0Vsk06RQAfyMQAvApw4g+fEvDNd+3mhtEl4JiC+jlF3+/08+2FAIhDkw2zdgj/9zzqy8Zu7fSLwA+RiAE4EPZ7e/VX/GF+GO3yfmphfCbsrMv1Xr06fTT5YBe1HLgZ8baZfU/vzg5/2XRhQCAXQiEAPwmNW/m3ss/n92wUnQhsIVcUV1+3le7cgWlrLJ45cD/rFhz019+1Pj3K8xUSnQtAFB8bCoDwD/MRKz5jqtTc6aJLgQ2Kr/wO0pZRVeuoFRUF68clIrUnGnGe6urf3pdJ046AQA3Y4QQgE9kN62tv/zzpEF/U2p6RU69sKsX6dajSOWgtBib19b/4uLEq3zkBMBXCIQA/CDx6rT6X34ht/090YXAXmVnX6JoXV0BqPXoK+nBIlWEEpNJNd90RX76aIbpowB8gkAIwNvMTLr539c233SFxM9nfieXVURO+mwRLqQoWp9BRbgOSlVqzrS9v/qysZPdRwH4AYEQgIcZ9dv3/variekPii4EToicerESKS/KpdT+tUW5DkqWsXHVnssuSL7xouhCAKCrCIQAvCq18NX6n15grFsmuhA4QtPLzvhC0S7Wf0ixLoXSlYw3Xv/T6AM3cXg9AE8jEALwIMtqefxfDdf+PyveIroUOCQ0+TS1eJvBaP0IhCgCWZLiT9yx95rvW4kYDQXgUQRCAB5jphIN1/8s9tA/OHS+pEROOr+IVwsMG1PEq6HEZd55bc9lF2U3rxVdCAB0BoEQgJcYe3Y0/PYr6TdZt1Na1L6Dg6MmFPGCgf61clX3Il4QJS63a0v9FV9KvvmS6EIAoMMIhAA8I/3uwvpffC67YaXoQuC0yMkXSLJc3GvqI8cV94IodalE43U/id73V5YUAvAWAiEAb4g998De33/dijaKLgSOU7XwcWcX/ar66IlFvyZKXH5J4VN3N1z/MzPFKYUAPINACMD1DKPpjqtb7vqTbJqiS4EAwQnHqNXFn96pjyIQwhbp+S/t/e2lxt5d9BeAJxAIAbialYjtveb7yRkPiy4EwoSOOMmOy+pDRkqhMjuuDBgbVuz95RcyzG8H4AUEQgDuZezeuueXX8wsmSe6EAhjKWro8Km2XFpRguOPtuXKgCSZDbv3/vqS5PxZNAOAyxEIAbhUetXi+l9+Mbdtg+hCIFJw7BFKeaVNFw8ddrxNVwbyMqnGv/w4+vAtdAOAmxEIAbhRat7Mhiu/ZjU3iC4EgoWOONG+iwcnTLEU7oOweZuZx25ruv2PbD0KwLW4EQJwndiz9zbccJlkZEUXAsGsfCC0Z77o+9TKbvrI8fZdH2iVnPlow19+xNajANyJQAjATSwr+vAtLf+5Ts5nAZQ6bdAwtbqnrS/BrFE4I73glb1XfjXXtJeGA3AbAiEAtzAz6ca//jz+2G2iC4FbBMdMsv0lDmcZIRxirFu+9zeXGDu30nEArkIgBOAKuVi04Y/fTs17QXQhcBF9zBF2v0SgX61WO9LuVwFa5XZsrr/84vSqxTQEgHsQCAGIl2usb7jya9kVi0QXAhexJDl48GEOvFB4yukOvArQyoo1N/zhm6nFr9MQAC5BIAQgmLF7297fXGq8t1p0IXAXvW6kfQdO7Cs05Uwrvxkk4JRMqvGaHySZEAHAHQiEAETKblm/99eX5HZu5m3AJwRGHOpMT7TuvfXRE+g/HJUz8kumX/ovbQcgHIEQgDCZNUv3/uZSs2E37wE+TRs8wrG2hI85w/9vgR6UK7uJLgIfkS2r+dbfx569l6YAEItACECM9PK39v7hW1asmTcAbQrUjXKsM+HJp0mq5uM3Qq7uUf3T68xYVHQh+BhZklr+c130vr/SFwACEQgBCJBa+GrDH78rpeJ0H22yZFkbNMyx5ijllcHxx/j1vVAHDevx5weMjatlMye6FrQh/tTdzXf9WbI4fBWAGARCAE5Lzp/V+JcfS0aG1mN/tH61ih5ysj/hE87z5dsRqBvV44/3aDV9EixXc7HEc/c33XE1mRCAEARCAI5Kznuh8fqfSTmDvqMd2qDhDvcnfNhx/ltiF6gbVXPlnUp5ZXrVO+benaLLQXuSLzzSdNsfJNOkTQAcRiAE4JzE3Oca//YL5q3hgLTe/Z3ukqqFjz1L8hGtdmRrGsyHjbnTRZeDA0u+9N/Gm39LJgTgMAIhAIckZj/d9PcrZD7/RgHU7n2c71PkxM9IfqH06Fvz61s+OMjRNFNvvii6IhQk9eozjX//pWQwhwKAcwiEAJyQePmpppt/K7NrAgqj9BAQCAODhmvDxkjeJ5dV1Pz2n2pNr9bfZtYus6KNootCoVKvPd9w4+VkQgCOIRACsF3i1WebbvmdLLGHHgql9ugrpFmRqZ7fWsZS1G6/uDEw4KM9WlNvzxFaETos/cbMxn/8irmjAJxBIARgr8Rrzzf949ekQXSIKmKEMB8Ijz1T0oOSl1V++SfBMZP2/Ur6ndfFlYNOSr32POsJATiDQAjARsk3X8qvG2SmKDrCkmRV0IafcqQ8dPSpkmcFDz++/OxL9v2KmYpnN64UVxE6L/XqM03//B3jhADsRiAEYJfkWy833nAZe4qio+SgoycQfkLk5Aslb1L7Dq7+4bWSLO/7xczqZezk5F3J2U833XkN5xMCsBWBEIAtUovmNpEG0Smy0EmbwZHj1EEfLcDzCktRq3/8JyVS/omvZ1cvFlQRiiP5wiPNd/+FbgKwD4EQQPGlV73TeP1PJSNLc9EJcigstm+Rky6QvKbiwm/rbW2Rmt28VkQ5KKbEc/dHH7qZngKwCYEQQJFlNq5qvPp7UiZFZ9E5si44EJZNPddbW8toQ0ZWfPabbf6RsXW94+Wg+OKP3x57+j90FoAdCIQAiim7fWPDH75pJWK0FZ0m67rY7uW3ljnKO1vLqFr1j6+VVK2NPzKM3PZNAkqCDaL33pCY/RStBVB0BEIARWPU72z4w7etliZ6ii7RAsIbGDn5s5JHlJ1z6b6nDu4ru3OzlDMcrwi2kCWp6ZbfpebNpL8AiotACKA4ctGGhj9806zfQUPRRXKbg13OCo6aoA4cKrme0r1P+QXf2t+fGluYL+orsmU13nh56p3XRBcCwFcIhACKwEzEGq76dm77e3QTRaCobmijJ7aWqfrmr5VQZH9/amzb6Gw5sF/OaLzup9n1K+g1gGIhEALospzReP3PjI2raCWKQtbEjxBKkhQ+/hyXby2jj58cOvz4dh5gNu5xsBw4JZ3c+8dvZ/kADkCREAgBdI1lNd5yZWbJPPqIolFdMUKolleGjjpFcitLliu/9NP2H2PGmp0qB46yWpoar/l+rrmBvgPoOgIhgC6JPnhT6tVnaCL8dOzEhyInuXdrmcgJnwnUjmj/MWaUHZ58K7djc8PV3zNTCdGFAPA8AiGAzovPeCT+xJ10ED47mP5DwdET1QGu3FpGD5V/7nsHfBQjhP5mrH+36cbLJdMUXQgAbyMQAuik5FsvN995Ne1D0cn73yXFee48fyJy6kVa994HfJjJGTB+l17wStMd/ye6CgDeRiAE0BmZ9Sua/na5bFm0z80qvn5F1f+7OnzyBUqPvpJ3tLNtpvPCx58tBXTJVfRg+blfLeSBZgtrCP0vOfOx2NP/EV0FAA8jEALoMKNhV+O1P5AyKXrncrmdWyLHn1P9nSt73zqj5so79PHHSF7gqhFCtbw6dOTJkptETrlQ7dajoIdm07ZXAxeI3vvX5Fsvi64CgFcRCAF0jJlKNF7zA7az94TUvBc+WF+kKMFDjuz+m1trrr5Xqz1Icjf3rCF049YyAb3A4cE8Wba3GLiDLFlNN/4ys2Gl6EIAeBKBEEBHmGbT36/gyEGvMBv3pFcs2vcrwZHje/754fKLvmu5OCooFVWSmwQPPkztO1hyh/Dx56g1vQp+uHvfZRRZOtl47Q+MvbtoLICOIhAC6IDoAzemmZjkKak3X/zklzSt4nPf6/67f0nhMsmVlPJqyVVkOXLS+ZILWJJcdvaloquAS5kNuxv/9EMzxWR+AB1DIARQqMTLT8Wfupt+eUt6+Vttfj0/g/SP/5GrukvuI1e4LBDmx+XOlVRNdBVS6PDjA/1rO/AEBghLjLFhRdNNV0hs9wWgIwiEAAqSWb2k+faraJbnGFvW5xrr2/wjfcjIHtc+oPYZJLmMUt1Nchm1unvw8Kmiq5DKzv2K6BLgdun5L7U8dpvoKgB4CYEQwIEZe3c1XvcTycjSLM+RJSm78u39/anWu3/NVXcpBZxo5ySl3F1rCF1yIGGgblRw1IQOPUV224EZcETLI7cmF8ym2QAKRCAEcABmJt143U/YVtS7Uu8uaOdPte69u/3qFsk1Jz1YsqxGKiX3CR1ylNJT5HGO4VMu6uhTZFdGaziy6egV2a0baDWAQhAIARxA9I6rjbXLaJN3Ge+tbv8Beu1B3X52vaW44o6gVHWX3FHJJylK5ARhW8vIkfLwlDM6+iyl0nWTb+GQVLzxTz+0EjEaDuCAXHnTBeAa8ekPJl9+UnQV6BJjy7oDPiY0YUrVVy93Q6O1mp6SW4WPP9sStE9L+PhzlI6P4rrtAA84KbdjU8ONl39wEikA7B+BEMB+pVcsar77LzTI66x4i9Fw4NPJys74ghv2TVG6FX7IntO0Xv2DYycJeenIyRf44QAPOCuzaE70kVvoOoD2EQgBtC3XWN94w2WymaNBPmBsPvAgoSRJVd/7vVxVIwmluHiEMD9Sd8JnnH9RrXZkYNDwTjxRcd8BHnBY7PE7Uovm0HYA7SAQAmiLaTb+7RdWU9vHFcBzzN07CnmYWllT9d3f219OuzXUuHeEMD+39sgT5Ui5wy8aPu6szj1RqWINYanLbzBz06+M3dtEFwLAvQiEANoQffCmbLtbU8Jbck17Cnxk+PCp4ZNEnq+gdHP1CKGih0LHnO7kK1qyHJp8Wueeq/YaUOxy4D1WrLnxhsvMTFp0IQBcikAI4JNSC1+NPXkXffGT/Z1N36bKS34mcOKoKvRoh0JEpp7r5MsFx0zSOntQpNaHQIg8Y93y6D3X0wsAbSIQAvgYo3570z9+LUsWffETsyOzf5WyioqLvicJovbqL7mbPuJQddAwx14ufOxZnW9mn0FFrQUelpzxcGL206KrAOBGBEIAHzGNTONffmrFmmmKz5jRxg49vuyUC7VO7WLSRZYkqz3cPkKYHyQ87hyHXimgh444sdPPViu7Ob/iEa7VfMfVnFYP4NMIhAA+0nLfjcb6d+mI/1hGtmNPUJTKr/5Ccpxa01PRg5LrhY8/y1KcuIEGDzteKavoyhW0PgOLVw48Lp1s+uvPzUxKdB0A3IVACOADqUVz49Puox3+1NFAKEnBQ450/lhC988XbaVW9wwecpSb9xf9ELNGsS9j05qWe/9KTwDsi0AIIC/XsLvp5l/LNMOnrGymE88q/9z3HF5Lqvb2zCYoXVnaVyC5rDI4fnIXL6LVHlSkcuAT8ecfSr71sugqALgIgRBA/tTBppt+ZXVwmRm8xDA68SR9yMjQxOMkB2neCYShI06Q9JCtLxGccIyi6V28SKBuVJHKgU/IktR8y++M+p2iCwHgFgRCAFLLk//OLJtPI/xMC3TueeUXfFNykNqvVvIIJRTJZ0I7hYoxZTdQN7oYtcBXrFhz042XS6YpuhAArkAgBEpdZs2SlodvEV0F7KUEO7lTiz7iUH3MJMkpWv8hknfYOmvUUlT90KO7fh21qkbp3qcYFcFXsivfbnn8X6KrAOAKBEKgpJmpVNNNv5LNnOhCYLMuTG4s/6xDg4SWJGv9vBQIQ4ccJVd1t+ni+uiJanllUS7FrFG0qeWxWzNrltAcAARCoKRF77kut2Oz6CpgO7kLZzkEDzlSGzJSsp/ao48SsndVXpFpWnjyaTZdOzTx2GJdilmjaJNsmk3/+I2Z4hQKoNQRCIHSlXp7bmLmo6KrgBPkSJfOsis75XOS/bw1X7RV+Ngzbbpy8LCibeejjxpfrEvBZ3Lb32u57wbRVQAQjEAIlKhcLNp86+85Z6JEqN16dOXpoWNPl0Jlks20AXWS1+jDx6p9Bxf9smq/2kDx9tcJHHSo1OXdSuFX8RkPpxbNFV0FAJEIhECJar7tD2bDbtFVwCFKVU2Xnh4qC085XbJZYMBQyYPsGCQs4vBg/u3TQ4HhY4p4QfjtFIpbr8zFmkQXAkAYAiFQihJznku/MVN0FXCO0q1nF68QOflCyWZa7XDJg0JHn1r8axb7+Ef94MOKe0H4idm4J/qvq0VXAUAYAiFQcnJNe6J3XiO6CjhKre7R1UQxdLRm54l2+S1GB3kyEAYG1KmDhhXziqGy4Mgir/oLHnx4cS8In0m9PiP5xouiqwAgBoEQKDnNt/+fFY+KrgKOUvv07/pFIieeL9lG6ztICUUkbwofVcxBQn30BEnTipxaR46TtEBxrwmfab7jaiaOAqWJQAiUlsTc6em3XhZdBRxlSbLaa0DXrxM66mRLseuuEXDkZAubhI451eWjeYoe0hkkRLus5r3Rf/+ZJgEliEAIlJBcc0P0rj+JrgJOy5/v14WD6T+6TlVNcLRdS9G02oMkzwr0G1LEWaP6GFumdxZ3oxr4UmrOtOT8WaKrAOA0AiFQQqJ3XmNFG0VXAadpfQa6eQOVVoHBIyQvK9qs0XCZbs9azaJvVANfit5xtZWIia4CgKMIhECpSL7xYmreC6KrgABq8Q58Dx1xok2zRgPDbNyxxgGho08pynX0URMkezqs9e5f5M1v4Edm457mu/8iugoAjiIQAiXBSsSa2Vm0VAWKNxtTre5ux6xRpUdftbqrB2P4Y69RW7cDZZAQhUi8/GR62Xx6BZQOAiFQEprv+5vVVC+6CohR3P1a7Jg1Ghg+VvK+oswatWkBYavQ4VPtuzh8dVT97X80M2nRhQBwCIEQ8L/MmqWJmY+JrgJiWIqiDS7m+X6hI6ZaUpHpIw6RvK8Ie43atoCwlT7iEKVnX/uuD9/I7dgUe+JO0VUAcAiBEPC7nNF86xh9iv8AACAASURBVO9lqeg/w8MbtP5DirLF6IfU6p5asZeiBYaNkbwvv9do15Zr2reA8AOyHJ58mo3Xh4/En/x3dvtG0VUAcAKBEPC5lmfuMTavFV0FhNGHFX82ZnDc5CJezVKUQN3Bki8Exx/TlafroydKNgtNPt3ul4BPGNnmW6+SLD5MBPyPQAj4mbF7a+zRW0VXAZECI8cV/ZrBQ48u4tUCg0cooWKOYXo4EA63feqsXjdK7Vdr96vAH7IrFiZmPy26CgC2IxACftZ8xzUSGwOUNv2g4gdCffQEKaAX7WqjbB8Wc0x+iK+zE3QtWXbm7I3wMQwSolDRe2/IcXot4HcEQsC3kgtmZ96eK7oKiCSXVwUG1BX9sooe0ot3OoKt+2o6TNGD+sGdPJZDG1CnhMok+4WPPYtZgCiQ1dLU8tA/aBfgbwRCwJ/MTCrK4cIlL3DQoZIs29GG4KFHFeU6liTnd1LxkU6vA7RjtWebtL6D9DGTnHkt+EDixcczG1aIrgKAjQiEgD/Fn7nH3LVVdBUQLHjIkTZdWR97RFGuExg0TK3sJvmIPnK8+w9jjJx4vmOvBa+TLSt657XsLgP4GIEQ8CGjfmfsvxwhhSJvB7ovffAIqRjzG/00X/SjIzS0QGeeONy5szdCR54ol1U69nLwuuzqxYk500RXAcAuBELAh6L/+YuUSYmuAoIpNb3sWED4v6srejECjD66kyvuXEvRg4G6UR1+mqbnM7ZTFD0UPvZMx14OPhC953orERNdBQBbEAgBv0kvfTP9xouiq4Dnj0AoaIFi1xcQ2n/ynvMCHT89Ip8hVU1yUOTkC518OXid1dwQfew20VUAsAWBEPAX02y++8+ii4ArBMfbNV+0lT6iqwdaBIaNUatqJN8JDDmow08Z4dwCwg9ecfDwAFvLoCPi0+7Pbn+PngH+QyAEfCX+8pO5zetEVwHxLFkOjrVrR5lWgYPGWu6OrKJotSM7+pTAUOcWEH6o7IwvOv+i8C7ZzLXcf6PoKgAUH4EQ8A8zFW956GbRVcAV9OFjlXJ7dw1Ry6u1frVduULI5kmtouiDhnV0X5nAkA5nyK4LH3680qu/868L70rPn5V+d6HoKgAUGYEQ8I/Yk3dZTfWiq4DP9xfdl96FZYRyWaXu4EELjlI1bcDQDjxeCwT6Dpacpyhlp10s4HXhZdG7/iyZpugqABQTgRDwCaNhV/yZe0VXAbfQDz3agVcJDD24088NjjtaUnx7D9IGD+/Ag/sPkTRHd5T5UPjE84tyfAhKh/HeqsTc6aKrAFBMvr0ZA6Um9uA/OGoCreSK6uCIDm902QnaoA7EnhJZQNiqQ5Npu9LGLlLLK8tOu0jUq8OjWh74u8nJRoCPEAgBP8hsXJWY/YzoKuAWocOnOjP4pg0e1rknWooSnHCs5F/5Qb/CHzzIuRMIP63s7C9Lmi6wAHiOuXdnfNr9oqsAUDQEQsAPWh64UZa6uOMj/CN01MnOvJBaXq1069mJJwZHH+bLAyc+pA3sQCAM1AobIcy/idU9wyecK7AAeFHsiTtzsSbRVQAoDgIh4HnpFYsy77wuugq4hRwp1w85wrGX69x0x9CRJ0m+pvYZZBU8SCtwymir8nO/Vni1QF4yHn/ybloB+AM3AMDzWh74u+gS4CLBw45XHJwBqA3q8KxRS5KDk06QfE3RdK1nQSc6yGUVWo8+klBanwGR484WWwM8Jz79gVzDbtFVACgCAiHgbakFr2RXvSO6CpTifNFW2sAOB0J95Dite2/J75SefT0xPNiq/KLvSqqYnU7hVZl0y2O3iy4CQBEQCAEvM82WhzmJHvsIhvPHOTgo0JHzFVqFjjhRKgFagYFwsMgdZT6k9eofPuE80VXAYxIv/dfYsVl0FQC6ikAIeFjiteeN91aLrgIuEpp4rKKHnHxFbcCwDm1nZEly6GhHxzBFUXsVNGU0MKBOcofyz36L7UbRIbKZa3nknzQN8DoCIeBZhhHjToyPCx91isMtUUIhpap74Y/XDz5M69FPKgFqYSOEar8O7EdqK61n38jpF4uuAh6TnDs9u3mt6CoAdAmBEPCqxNzncjuZq4N96EF9wjHOd0Tt1YGAFzn+HKk0qD0LaovWf5DkGuUXfFsurxJdBbxElqzY4/8SXQWALiEQAt5kmrH/cg/GxwQnHKuEIs43Res9oNCH6iHfHzjRsZwc0LUawVuM7kstryy/4Fuiq4DHJF9/Ibt1negqAHQegRDw7PAgS/nxceEpZ7h5sVzrdjJKpFwqDVr3PpYst/8Ytc9AyWUHAEZOv1gpPOEDrYOEj7LdKOBh7roPASiIacbY7BsfJ5dVBCdMcXkgDE8tpX0sVU3t1rP9h2iuWUD4IUXTK7/8E9FVwIODhJtYSQh4FYEQ8J7E3Om5HZtEVwF3CR15sqIHhby0WtiAktK9d2jsJKmUHDAqa30HSu4TPuqUwMjxoquA1wYJn7hDdBUAOolACHiNacYeZ3IOPil87JmimqIVtntK5JSL3DY90m5qjwOsD1T71UquVPn1X1rSAea7AvtKvj4ju3UDPQG8qLTuzYAPJN+Ymdv+nugq4C5KTa/g6MNEvbrWq98BF8tJWiBy0melEnPAQKj1HSy5kl43OjzldNFVwEtky4o98W/RVQDoDAIh4DHxp+4SXQJcJ3TM6SIH3wpYLBeafJpa3YHjCv1BOeAaQrcGQkmSKr70Iymgi64CXpKc+5yxZ4foKgB0GIEQ8JLU4nnZDStFVwHXCU8RNl+0lVJV0/4Dyk7/vFR6lOoe7f1xqEzt1u4DhNJ69Cs7+xLRVcBLZDMXf/Ze0VUA6DACIeAlsSeZkINPUvsP0etGie2LUtXe6J82fKw+fKxUetofONX6uP10h/LPfkNuP9MCH5d48bFccwNdAbyFQAh4Rmbd8uzyt0RXAdcRuJ3Mh5TKbu38adkZX5RKUvsjhGrPvpK7KaGyys99X3QV8JRMOjHjYdFFAOgYAiHgGbEnWT2IT7Ly80XPEt6XdqaMKr0HRI4+VSpJ7c8IVXu4PRDm94Y96Xx14FDRVcBL4s8/ZKYSoqsA0AEEQsAbstvfS81/SXQVcB191AStd6HnwttHqdzvlNHyz3xd0jSpJCmRckkP7e9P1cKO6xBMUSovvUx0EfASq6Up8dIToqsA0AEEQsAb4s/eJ1uW6CrgOuHjzpZcQKlqe8qo0r1PeOo5UglrZxmh+6eMtgqNP0YfN1l0FfCS+LT7JNMUXQWAQhEIAQ8wY9HkK8+IrgLuo+mho06RXEDdzxrC8vO+qmglfXSBsv9Zo94YIXxf5Zd/yjn1KJy5Z3ty/iw6BngFgRDwgPjMx6VMSnQVcJ3QpKlqeaXkAm2uIZSruodPOl8qbf4IhIHaEaEjTxJdBbwk/tz9oksAUCgCIeB6hpGY8ZDoIuBGLpkv+v4awjYCYflnv6nsfwVdiVD3t9FoQFcPdHijq1R8/nuWLIuuAp6RXfl2Zv0K0VUAKAiBEHC71Fsvm3t3iq4CriNXdgu5ZmWXHI584itqv9ry0z4nqBwXUfazhjC/xain8lVgwLDwMWeIrgJewiAh4BUEQsDtYs/eK7oEuFF4ypnu2b3z04Gw8is/l1S3lOfCAzk8NF/0Q+UXf9dSVNFVwDNSrz2fa9gtugoAB0YgBFx/GP2aJaKrgBu5Z75o/l4SCO676Yh+yJGhiccKrcgt1Krunt5idF+BPoMjU88VXQW8I2fEX3hUdBEADoxACLhafDqrB9EGtX+dPnS0i1ojy3Lwg+WClixXXvpz0QW5fYRQqekleVD5Rd+WtIDoKuAZiRcfN42M6CoAHACBEHCvXKwpNW+G6CrgRuHjXTdQI4c+mDUaOfnCQO0I0eW4hbK/EcL9bTbjblqPfpGTLxBdBTzDat6bnv+y6CoAHACBEHCv5MtPS1k+W8UnWZIcnnK62/rSOkKodOtZ8cUfia7FRZRubQdCpWa/B9a7XPn535D0oOgq4BnMGgXcj0AIuJVlJWY+JroIuFFw7CTNfSvQ5FBYkqSq7/3BJUcjukT+4I3/jZ3uS93P7qPup9b0ipx2segq4BnZdxdkt64TXQWA9hAIAZdKLZuf27FJdBVwI1dtJ/MhJRQJTz0vNGGK6EK8sa+M4s0po63Kz/uaFMznf6AQiZn/pVGAmxEIAZdKzHhEdAlwJT0UOuokyX3UPoPyR02ggH1lLEnWPDtl9P2IW8NKQhQuOfspM5WiY4BrEQgBNzL27kotmC26CrhR6IgTlVCZ5D6VX/m5wmTRwgKhUlnt9UMay86+xOv/F+AYKxFLvv48DQdci0AIuFFy9tOymRNdBdwofPw5kiup+zlfAUr1J6eMqt48c2JfWo8+4WPPEl0FPCP5ErNGAfciEALuY1nJV54WXQTcSOnWM3TIkaKrQJdHCL28gPBDZed91ZJk0VXAG7JrlmS3bxRdBYC2EQgB10mvfDu3Y7PoKuBGoSlnSgr/bnvMpzcUVbv5IRAGBtSFjjhBdBXwjOSsJ0WXAKBt/GABuE7y5adElwCXirhyf1G0T/lUIPTHCGF+kPCsL4suAZ6RmP2MZBiiqwDQBgIh4C5mKpF8Y6boKuBGWu3IQO0I0VWgCCOESkW1P/oYHD1Rqxstugp4g9W8N7VknugqALSBQAi4S2reTCmVEF0F3Cg85QzRJaBII4SV3XzTyrIzPi+6BHhGgvkvgCsRCAF3SbzMKgu0wZKk0NGn0Bov0mp6fmLzFT8FwtDk02U2mEVh0gtm55ob6BbgNgRCwEWM3VszK98WXQXcSD9onNarv+gq0CmqplRU7fuFT/zW0xQ9yCH1KFTOSL4+g3YBbkMgBFwkOWc6m7ijTaFjTqczvllGqFR089VeR6deZLH5LQqTmjudVgFuQyAEXCT5GndKtMGS5fBRzBf1MOXjJ9H7acro+3NiewfHHyO6CnhDZs0SY/dW0VUA+BgCIeAWmY2rclvWi64CbhQce4Q/Tq4rWR97+1RNiZRL/hI58XzRJcAb5PfnwoiuAsDHEAgBt2AiDfYnNPk0muObjUbzw4Oy3+aGhyceJ/vlcEXYLTlnGk0GXIVACLiDZSVfe150EXAlVQsfebLoIlC0NYSyj3aU+YimRY4/W3QR8Ibcto2ZjatEVwHgIwRCwBXSKxaZe3eKrgJupI87WimvFF0FukTt2e/D/1bKfXIq/SeETzzfEl0DvCLFgnnATQiEgCswPIj9CU9mf1HPU3t/dGSIUua3BYStAv1qA8PGiK4C3pB8bYZk8QEC4BYEQsAFTDM1f5boIuBKAT10xFTRRaCr1F79P/zhV474drw3zOEoKIxZvyOzbjndAlyCQAiIl175ttW8V3QVcKPguKOVUJnoKtBVSijy4VETSlmFXxsannya5bv9cmCT1Jsv0lvAJQiEgHipN18SXQJcKnj4CaJLQHGovQa0/ofs30Co1vTSR00UXQW8ITlvpugSAHyAQAiIZlnMF0Xb3xqSHJowheb4g9b7g0Dov0MI98WsURTI3L2NvUYBlyAQAoJl1i5jf1G0SR85jvPo/bevjOzrQBg68iRmjaJAzBoFXIJACAjGfFHsT2gS80X9Q+31QSBUyir9/H+zqkYfcajoKuANqTdYLgG4AoEQEIxAiP0JHn48zfEN9X9TRuWIb9cQtgoexr64KEhu24bs1g00CxCOQAiIlN26LrdrC+8BPk0dMDTQr5bO+Ib2v01l1PJKn49sH8bCVxQqtWA2zQKEIxACIqUXzuENQJtCkxhm8RWtRx9JC+T/KxSRfC0waLjSs5/oKuAN6YWvii4BAIEQECq14BXeAbSJBYR+o2lqv8H5KaOhsOR3IWY7ozCZ1Ytz0Ua6BYjFCCEgTC7WlFmzhDcAn6Z066kPG0NnfCYwcHh+ymi4TPK74KFHiy4B3iBbVnrxPNFVAKWOQAgIk377ddk0eQPwacHDjpNkmc74jDZoaP4n4GBI8jt91ARL4QcMFIRZo4Bw/HsNCJNeyHxRtC04nm05fEgbOCy/jFDVJL9TyioCdQeLrgLekF78mmQYoqsAShqBEBDEMNKLX6f7+DRLUYNjDqcz/hOoHSkH/b+AsBXfwyiQFW9Jr15MuwCBCISAGOk1S6x4C93Hp+kHHaqU+fyoutKk9e6v9iqV7Tf1sZNElwDPSL89V3QJQEkjEAJipJewjB5tC46bTGv8Sj+4VMZ+9ZHjS2FyLIqCGyIgFoEQECO95A1ajzYFxx9DZ/wqOKZUxs2UUESrPUh0FfCG7MbVuWiD6CqA0kUgBATIxaLZ9e/SenyaXF6lDxlJZ/wqePBhUskIDB8rugR4gyxZ6SVviq4CKF0EQkCAzLL5HDiBNumjJ0rs1+9fcqRcKhn6MDYaRaEySwmEgDAEQkCA9FLmi6JteimNIMHfAsPHiC4BnsG224BABEJAABYQYn9KZ9MR+F6gX50UKhNdBbzBbNid3b5RdBVAiSIQAk4zdm81d22l7/g0uaxSHzyCzsAnFCUwdLToIuAZ6cXMnQHEIBACTsssX0jT0SYWEMJnAkPYaBSFyixfQLMAIQiEgNPS73LPQ9v0keNoDfxEGzBUdAnwjMyKhZJlia4CKEUEQsBpmRWLaDraFBhxKJ2Bn2gDh4kuAZ5htTRlt24QXQVQigiEgKOM+p3m7m00HZ9mKWqgjm364SuBgUMZ8UHh+MAUEIJACDgq8y4LCNE2vXaEEgrRHfiJUlah1vQSXQU8NWsUgOMIhICjstztsB/MF4UvsYwQheMzU0AIAiHgqDQLCLEfgWHMF4UPaQPZVwaFMhv3GDs20y/AYQRCwDm55gZj+3t0HG3SakfSGfiP2qu/6BLgJZlVb4suASg5BELAOdm1y2T6jTapmjawjt7Af9SefUWXAC/JrFkmugSg5BAIAedk1i6l3WiTNnCYouk0B/6j9uwnugR4SXYNN0rAaQRCwDnc57A/Wu0ImgNfYsooOiS7abWZitM0wEkEQsAplpVdt5x2o02B2oPoDHxJLa+UI+Wiq4BnyJaVXb9SdBVAaSEQAg7JbltvJWK0G21iJ0b4GLNG0SGZNUvoGOAkAiHgkOwahgexX1rfWroDv1J69BFdArwku5Z9ZQBHEQgBh7CjDPYroGvsxAj/UitrRJcAL2G9PeAwAiHgkOy6d+k12qT2HSQp/GsM31KqCIToALNxT65pDy0DHMOPIIAjDMPYvI5eo01avyF0Bj5GIERHZdevommAYwiEgBOyWzdIRoZeo01a30F0Bj6mVHUXXQI8JvsegRBwDoEQcEJ24woajf1hD0b4m1LVTXQJ8JjsRk6eAJxDIASckN3Ah53YL5U9GOFrCpvKoIMMbpqAgwiEgBOY/YJ2KDW96A98TKlkhBAdY+zaYsZb6BrgDAIhYD/Lym5khBD7pfbklDb4mRyKiC4BHiNLUnbTGtFVAKWCQAjYzti1TUrGaTTapgfV8mqaAx9TI+WiS4D38EEq4BgCIWC77Ja1dBn7o3Zjvij8TlEkPSi6CHiMsXW96BKAUkEgBGxnbOGuhv2SKxgehP/JwbDoEuAx3DoBxxAIAdsZWzfQZez3X+GKSpoD35PDZaJLgMcQCAHHEAgB2+W2rKPL2O+/wmUEQvifwr4y6CAr1pxrrKdtgAMIhIDNTDO7dSNdxv7I5VU0B77HCCE6weDjVMARBELAXkb9dimTosvY77/C5YwQogRoAdEVwHuyLLgAHEEgBOxlbGZHGbT7rzBrq1ACZFUTXQK8h2WEgDMIhIC9jO3v0WK0R9PpD/xPVUVXAO8xtrHgAnACgRCwl7FjMy1GO2Sm0qEEMEKITsjt3ELfAAcQCAF75XYSCNGuAGurUAIYIUTH5fbuMlmED9iPQAjYixFCtI8RQpQEhSmj6DBZsnK7t9I4wG4EQsBOOSNXv4MWox0EQpQCmRFCdIqxg1mjgO0IhICNsju3ypZFi9EOWebfYZQAdhlFp+RYhw/Yjx9EABuxgBAHZGYzdAn+Z+ZEVwBPMnYxZRSwHYEQsJHBDmk4EMvI0iT4Ht/n6Jzc9k20DrAbgRCwEavhcWAEQpQCvs/RKbk92+gcYDcCIWCjXP0u+ov2MXKCUsD3OTonV79TYik+YDMCIWCj3N6d9BcHwBpClIIsU6PRue+cTC7aSO8AWxEIARuZ9QRCHOibJNZMj+B7FseLoyuDhADsRCAEbJMzck319BftIxCiFJgtfPCBTiIQAnYjEAJ2Mep3cQghDohAiFLA9zk6LVe/g+4BtiIQAnZhASEKwcgJ/M+yzHhUdBHwKkYIAbsRCAG7EAhRCKuliUbB38xkXDZN0VXAq0y2ZwNsRiAE7GI2soAQB5Zr2E2b4G8Mg6Mrco17aCBgKwIhYJccgRAFsFqazFSCVsHHmC6BrjCbG2ggYCsCIWAXs3kvzUUhWCEDf+M7HF1hNnEzBexFIATswj0MBcrt2U6v4GO5+l2iS4CHmfGoaWREVwH4GYEQsAsjhCj0W2UPxy7Dz3J7OTYAnSdLkhltpIOAfQiEgF1Y9oACGTs30yv4mFnPRx7o2rdQI7NGARsRCAF7WFaOdfAoTHbLOloFHzN2bBJdAryNGTeArQiEgC1yLU2ymaO5KIRBIISP5Yzczi2ii4C3MeMGsBWBELCFGWumsyhQbs8OMxGjXfCl7I7NUs4QXQW8jVsqYCsCIWALK95CZ1EgWZKMbRtpF3zJ2LpBdAnwPJNbKmAnAiFgCzMRp7MoXHbTGtoFXyIQouuseJQ2AvYhEAK2sOJMGUUHGGuX0S/4krGZPZPQVYwQArYiEAK2MGN8nIkOyBAI4VOZdXzYga5iFQZgKwIhYAsrwRpCdEB281ozxTRj+E0u1pTbtVV0FfA8kymjgJ0IhIAtmN+CDpEtK7t+JU2Dz2TXLpdF1wAfYIQQsBWBELAFpwigozJrltA0+Ex2/buiS4Af8BkrYCsCIWALK5Wgs+iQzLK36Bh8JruGBYQoAm6pgK0IhIAtrHSKzqJDMisXmZk0TYN/mGZm5SLRRcAPrAy3VMBGBELAFty90GGZdJa9RuEjmQ0rrERMdBXwAyubkUxTdBWAbxEIAVswQohOSC99k77BNzLLmQWN4pAlyWSQELANgRCwB7cudOK7hkAIH0kvXyC6BPgH824A+xAIAVswQohOyKxdmos20Dr4Qc7IrHxbdBHwDyuVFF0C4FsEQsAWBEJ0gmxZqQWv0Dr4QGr5QonNllE8FntuAbYhEAK2sNJ8lonOSL81m8bBB9IL+WgDxcTHrIB9CISALaycQWfRCekl80zGVeB9qQV8tIGiymVpKGATAiFgD8uis+iMbCa9eB6tg6dlN68192wXXQV8xcrlRJcA+BaBELAHI4TorNTrM2gePI2lsCg+ziEEbEMgBGzBZ5notNRbsznOG57GhxooPpMRQsAuBELAHty60GlGJvHGi/QPHpXdusHYtEZ0FfAby2QhBmAXAiFgDya3oAuSc6bRP3hUcs5zokuAH5ls1QbYhUAI2MKyTDqLTsssX2Ds2UED4UWp154XXQL8iE1lANsQCAF7MEKILpAlK/nyk7QQnpNZszS3a4voKuBDrMwH7EMgBAA3Srz4OHvVwnMSs54QXQJ8SpFFVwD4FoEQsOnvFn+50CVm457kwldpIjzETMWTzBeFPWRFpbWATfiZFbAFty50XWLGI7QRHpJ8ZZqUSoiuAj6lEggBuxAIAZv+bnHrQlell76R3bmJPsJL85wBm3BXBWxDIARs+rtFIERXyZIUf/Z++ghPyKxZYry3SnQV8C2ZhRiAbQiEgC1klb9cKILky0/mog20Eu4Xf/Y+0SXA1/iYFbANP7MCNv3dYoQQxZBJx6c/RCvhcsaubck3XxRdBXyNuypgGwIhYNPfLQIhiiPx/EMmG3XA3eLP3S9z+CrsxJRRwD4EQsAWckCnsygKK9aceImz3eBeuViU4wdhO+6qgG0IhIAt5GCIzqJY4k/dZWZS9BPulHjhEU6bgN24qwL2IRACtpD1IJ1FsZiNeziTEO5kpuLxZ+8VXQX8Tw6FRZcA+BaBELCFHOTWhWKKPXGnmYjRU7hN/Nn7rJYm0VXA/xSduypgFwIhYAtZZ8ooislqaYo/z3ajcBcz3sJpE3AI824A2xAIAVuw2gFFF3/6P2YsSmPhHvHn7rfifE/CdpYkKwRCwDYEQsAWjBCi6Kx4tOXRW2ksXCLX3BB75h7RVaAk8BkrYCsCIWAL7l5O0IOBg8Yp3ftIJSP+/EPZ7RtFVwHk5T+eSMZLtheWLKv9h4SmnKENHyu6Fv/jlgrYSrP38kCpksNlokvwP8vIdvvFX9XqnrlY1HhvVXbjquzG1dn17xpbN8iSJfmRbOai/7m++69uEV0ISl1264bEzEdlqYRYihoYODRQN0qrGx0YMjIwZKQSikiSVH/Fl0SX5n/cUgFbEQgBWyhlFXTWbrJpJuc+X372JWp5pTpmUnDMpNavm4lYdsOKzNpl2bXLs+uWm3t3+um9yCyak1o8LzTuaNGFoKRF771BNk3J3zRdGzw8UDdKrztYqxupDRr+6WVsuWhjZt2ykgrGQqjcUgE7EQgBW8jcvRyRmjOt/OxLPvFFJVIe3Ccf5pr2ZNYubw2H2XXLrHiL5HHRu/6s//UxRdNFF4ISlVr6ZmbRHMl/guFA7UGBulGButFa3Sh9wFBJO8CPSakFr/g/GLuAHOEzVsBGBELAFowQOiO7YWV2y/rAwKHtPEat7hk+fGr48Kn531hWdsemD8NhdsMqychIXpPbtiH+5F0VF35HdCEoRaaRid5xtegqikOOlOfnf9aNCgwZlf+1X62kdGxvhfT8WbZVh4/I5VW0A7APgRCwhRyppLPOSM6dHvjC/yv00bIc6Feb/7HvuLPyvzWM7PaN2VVL0isXZdevyG3bIHlE7PF/hY46JTCgTnQhKDnxJ+7KE7A1VgAAIABJREFUbX9P8m4CHDgsMHR0oG50/teBwyS58/M9zVQ8veSNohaItinl3FIBGxEIAVswQuiY5KvPVn7+B538qU7TAoOGBwYNj5xywUeTS9evyK56J7N6sZRJS65lZJtvv6rHVXd35cdZoKOyOzfFnrjDQ32Tq3u8H/yGagOG5v9j0PAiXjy1cI4Xpxh4EVNGAVsRCAFbsIbQMWb9jvTKt4OjJ3b9Uh+bXJozMhtWZlYvya5dmlm92NyzQ3KZ7IpFiVeejkw9T3QhKCHR26+Wsq6OQEqv/vnRv/w6wFGBoaPVyhr7Xiv15ov2XRz7UsrKaQhgHwIhYAtGCJ2UnP10UQLhx6iaPnys/r8TxvKDh6uXZlcvyaxenN2wwiWDh9G7/6KPPVLrUUInMUKgxCvPZJa6a4akJcla/9r8IRDvh0BtyCjVqbmFuVhTesErzrwWlDKmjAI2IhACtlAqu9NZxyRfe77yq79QIjZ+hJwfPDzixPARJ3565aGxbYOoWZtWvKX55t90v/IOJo7CbsbeXdG7/iS8z5aiaH1r85M/W9cB1o1UQmIOfU3NmS4ZWSEvXYKUym6iSwD8jEAI2EIJhaRgWEon6a8TMqnk6zPKTs6vA3TCJ1YeNtZn1i0TtfIws2x+/PmHys74gpMvihLUfOuVQo5ssRRV6zv4owQ47GBFD0kukHjlGdEllBClis9YARsRCAG7KFU15u5t9NcZiVlPOBcIP07t1uOjlYemmd26vjUcple+48zgYfS+v+qHHh3oX2v/S6FEJWY+nnnndYdeLBgO9K9VW/eAySfAMZ8+Dl647NZ1xvp3RVdRQpRqAiFgIwIhYBe1ugeB0DHG2mXZ99YEakdIYilK6+ChNPXcDwYP176/8nDNkuy6d6VMypYXzaSbbrqi+9X3cFQ97GDs3tp8z3W2Hwb4v3WAnTgM0HmJWU+LLqG0MGUUsBWBELCLUmXj7nb4tMSsJ6q+/ktXdSY/eDjphPCkE/K/MYzMpjXZ1Ysza5Zm1yzN7dpSxBcy1i1vufdvVV+7vIjXBPJyRuMNP5dSiWJ2Qw8Gho3RDxr3/l6gB2t9Bnis1YaRnDNNdBElxFJUtaJadBWAnxEIAbswxcVhyTnTKr78Y5esL2qDpulDR+tDR7eu98tFG/JnWqxZll2zJLPuXSkV7+Ll48/drx982Afb3gBF0nzf34x1y7t+HaVbz8DIcfrI8fpB4/QhoyTNwz9+pBa/bjXVi66ihKhVNeybBdjKw/8iAy7HIniHWbHm1JuzIseeKXmBWlnzsZWHW9bnp5WuWZpZu9TYskGWrI5eUJak5lt+GxhykNbLa+MtcKvUwlfjz97buXWwVuv06ZHj9RGH6qPGa736S36ReOm/oksoLdxMAbsRCAG7qCyCd1z8ufu9Egg/RlECg4cHBg+X3t8Xx4y3ZDeuzO9Ms/7d7Lp3C59casVbGq+/rPv//ce9w6TwDqN+Z9PNv+lQGlR69tWHHxIYPjYwbEyg7uD8Zsu+Y+zellr4iqiTZkoT6y8AuxEIAbsoNb1orsOMdcvTq94Jjhzv6c4rZRXBMZOCYya1/jafDzetyW5Y8X5EPMCxh8b6d5tv/UO3H13rWLXwJTOTarzuJ1ZL0wEeF4oEBo8IDB0dHDUxMGqC2q2H5HeJGY/IVocH8NEVavfeNBCwFYEQsO1vV4++NNd58Wfv83ogbCMfjp4YHD2x9be5aEN2w8rshtXGxhXZjauMHZs/Mb80NWdabMjI8nMuFVQv/KD5tqvaXDr4wY6g+c1g8vvBBPoNLqnFXWYmlZj1hOgqSo5CIARsRiAE7KL07ENznZea/5Kxc6v39i0smFpZo46bHBo3ufW3ppHJbd+UHzxsHULcuFLKpKP33KD1qw0ddpzoYuFJsWfuSb367Ae/CZfllwK2Hgk4dHRgwFD3nwlhn+Sc56xYs+gqSo7as5/oEgCfIxACdlErukkBXcpmaLGTZMuKP/9g1Vd/USJtVzRd2efkQ8kwsls35JcgblihH3KkC0/0hstlNq7KvLuw7LPfah0G9NNmMF1lWfHn7hddRCliyihgN9liKjxgm93fPzO3czMNdloo0ueOWXKknM4DKJbUojmN13yffjqvx03PBvrX0nnAPqU78QNwgNKDWaMipBJx1vkAKKrYU3fTUSHU7txJAXsRCAEbcRsTJT+zK2cIe3kA/pJZtzy7YqHoKkqRXF7ly/NLAFchEAI2UtlXRhBzz474rCdFvToAn2F4UBSV/boB+xEIARtpvQfSX1Fi/73DNNjRB0BXZbe/l3rzRfoohNrbt1tGA+5BIARspPYhEApj1u9IvsSJYQC6Kvb4vziMXhStL7dRwHYEQsBGfLQpVuzxf5mZlOAiAHhZduem5NznRFdRulQm2gD2IxACNtJqekk6q+GFMRv3JF78r7jXB+B5sUdvl01TdBWlS+s7SHQJgP8RCAE7ybLah/UPIsWeuNNMMUgIoDMYHhRO7UMgBGxHIATspXEzE8pqqk/MfERsDQA8KvbIbQwPiqQFtO69hVYAlAQCIWAvPt0ULvbUXWYqIboKAB6T3bqO1YPi1+Er/KQK2I6/ZoC9An0H02KxrOaG+DP38C4A6JCW+/7O5qJiadxAAUcQCAF7qQOG0GLhYk/+29izQ3QVADwjvWJReuEroqsoddqAOtElACWBQAjYKzBoOC0WL5OOPfJP0UUA8IyW+/4mugRI2sChdAFwAIEQsPnvWHmlXNWdLguXmP10dv0K0VUA8IDkvBeya5aIrgJSYOAwugA4gEAI2I7PON1Alqzme64XXQUA18sZLQ/eJLoISJYkq/1raQTgAAIhYLsAk17cIfvugsTc6aKrAOBqsRceze3YLLoKSGrPvkooQiMABxAIAduxLN49onf/xYy3iK4CgEvloo2sN3YJbRDzRQGHEAgB22kDWBbvFlbz3pbH/yW6CgAu1XL/jVasWXQVyGNyDeAYAiFgO62WjUZdJD7tvuzWdaKrAOA6mbXLErOeFF0FPqCxowzgFAIhYDu1vFrp0ZdGu4Rs5ppv/z/JskQXAsBNTLP5zmtliX8Z3CIwZJToEoBSQSAEnBAYMpJGu0d2xaL4S/8VXQUAF4m//KSxbpnoKvA/mh7oP4R2AM4gEAJOCNTxSae7tNx7Q65ht+gqALhCLhZteeDvoqvAR7TBwyVNoyOAMwiEgBM0RghdxkrEmu/6k+gqALhCy703WNFG0VXgI3yKCjiJQAg4gbUQLpR+48Xk/FmiqwAgWHr5gsSsJ0RXgY8J1LLOAnAOgRBwgtajj1xRTa/dJnrH1blYVHQVAIQxM6nmW38v8w64DAvvAScRCAGHMEjoQmbjnui/rxVdBQBhYo/8M7dzM2+Aq1iyrA0+SHQVQAkhEAIOCQwbQ69dKDVnWvKNF0VXAUCAzMZVsWfupfVuExg4TAmFRFcBlBACIeCQwIix9Nqdmm+/Kte0V3QVAJxlGNF//k42c/TdbfQRh4guASgtBELAIfpw7nAuZbU0RdlxFCgxLc/8J7thpegq0AZtOJ+fAo4iEAIOUau7K7360253Sr0+I/n6DNFVAHBIZsPK2MO30G53YoQQcNj/b+8+wKQo7D6OT9vd2X63d3D03kSqFClKE1BURDRixSgxKsYKsTewgUrsGksEa4wmsUViizH2FoMtWBEVBJVydfe2zrzPvTFvXhMNbW//Mzvfz+OD+Ojj/p7f3i3325md0Ur9gICHcZDQyepvXpjfuE46BYBWZ2XTddefoxTydO1EwbCvU0/pEIC3MAiB0uFjhE5mp5rqrjlbsSzpIABaV+NdVxW++ISWnfvOqcZPp0BJ8S0HlA6nwThc7v2/NT6yTDoFgFaUfuul5OP3UbFj8c4pUHoMQqB0jG79FMNP407WdN8N2VUrpVMAaBWF+s1115/HbeidjM9WAKXHIARK+P3mD/h6czdCZyvk6649y0qnpXMAKL762y6x6zbSrGPZiurrN1Q6BeA5DEKgpPw7D6dxhyt8ubph6SLpFACKLPnUbzOvPE2tTubr1lePxKRTAJ7DIARKyr/TMBp3vuZnHkw99wfpFACKJvvZhw3LLqdQh+M9U0AEgxAoKX+/XRTdoHTnq7/l4tzaT6VTACgCK9VUt2S+ks3QpsP5+/OeKSCAQQiU9lvONI0eO1G6C2Saa38x38ryYULA5Wy77obzCus/l86BLbBb3jPlA4SAAAYhUGqB/nyM0B0KX3zScMcS6RQAdkjTI8syrz1Dic5ndOqpV1RJpwC8iEEIlBqfkXCR5ifvT7/8lHQKANsps/LNhnuvpT5X4HxRQAqDECg1f7+htqbTu1vU3nhBbt1q6RQAtlmhdmPdVaerlkV3rmAO3FU6AuBRDEKg5N914ai/zyB6d410svby06x0SjoHgG2Rz9defYZVu4HWXMFWVd+gkdIpAI9iEAICAoNG0buLFNauqr/pQukUALZB3bLLc39/g8rcwtdzZz1SIZ0C8CgGISDAP3g0vbtL+qUnmpbfK50CwFZpWn5v8xO/oSwXCQzij0VADIMQEBDoM1gNR6neXRruuDKz8k3pFAC2IL3ixYY7rqAmdwnwPikgh0EIiHznaX5uPuE2qlWoXTI/v+lr6SAAflBuzSouJOM+ftPHR+sBOQxCQEZgyBiqdx27flPdNWcqhbx0EADfo9CwefOlJ9ipJtpxF/+AEZo/IJ0C8C4GISDDP4TPS7hSbuWbdUsvl04B4N9Z2Uzt4lOsDeuoxnU4XxSQxSAEZPjaddXbd6V9N2p+4jfJP/1eOgWA/8e263+5IPfhW5TiRoHh46QjAJ7GIATEBIaPp32Xqr/lYi4wAzhHwz3XpJ9/TDoFtofesbuvHW+PApIYhIAYk0Ho9gvMbPxKOgiAlptMJB9eShEuFRjGe6OAMAYhICbQbxduPuFedv2m2sUnWdm0dBDA01J/ebRh6WLpFNh+5jDOFwWEMQgBOYYRGDKWJ8C98qs/qL/5YukUgHc1v/bnuhvPV6VjYLupoUig31AKBGQxCAFJnCrjdunnHm18kHPVAAGZ917nloNuFxi6u2IY0ikAr2MQApICQ8faKu9uu1vjvVc3v/SEdArAW7KrVm5edLKSz0oHwQ4JDNudBgFxDEJAkh6r9O80jOfA1VRFqbvu3MwHK6SDAF6R++rzzZfOVdJJ6SDYIbamMwgBJ+AwPSDMHD0lt/Kv0imwY/LZzZfM9bXvQo9ACeS/WWc31VO12wUG7qpHKqRTAGAQAtKCY6Y03L5YVWzpINgxzcncp+9TIgBsJXP0FLoCnIBTRgFhekUbf5+B0ikAACgdW1XNERNpHHACBiEgzxzFu6QAAA/x7zxCr6iSTgGgBYMQkGeOmsIJowAA7wiOmiwdAcC3GISAPKOmo697P+kUAACUgq2ogZGT6BpwCAYh4AjmmD2lIwAAUAr+fkOMqhq6BhyCQQg4QnDc3pw1CgDwguDue0tHAPAvDELAEYzqDv6+Q6RTAADQumxN41JqgKMwCAGn4B1TAEDZCwwZy/VFAUdhEAJOYY7Z09Z06RQAALSi4G6cLwo4C4MQcAo9nggMHi2dAgCAVuMPmLtyP3rAWRiEgINw1igAoIyZIyZpZlg6BYDvYBACDmLuOknxm9IpAABoFbzvCTgQgxBwEM0Mm6OnSqcAAKD41HjC3GU3mgWchkEIOEto0v7SEQAAKL7QhBmKbtAs4DQMQsBZAjsP12s6S6cAAKDIghNn0CngQAxCwGFUNThxP+kQAAAUk9F7oK9zTzoFHIhBCDhOcOL+tqpKpwAAoGjCkw6gTcCZGISA4xjV7QIDR0mnAACgSHz+wBgumQY4FIMQcKLgHjOlIwAAUBzmqCl6JEabgDMxCAEnMkftocYT0ikAACiC0NSD6BFwLAYh4ESa4Q9N5P4TAADX0zv2COy0i3QKAD+IQQg4VGjPWVxaBgDgduG9Dla4UhrgYAxCwKGMth0DQ8ZIpwAAYAf4zdAE7qUEOBqDEHCu0NRZ0hEAANh+wXH7qKEIDQJOxiAEnCs4fIJW3V46BQAA2ynMO5uA4xnSAQD8ME0LTTmw6b4b6MjhbEU1R0+WTgF4SO7Dt63N30inwBYYvQb4evanJsDhVNu2pTMA+EGFhs3f/HSKks/SkaPpRvsHVkiHADxk85J5mVeelk6BLYifvCg0fl9qAhyOU0YBR9NjieDue0unAABg22iVbcyxU2kNcD4GIeB04elHchwfAOAuob0O0Qy/dAoAW8YgBJzO17W3f+cR0ikAANhqPn9oyo/oC3AFBiHgAuF9jpCOAADA1gqNn67HE/QFuAKDEHCB4IgJWk0n6RQAAGyV4LRDaQpwCwYh4AaaFt77MOkQAABsmX/QaH+3vjQFuAWDEHCH0OQD1WiFdAoAALYgPHMOHQEuwiAE3EEzQ6E9D5ZOAQDAf2P06G8OGkVHgIswCAHXCO9zuBIISqcAAOAHRTg8CLgNgxBwDT1WGZq0v3QKAAC+n1bTKThqCu0A7sIgBNwkPONoW9OlUwAA8D0i+89RNH62BFyGb1rATYw27YNj95JOAQDAv1PjieCE6fQCuA6DEHCZyP5zbOkMAAD8m/D0IzW/SS2A6zAIAZfxdetj7rqHdAoAAP5FjcTDXAobcCcGIeA+0YN/ZiuqdAoAAL4VnnGUFopQB+BGDELAfXxde5sjJkinAADgn4cH9zqELgCXYhACrhSZNZdPEgIAnPLpQQ4PAq7FIARcyd9jJ3M4BwkBAMLUcCy892HSKQBsPwYh4FaRgzlICAAQFt6Pw4OAuzEIAbfy9+jPQUIAgPCnB6dxeBBwNwYh4GLRw07mcqMAACmRA47RwlH6B1yNQQi4mK9r7+C4faRTAAC8SKtsE9qTi4sCrscgBNwtesiJiuGTTgEA8JzIrLmaaUqnALCjGISAuxk1HYOTD5ROAQDwFr1dl/AeM6VTACgCBiHgetGDjlfMkHQKAICHRA49UdEN6RQAioBBCLieXlHFPaAAACVjdOkdGrMnhQPlgUEIlIPwjKPVaIV0CgCAJ0SPnKdo/AwJlAm+mYFyoEdikVlzpVMAAMqff+hYc+hu0ikAFA2DECgTkamz9I49pFMAAMqZraqx2fOlUwAoJgYhUC4MI3rEKdIhAADlLDT5QF/X3tIpABQTgxAoH8GRk/wDd5VOAQAoU2YoesgJ0iEAFBmDECgr0SPn24oqnQIAUIYiBxyjV7SRTgGgyBiEQFnx99gpOH66dAoAQLnRqtqFp8+WTgGg+BiEQLmJzT5NCYalUwAAykr8qNM1vymdAkDxMQiBcqNXVkd/dKx0CgBA+fANGGmOmSqdAkCrYBACZSgy/Ui9QzfpFACAcmBrWvzoM6VTAGgtDEKgHOlG7JhzpUMAAMpBeNphvm59pFMAaC0MQqA8mYNHBUZOkk4BAHA3NVYZmTVXOgWAVsQgBMpW7CdnKv6AdAoAgIvFZs/TIzHpFABaEYMQKFtGdYfIzGOkUwAA3MrXZ3Bown7SKQC0LgYhUM7CB8zRO/aQTgEAcB9b02LHnqdo/KwIlDm+yYFyphn++PEX2NIxAACuE5lxtL97P+kUAFodgxAoc4H+w0IT95dOAQBwE626fYRb2gLewCAEyl/0qPlqrFI6BQDANeI/PVczQ9IpAJQCgxAof3qkInbkfOkUAAB3MMdOM4ePl04BoEQYhIAnhCbs5x8wUjoFAMDp1HA0Nud06RQASodBCHiDqsZPuEgJBKVzAAAcLXbUGXpFG+kUAEqHQQh4hVHTMXrYydIpAADO5R8wMjRxhnQKACXFIAQ8JLL3Yb6ddpFOAQBwJDMcP+liRVWlcwAoKQYh4CWaFp+7UPH5pXMAABwnNvs0o7qDdAoApcYgBLzF17Fb9JATpVMAAJzF1394eM9Z0ikACGAQAp4T2e/HRq+B0ikAAI7hD1ScsJCTRQFvUm3bls4AoNRyaz/dePosJZuh+mJRw1HKBErGTjcrhTyFF0vsmHPC0w6lT8CbGISARzX98deNty+STgEAEOYfNKrqgls5PAh4FqeMAh4VmXaof+hY6RQAAElqOBr/GVcWBTyNQQh4larG5y5UwzHpHAAAMfHjLjCq2/EEAF7GIAS8y6iqic9dIJ0CACDDHD89OHYv2gc8jkEIeFpw9BRz7DTpFACAUtMSbeNzzqJ3AAxCwOtix56nVbeXTgEAKB1bVStOvVyL8KkBAAxCwPP0SKxy/hJb0z3fBAB4ReRHxwV2Hi6dAoAjcIQQgOLvMyg663iKAAAv8PUbGps1VzoFAKdgEAJoET3wWP+AkXQBAOVNDUUqTlmkaPwECOBbvBwA+MeLgRY/5TI1WkEdAFDGYsddYLTtKJ0CgIMwCAF8y0jUVJx0mU0fAFCmgnseHNqNK0sD+A4GIYB/MYftHt53No0AQPkxuvWNHfVz6RQAHIdBCOA74rPn+foNpRQAKCtmqGL+lZrflM4BwHEYhAC+yzAqT/+FWlFNLwBQHmxFqTjxEl+H7tJBADgRgxDAv9Mr2lSeuthWVaoBgDIQ3u+o4Ogp0ikAOBSDEMD3CAzcNTrrBKoBALfz9RkUP+IU6RQAnItBCOD7RQ86LjBiAu0AgHup8UTF6VcpuiEdBIBzMQgB/ABVjZ9wkcbtqgDAnWxNr5y3xEjUSAcB4GgMQgA/SI9VJs65UTHDdAQArhM7+ozAgBHSKQA4HYMQwH/j69yz4qRLuFs9ALiLOW7fyN6HSacA4AIMQgBbEBw1OXLAMdQEAG5hdO8Xn3uhdAoA7sAgBLBlsUNP8g8bR1MA4HxqPFF51vXcgx7AVmIQAtialwqt8tTL9Y49KAsAnH4hmfm/MKrbSQcB4BqqbfPhIABbJbdu9aazDreTjfTldtGjTtcCIekUcJamR5cV1n8hnQI7KjZ3QXjygfQIYOtxXxoAW8vXoXvlmddtXvhTpZCnNVcL7ra3XlktnQLOknr2YQah24VnHM0aBLCtOGUUwDYI7Dw8dtz5VOZ2diErHQGOY+cy0hGwQ/y77B474lRKBLCtGIQAtk14jwNC04+kNVezswxC8FVRVoxu/SrnL1E0fq4DsM144QCwzeJHzg8Mn0BxLtackk4Ax7Gbm6QjYDtplW0qz71BM/lgMIDtwSAEsB2vHFrFaYuNbn3pzqUKtRukI8BhbNuq3ywdAtvFb1aefYORqKE+ANuHQQhgu147zHDi3Ju06vbU50aFuo3SEeAshYZaLhblRraqVpx6ub9nf+kgAFyMQQhgO+mJtonzb1LDURp0HYtBiH/7kqjfRCVuFD/uguCuk6RTAHA3BiGA7efr1Ctx3i8Vf4AS3aXwzTrpCHCW/NdrpSNgm4UPOj485UcUB2AHMQgB7BB/n8EVp11hqyo9ukj+y9XSEeAsBb4k3MbcfZ/YwSdIpwBQDhiEAHZUcOSk+DHn0KOLMAjxH18Sn9GJi/iHjq088RKFd+IAFAODEEARhPc6JLTfUVTpFnZjXaGBS0riX/JrP6UOtzB6Daj8+S8Uw5AOAqBMMAgBFEf8yHmhyQfSplvkPn5POgIco5DPffaBdAhsFb1Tz5YrPJth+gJQLAxCAEWiqvHjLjDH7EmhrpD96B3pCHCK3GcfKdmMdApsmVZVkzj/Jj1WSVkAiohBCKCIryha5amL/UPH0qnz5T5+VzoCnCL70dvSEbBlaqwyseA2o7oDZQEoLgYhgKLSjcqfX+XrM5haHS774dvciBzffjG8v4IqHE4NRxMX3ubr0F06CIAyxCAEUOyXFTOUOPcmo0tvmnW0dDLzIceFoCiWlXnnFYpwNL9Zec5N/m59pXMAKE8MQgCt8MoSiSUW/krv1JNynSyz4iXpCJCX/eRdu7FOOgV+mM+fOPv6QL8hdASglTAIAbQKPZaouvBWvX0X+nWszIoXpCNAXuatl6Uj4IcZvsozrw0MGkVHAFoPgxBAa9ETbRMLbtdqOlGxM+VXf5D76nPpFBDW/PKT0hHw/WxNr5i/xBy6GwUBaFUMQgCtyKhuV7VwqdaGy+I5VPpFxoCn5dasKqxZJZ0C38NW1YpTFgVHTqIdAK2NQQigdRlt2lddskxr056iHaj5pcelI0BS8/PLeQIcugZPXhTabZp0EACewCAE0OqM6g6JC27VEm3p2mkKX3yS/fR96RQQYlnNLzxG+05ja1rLGhy3j3QQAF7BIARQCr4O3aouvUtr25G6nSb11APSESAj/bcXrA3rad9xxwZPvJQ1CKCUGIQASsRo27Hq4qV6TWcad5Tm55dbyUbpFBCQfPJ+encW3aj8+VWh8ftK5wDgLQxCAKU9d/SipdyLwlkyzann/iAdAqWW/2ZtZsWL9O4ghr/yzGuDoyZL5wDgOQxCACW/7ujFd+qduWe9gyQfXqYU8tIpUFJND9+h2jalO4U/UHn29eawcdI5AHgRgxBAqemV1VULbje69qF6h7A2fZXiapNeUqjb0PzMQ9Ip8E9mKHHuTeaQMTQCQASDEIAAvaIqcdEyX5/BtO8QTQ/drliWdAqUSPLRu5V8lrqdQI3Eqxb8KjBgpHQQAN7FIAQgQ4/EEhf+yj9kLE+AExS+XJ16njsQeEJ+09fJx++TToEWaryqauFSf++B1AFAEIMQgNwLkGlWnn1dYPRUngMnaLznGiudlk6BVtf0mxuVLE+0PK1Nh6rL7vR14+R5AMIYhABEX4MMf2LelaHJB/I0iLNqNyQfv1c6BVpXbs2q1F8eoWVxesceVZfd5WvXVToIADAIAYjTtPjxF4b3P1o6B5Tkg78q1G2giDLWsHSxyodFpfn6DK6+7G4jUSMdBABacIQQgAOoamz2vOics2xFlY7iaXaqqWHpldIp0FpSzy/PvvMq/coKjJiQuPBXWiTGEwHAIRiEAJwiss/hlWdcrfj80kE8Lf3S4+m/PiedAsVnp5oa7/pzGAn5AAAP8UlEQVQFzcoK7nFA4udXa6bJEwHAORiEABwkuOseiQtuVcO8dy6p/vZFVjopGgHFV3/HlVYt5wOLsRUlcvgpFScsVAxDLgUAfA8GIQBnCfQfVnXpXVp1e+kg3mV982XD0iukU6CYml//c/MzD9KpGN2oOPmy6AHH8BQAcCAGIQDH8XXuWXXZ3Ua3ftJBvKv5mQebX/+zdAoUR6F2Y/0vF9CmmGC48txfhsZP5ykA4EwMQgBOZFTVVF16R2DEBOkg3lX/ywX5TV9Lp8AOs6y6G8+3G2qpUoTWpkP14nvMwaPoH4BjMQgBOJRmhhNnXhc+6HjpIB5lN9TWLZln5bPSQbBDGn93a3bFi5QowtdnUPWie32detE/ACdjEAJwMFWNHfKz2AkLFZ3LMAjIffRO451XSTwyiiP9zquND9xEmyICo6cmFt6uV1bTPwCHU23bls4AAFuQeefV2iXz7GQjTZVe/OTL+PiTG+W/WrvxrEPtxjrpIJ5jK0r04J9FDzpOUbmxKgAXYBACcIfcl5/VLjqxsP5z6SDeY/gSF94W6D9MOge2gdXUsPHswwvrPqO1UvMHKk68JDh2L5oH4BYMQgCuYaWa6q47J/PGs9JBPEcNx6oW3+Pr0F06CLZOIb/pouOy771OXyWmVdVUnnGNv9cAmgfgIgxCAK5iWQ333dD04G2ciVViWk2n6kvu1BNtS/3A2FaWVXvNmemXnqC5EvMNGFk570o9nqB5AO7CIATgPuk3/lJ77VlKc1I6iLfo7btWXXwHF8lwNNuuv3lh6k+/l87hOaHJB8aPPY/LXwFwIwYhAFfKrVtdu+hkPiJVYkbXPlUXLdMisVI/MLZO/Z1LUo/eSVslZfhjx54X3mMmtQNwKQYhALeymhpqrz0r+7cXpIN4i9Fz58QFN+uRCukg+C7brl92RWr5PfRSSlqbDpWnX+3v2Z/aAbgXgxCAm9l20/J7Gu78hWoVpKN4iN6xR+LCW42qGukg+CfLqrvlombOFC0t/7BxFSdfypsjANyOQQjA9TLvvlZ79Rl2/WbpIB6it++SWHCbUd1BOgharilae9056Rcfp4uSsTUteuhJ0Zk/4U6DAMoAgxBAOSjUbaq7+gyus19KakV14uzrucK+LCvVVHvVz7MrXhLO4SVqtKLitCvNwaOkgwBAcTAIAZSLfL7+3muTj97BHSlKJxCsPO0Kc8SEEj4k/iW/cd3mS04orFlFKSXj6z+s8rQruP8KgHLCIARQVtJvvlB3w7l2Q610EK+wVTU2e15kvx9z7lyJZd7/W+2S+XbdxlI/sFfZqho96PjoQccrmiadBQCKiUEIoBxPH73+3OxbnERXOoEREypPXqSGIiV8TE9LPfW7+l9dqhTy0kG8QquqqThlcWDn4dJBAKD4GIQAypFlNT68tPG+G7j6aMnonXpWnn6Vr1OP0j2kJ1npZP3NF6Vf+KN0EA8JjJgYP/EiriYKoFwxCAGUrezH79ZefYb19VrpIJ7h80ePODWy72zpHGUr+8l7ddecWVj/hXQQzzD80dmnRvY5gjOiAZQxBiGAcmanmupuvST9wnLpIB4SGDkpPneBHquUDlJeOOhdckbXPhWnLPZ17V36hwaAUmIQAih/za88VX/LxXZjnXQQr1DjidjseaGJM6SDlIncV5/X37ggt/Kv0kG8wlaU8N6HRWfP0/wB6SwA0OoYhAA8oVC7sf6XCzJvPicdxEP8w8bFjz3fqG4nHcTN8vnGR+9quv8GJZ+TjuIVWnX7ipMuCQwYKR0EAEqEQQjAM2w7+eT9DXcuUbIZ6SheoYYikUNPikydpRiGdBb3ybz7Wv3ti7jNYCmZE/aLzzlLC0dL+qgAIIpBCMBbcl9+Vn/DubmP3pEO4iF6l17xOWcFBu4qHcQ18hvXNdyxJPPK09JBPESNJ+LHnh8cNVk6CACUGoMQgPdYVtNjdzfedz2HCkspsOse0UNP8nXuWdJHdZtCU0PykTuSj93FF2cpmbvvE5tzJldCAuBNDEIAHpX/Zm3djRfm3ntdOoiH2Ipqjp4cO2Ke0a6TdBbHsdLp1J9+2/T72+yGWuksHqLGq+LHnseBQQBexiAE4GG2nXziNw33XKOkU9JRvMTwBSfOiMw42mjfRTqKI1ipptRTDzQ9epddv0k6i4fYihKaNDN+9BlqKCKdBQAkMQgBeF3+my/rb74o+/bL0kG8xVbV4Ni9wjN/4u/WV/GqQv3m5B/vTT1+n51slM7iLVqbDvHjLzSHjJEOAgDyGIQA0KL5jWcbbrnYqt1AHSXm6zsksu9sc+QkT12JNLtqZfNTD6Sef4zPCpaYrWnhvQ6JHn6yZoZL/dgA4EgMQgD4ltXU0Hj3Vck//V6lkpLTqmpCUw8KTphR3vcttNKp9CtPJ5+8P//xu9JZvMjXZ1D8uAt93fpIBwEAB2EQAsB3ZD5YUX/zQm7+JsJWVH/fwaEJM8xx08rsAE5u1crUUw+kXnycD6zKCIajh/wssvfhiqYJJQAAh2IQAsB/KOQbH17W9LtbOJ1PTCBoDhsXHD3Vv8tumhlSXMqyMh+sSL/ydPq1Z6xNX0mn8S5z7LTYnNP1ijbSQQDAiRiEAPD98hvWN9x5JTcHF+bzB4aMCQzdPTBkrFHTUXEDO9WUfvvlzFsvp9/4CxcOlaV36RX/ydmBASOFcwCAgzEIAeC/ybzzav3tiwtrV1GTOL1918DQsf7+w/w7DXXa0R4rncp99E72gxWZt1/JfvS2alnSibxODUUiB/8sstchnrpYEQBsBwYhAGxJPt/0+K8b779JaU5SlkPoNZ19/Yb6e+1sdO/n695X4AOH+Xzuy9W51e/nVq3MfvhWbvX7jECHsBU1NGn/6OxT9VhCOgsAuACDEAC2SqF2Y+Ovr0v9+WG15Y7WcBBbUY32XYyufVp+7dBN79DVaNdFr6gq4kNY6WR+/Rpr/Re5dZ/l13+eX7Mq//nHSj5bxIdAUfj6DIrNOcvfeyB9AsBWYhACwDbIrv6g8c4l2XdfozWnM3xaZRu9qkZPtNXiCTUU1cJRNRzVQ1HF51f8ZssfgT6favis5lTLf2/lleaUlWm2ko12qslKNliN9VbtN4VN3xQ2fa2kOTjsdFqbDrHZpwXH7Kmo3DgGALYBgxAAtln67Vcb77gi/8XHdAfICwTD+/04csBPtP/d+QCAbcIgBIDtYlmp5/7QcPdVdv1mGgRE2JoWnjQzcuhJxT1DGAA8hUEIANvPSjY2PXpH8g93K5lmegRKxlYUc/SU6GEn+Tp0p3YA2BEMQgDYUYWG2uQjy5KP3ctVRoAS8A/cNTZ7nq9nf9oGgB3HIASA4shvWJ/83S3JPz/E7QeAVmL0Ghg7/OTAoFE0DADFwiAEgGLKrVnV+Jsb068+zYUOgSIyuvSOHHZScMREWgWA4mIQAkDx5b74uOmhpc0vLFdtbloI7BC9c8/IjKND46crmkaVAFB0DEIAaC3MQmBH6F16xQ6aa46ewq0FAaD1MAgBoHXl1n7S9PvbOVoIbD2mIACUDIMQAEoht2ZV8pFlzc8vVwp5Ggd+iG+nXSIzf2LusjtHBQGgNBiEAFA6hdqNySfvTz52t9KcpHfg/9iKEhg2LnLAMYF+Q6kFAEqJQQgApWYlG1PPPtz00FK7biPtw+NsTQ/uNi0yc46vS2/pLADgRQxCAJBhpdPNzz6UXH5vYf3nPAfwIDUUCU4+MLz34Uab9tJZAMC7GIQAIMq20++8llx+d+bN57l1ITxCq+kUmnxQaOqP9EhMOgsAeB2DEAAcIfflZ6kn7kv96fdKNiOdBWgtvr5DIvvONkdN5qaCAOAQDEIAcJBC/ebUMw+mnvqttWGddBageALB0O57B6cd6u/Wl1oBwFEYhADgPJaVfvf11NMPpF97RrUs6TTA9tM7dAtOnBme+iONs0MBwJEYhADgXPlNXzc/tzz1xK+tTV9LZwG2heELjJgQmjLLHDyK4gDAyRiEAOB4hXzz68+mnn04s+JFDhjC4YwuvYOT9g+On67HKqWzAAC2jEEIAK5R2PxN88tPNj/zUP6Lj6WzAP9xD4kxe5rjpwf6D6MaAHARBiEAuE9u1crUXx5pfu4xO9kgnQWeZitqYODI4Pjp5ug9NdOUjgMA2GYMQgBwKyubzrz9Svrlp9KvPs3NKlBiescewQkzguP3MapqKB8A3ItBCACuV2hqyLzxbPMrT/EhQ7Q2rU374Ni9gnvM9HXoTtsAUAYYhABQPvKbv06/+ETzy0/mPn5XlQ6DcqK1aW+OmhLcbZq/1wDpLACAYmIQAkAZKjRszrz5AscMUYQdOGKiOXpqYKddFJU3GQCgDDEIAaCcFWo3pl//c/rVpzPvvaFaBek4cAe9c8+W44Gjpvi69ZHOAgBoXQxCAPAEK53KvPta9q/PNf/1Obtuo3QcOI6taf7egwLDJ5ojJ/g69ZCOAwAoEQYhAHiMZeVWf9D8xrPZN5/Lfvo+ZwF6nBqtCAzdLThiYmDIGDUUkY4DACg1BiEAeFd+47rMW69k3no5+97rdmOddByUiuHz9RsaGDzaHDzG172fomlUDwCexSAEAHx72DD99qvZd17Ovr9CyWcppfxobTuag0YFBo/xDx6thaPScQAAjsAgBAB8h5VOZT94K7vyzezf38h98p6Sz1GQS9mKYnTq6e8/zN9/WGDn4XqirXQiAIDjMAgBAD/IyqZzH7+X/fsbLfvww7eVbJqyHM5WVV/Xvi0jcOfh/p120eMJ6UQAAEdjEAIAto5l5dauyq1amftgReb9FfkvV6sth6DgAMGwv9cAX7+hvp79/TsN1SMV0oEAAK7BIAQAbI9CU13uw3ezH7+T++S9/GcfWrUb6LF0zJCvax9fz/6+3oP8fQYb7TpRPgBg+zAIAQBFYDU15L74OPfpypZDiKtWcvywuNRQxOjcq2UB9ujf8munnlwaFABQFAxCAEDxWamm/NpPc2s+ya/9NP9Fy6/WxvUUvbV/NodjRueevk499M69WnZg5x5cDwYA0EoYhACAUk3EL1fn16zKr/+i8PWaf/xqJxu93r7h02s6Ge266O07GzWd9U49fF166hVtpGMBALyCQQgAEFNoqC18tSb/1ZrCV2sKm75q+eub9YWN65VMc7k9K7qhJdrq1e30Nh3+8avR/n9HYKIdJ38CAAQxCAEAjlNoarA2flXYsM6q3Vio22g1bC7UbbJaflNr1W+2m+oVB/KbWkWVXlGlxRJaRVXLX7GEXlndMv+q2+uVbRRVlY4IAMC/YxACANymkC801lpNjXay0WpqsFINLb9JtvyjnWywcjk722ynU0o+byUblULeak623KAvk1by2f/7f9jZjJJr+UdbVbVQ5P/931U1HG35my+gBQKKGVZ1XY3EVN3QzJASCGqRmBqKauGoGo5q4ZgWjrX8Jhpv+bcAACgu8z/7sgjHXTVGZAAAAABJRU5ErkJggg==;clipPath=inset(0% 21.67% 0% 21.67%);" vertex="1" parent="1">
          <mxGeometry x="179.57999999999998" y="511.76" width="50" height="46.47" as="geometry" />
        </mxCell>
        <mxCell id="FWO0GWQRVAM2mk7AwP2H-34" value="" style="shape=image;verticalLabelPosition=bottom;verticalAlign=top;imageAspect=0;aspect=fixed;image=data:image/jpeg,/9j/4AAQSkZJRgABAQAAAQABAAD/2wCEAAkGBxMSEhUSExITFRUVGBUYGBYXGBceFhgVFxoWFxgdGRgYHS0gGBolIBYWITEhJSkrMC4uFx8zODMtNygtLi0BCgoKDg0OGxAQGy0mHyYtMC8vLy4tLy0tMC4vLy8uNS01Ly8tLzItLy81LS0tNS0tLSstLS0tLSstLS8tLy0tLf/AABEIAOMA3gMBIgACEQEDEQH/xAAcAAEAAgMBAQEAAAAAAAAAAAAABgcDBAUCAQj/xABPEAABAwEFBAYGBQkFBAsAAAABAAIDEQQFEiExBkFRYQcTInGBkTJCUqGxwSNicoLRFDM0NXOSsrPSQ1OiwvAXVHThFRYkY2SDk5Ti4/H/xAAbAQEAAwEBAQEAAAAAAAAAAAAABAUGAwIBB//EADMRAAIBAwAGCQMFAAMAAAAAAAABAgMEEQUhMUFRkRJhcYGhsdHh8BMywRQiI0LxNFJi/9oADAMBAAIRAxEAPwC8UREAREQBERAEREAREQBERAFqXhbmQRmSQ0a3zJ3AcSVtqrdrb7Nolo0/RRkhvBx0LvHdy7yo9zXVGGd72E2xs3c1Mf1W1/N79zxfm0k07qhxjY01a1pIpTQuI1d8N3Fd3Zna0kiG0HXJsvPcH/1efFQlFTQuakZ9POvf1/Oo09SxoTp/T6OFuxtXzr2l3IopsPfBljMTjV8VKE6mPQd5GnkpWr2lUVSKkjI16EqNR05bV8yERF0OIREQBERAEREAREQBERAEREAREQBFwLftZZYssZeeEYqP3jRvvXEn2/8AYs+XFz8/IN+ajzu6MNTly1+RNp6OuamtQffheZOkVfjb2XfDH5uW7ZdvIz+cie3m1wd7jT5rwr2i3jPgzpLRV1H+ue9epM1jkkABJIAGpOgUXvLbSFrB1IMjyNCC1rftVFT3DzChd6XxNaDWR5I3NGTB3N+ZzXmrfU4fbrfhz/0922ia1XXP9q69vL/CabRbTwiKSOKTFIQWgtBLRXInFocq6Vzoq9RFVVq8qzzI0VraU7aLjDOvbkIiLiSTauu8X2eQSx0xAEUcCQQdQQCOR13BSqx7e/3sPix3+V34qFou1O4qU1iLI1ezoVnmpHL46/wy1Lu2js81A2QNcfVf2T4VyJ7iVqXnthBFVrayuHs+gD9o/KqrZFIekKrjjCzxIUdDW6nlttcPfb+eslsm3sp9GGMd5cfhRSrZy9PymESEAOBLXgaBw4V3EEHxVUKY9G85xzR7i0O8QSD/ABDyXq1uakqqjJ5TOekLCjG3cqccNYfdnH5J6iIrgzQREQBERAEREAREQBYLZ+bf9l3wKzr4UBSI0X1epoix5YdWktPe00PwXlZZLCwfoDeXkIiL6fAiIgCBSi5NjZJAHzExsOjf7QjLjkzxqeSml3XPDB+bjaD7RzefvHPwUylY1J63qXXt5FZc6VoUX0V+59Wzn6ZK1suz1qkzbA6nF1Gj/GRXwXUj2HtJ1dCO9zq+5pVkIpsdHUltbZVz01Xf2pLm/wA/gro7CWj+8h/ef/Qta07GWpvota/ueP8ANRWci9PR9F8efrk8rTNwnsXL3KYtdgliNJI3s+00gHuOh8Frq65IwQQQCDqDoVG732Phlq6MdU/kOwe9u7wp3FRaujpLXB57dXzwJ9DTVOTxVj0eta16+ZXKlfR25omeCQHFlGj2s6up3UGX4Lg3rdMtmdhkbSujhmHdx+Wq1I5C0hzSQQQQRqCNCFDpydKom1rW4sq1ONxQcYy1SW1ay7EXC2XvoWmLtUEjKB448HDkfcarurQwnGcVKOwxlWlKlNwmsNBERejmEREAREQBERAEREBVm2di6q1uyykpIPvel/iDvNcRWTtrdXXQ42ir4qnmWesPcD4c1W+FZ+7p/Tqvg9aNjo64Va3i961Pu9fmw+IvuFfcKjZJ2Typ3sfs2GATyirjmxp9UbnEe1wG7v042xtzddLjeKxx0PJzvVHMbz4cVZis7G2Uv5Jd3r6FFpa+cf4ab7X1cO/fy4hERWxnQiLTtt4RQiskjGcATme4alfG0lln2MXJ4SyzcRRyXbGyjQvdzDT/AJqI3bKynUvHez8Krj+po/8AZc0Sf0NzjP05cmSNFzbJfMEmTJmEnRtaO/ddQrpLtGSksxeSPOEoPEk0+vUa9rsrJWFkjQ5p1B/1kearTaXZ51mdiFXROOR3g+y7nz3q01gtNnbI0se0Oa4UIO8KPcW0ay69z+biXZXs7aXGL2r8rr89hU1x3k6zTNkFaDJw9pp9IfMcwFbUMrXtDmmrXAEEaEHMFVZtBczrNKW5lpzY7i3nzGh8DvUv2Dt2OExE5xHL7Dsx5HEO6ihWNRwqOlL4/ctNLUo1aUbinrx5PZyerqzjcSpERWxngiIgCIiAIiIAiIgNe12gRse86Ma5x8BVVA41JOWeeWQz4DcFZG2s+GyuHtua334j7mlV1hVJpOp/Io8F5v2RotDU+jSlPi8dy/1mKi+kLJhXR2dsnW2mJp0riPc3te+lPFV8F05KK3vHMt51FCLk9iWeRPrgu/qIGMp2qYnfbdmfLTwC6qItTGKilFbEYic3OTnLawvD3gAkkADMk6AL2oPtnfJLjZ2Hst/OEbz7PcN/PuXOvXjRh0n8Z2tbeVeooLvfBHm/9rnEmOznC3QyesfsjcOevcok8kkkkknUk1J7ydV6ouxdmzc04Dg0MYdHOyqOQ1Pw5rPyqVbifF8Ny9O/mamnGhaU9WIri9r9ezkcOiUU2ZsLxn8mfi5a1q2IkaKxyMfyILT4ZkfBdHZ3C/r4r1PC0lbN46fg/QiZauzdO0c8FAHY2ew81FOR1b8OS0LXYpInYZGOYeB39x0I5hYcKjRnKnLKbT5c/ckzUKscSSa58vYtC575itLasNHD0mH0h+I5hdRVDZZ3xvD2OLXN0I/1mOSse4r2baY8Wjxk9vA8RyP48FeWl6qv7Zfd5+/UZu/sPofvhrj5e3B9zPm0V1i0Qlo9NvaYfrDd3HT/APFDtirQWWkN0Dw5h76Yh41bTxVkqCXxZepvCN4ya97H+JcA4fE/eXm8p9GcKy3NJ/PDkdNHVenSnby3ptduNfrzJ2iIrEqAiIgCIiAIiIAvEjwASSABmSdAF4nmaxpc4gNaKkncFAL+vt85wirYxoOPN3E8t3vUW6u4UI69r2L5uJVraTuJYWpb383mztde8c2GOMlwYSS71SaUFOO/NRrCsuFMKzlatKrNzltNPQpRowUI7DFhUm2EirM93ssI8SR+BUewqVbAjOb/AMv4vXax13EF1vybON/Jq2n2ebSJkiItOZQ1LwtPVRvk9lpNOJ3DxNFVTySSSakkkniTmSrE2wdSyuHFzR76/JQKzwl7msGrnADvcQB8VRaUm3VjBcPFv2NBoiKjSlPi/BL3ZJNkbhDqTyior2GnQkesePLz4KarFBEGNDGigaAAOQyCyq3t6MaMOiu/rZTXNxKvUcpd3UgiIuxwNW3WJkzCyRocD5g8QdxVeX5c7rO/Cc2OzY7iOB+sFZq5182ATxOj36tPB40/DuJUO8tVWjlfctnp83k6xvJUJ4f2vb6+vFFX4Vv3NbzBK1400cOLDr47xzAWpgX3Cs3Co4tSi9e1GnnFSTjLY9pbEcgcAQaggEHiDouTf91mbqnNw4o3g5+yfS035N8lj2QteOzhp1jJb93VvuNPBd5aldG4pJvY0ZJ9O2rPG2LfoERF3I4REQBERAERa1skc2N7mjE4NJAG80yXxvCyz6ll4RFNr70xu6lp7LD2ub+HcPj3KNYVmOeZzJzJ4krzhWPrXEq03Ue/y+eprKNKNGChHd5/PQ8YUwr3hTCufSOuTxhUk2HdSR7eLK+RH9Sj2Fbtz2nqpmP3A0P2Tkfca+C72tVU60ZPc/PV5M4XMPqUZQ4r3/BZCIi1xlDjbUxYrM+nq4XeAOfuqoXdOU0ROgkj/iCsiWMOaWkVDgQRyORVcW+xOhkcx27Q8RuKo9KwlCpGsuzvTyuf4LvRdVOEqTfX3NYfIsxFyrivMTxip7baB458e4rqq5p1I1IqcdjKecJU5OMtqCIi9ngIiICtb9ipaJae2T+92vmtHCulfxraJT9YjyoPktHCsdXeKsu1+bNdSk+hHPBeSJFsNJR0reOE+RI/zDyUyUN2Jb9I8/U+Y/BTJaLRjzbR7X5soNJf8h9i8giIp5ACIiAIiIAiIgI1fmz+MmSLJxzc3c7mOB+Pxij2EEgggjUEZg8wrQWhb7sjm9Nue5wycPHf3FVF5oxVH06ep8Nz9H4b9uc2VrpB010amtcd69fMr2iUUhtezEjc4yHjho735e9cq02GSP02OaNKkZV79FSVbatS++LXiuayvEtoXFOp9sl86tpp0SiyUX2ij5OuSY7NXh1seAntx0B5t3H5eC7armw2p0Tw9uo3biN4PJTuwW1szA9p7xvB4FabRt4q0Ppyf7l4rj27nz7KG+tvpz6cftfgzbXMvi6mztzycPRd8jxC6aKxqU41IuMllMhwnKElKL1or2WzTWV4ObSNHD0T46U5FdqybVbpYzXiz+k6eaksjARQgEHcdFz5blgeamIeBIHkCqxWNei3+nqauEvj8k+JPd5Rqr+aGvivi8+w0JdqYwOyyQnnhA86n4LeuW2SStLnxhgr2dcx4/HeskF0wszbE2vE5kd2KtF0FKo0rjpdKrNdkVq5vWRqtSh0ejTh3t6/MLDaJwxrnnRoJPgsyi+1V41+gaeBf8Q35+S6XVwqFJ1H3db3I8W9F1aijz7CMSOLiXHUk17zmV5oslEosbk0+TLYLY+F4ew943OHAqfWK1NlYHt0PmDvB5hV5RSLY+00c6I6EYh3igPmKfuq10VdOFT6TeqXg/f511+kKCnD6i2ryJWiItKUQREQBERAEREAREQBa1tszZWFjtCPI7j4LZRfJRUlh7GfU2nlFeWqzOjeWOGY9/AjkVhoplft3tlYXZBzASDyGZB5KI0WOvrV21To7nsfr1rx5paC2uFWhnfvMdFsWK1PidiYaHeNxHAhY6JRRIzlFqUdTR3liSw9hMbtveOagrhd7J39x3rqKu6Lfsl8TR5B2IcHZ+/X3q9ttNLZWXevyvTkVdXR++m+5+vqTVFHbPtL7cfi0/I/itkbSRcH+Tf6lZR0layWVNd+rzwRHaVl/XyOyij820jfUY532iB8Krk229pZci6jfZbkPHeVyraWtoL9r6T6vXZyye6djVk9epdZ174vwMBbGQXaE7m93EqKnPMrJRfaLOXV5UuJ9Ke7YuHze/xqLehRhRjiJiovlFlaypoBUnIDmpfdF1tjZ2mgvOZrQ04Ady92dpO6m1F4S2v5xPlxcxorL28CI2ezPeaMaXHkPidyktyXGYnB7z2hWjRoKimu85rvBfVfWuiqdFqcn0mtm5Luy/Fsq69/OoujFYXN/OxBERWpBCIiAIiIAiIgCIiAIiIDnX8+kD+dB7xX3VUQopZtAPoT3t+KiuFZTTcn+pS/8rzkW9hj6T7fwjzRKL1hTCqfJOyeUovVEwr4pDJ5olF6wphX3IyeaJResKYUyMnmiMjJIABJOgGq9YV3Nl4s3upoGgHvrX5KRa0f1FaNLOM7+xZ/GO85Vqv04ORs3PdPV9t+b9w3N/5rsoi2tChChBQgtXzWUVSpKpLpSCIi7HgIiIAiIgCIiAIiIAiIgCIiA1bwhxxvbxHvGY+Ch9FOli6lvsjyVVpHRv6qUZKWMJrZnr4rZr5kq3ufpJrGSHRQud6LS7wJXRslxvdm+jBw1P4KSouNDQVGDzUk5eC5a34nud9N/asePzkakFhYxuENyOtc6+awzXRE71adxPw0XRRWkrajKKhKCaWxYWF2cCKqk08ps4z7gZuc7xoVikuDI0eSdwIyqu8ijy0XaS/ou7K8mdVdVl/Yg74yCQRQjULzRSy3XeyXM5O9of6zC4s91SM9XEOLc/dqs1daLr0HmKco8UvNLZ24x2FhSuoTWvUzm0Uquaz4IhXU9o+OnuouXdl3lzquFGt47zwUkVloOzlHNeaxnUvy/DC6s8SPeVk/2LvCIi0RXhERAEREAREQBalvt8UDccsjI28XEAV4Cup5Ll7X7RssUOMjFI+ojZ7RGpP1RUV7wN6qaz2W2XrOTUyOGr3GkcbToPqjkASaVzzKAse09I9haaB0r+bYzT/HRbNg29sMpDeu6sn+8aWj970R5rgWTorjp9LaXl3/AHbWtA/erX3LUvfoue0F1nmxkepIACe54yr3gd6As9jgRUGoOhGlF7VT9HL7dFajZcLhEzOaOStIwa0LODidKZOFTuqLYQBERAEREAREQBEVadI+18kchslneWYQDK9uTquFQ1p9XIgkjPMaUNQLLRUbBsRb52iUw1xZgyPaHkHeQ41HjmrO2FuD8isojcAJHkvkp7RyAryaGjvrxQEkREQBERAEREAREQBERAEREBR+2VtfbbwcxmdHiCMbqh2E+by414U4K3biuhlkgZDGMm6ne5x9Jx5n3ZDQKoNkv1pFi/vpK/ao+nvoryQBFB+kW3W2J0H5H11CJMfVx48wWYa9k01d71D/APp2+f8Axf8A7f8A+pAXPRfVSk20V7saXPdaWtGrnQANG7MmOgUj6NL/ALVabRI2eZ0jGx1ALWCjsTQPRaN1UB0by6QGwWx1mkhoxjgHS4zkC0OrgDKnWlKrnWrpVYHfR2Vzm8XyBp8g13xUP29/WFp+23+Bintw9HVmZE02lpllIBd2nBrSfVaGEVpxOvLRAdfY7aR1vZJIYOqaxwaD1mLE6lXeoKUBbx15LV2k27s9kcY2gzSjItaQGtPBz9x5AEjetfa+1suywiKyt6syOLWUJJbiq57qk1J3A1yLhwUI2H2SNuc573FsLDQkek9+uEE6ZEEnmONQB229Kslc7IynDrDXzwfJdz/aJZ3WaSZjCZY8FYHuwuIc9rCWuAIIGKuWeWYFVuu2Bu/Dh6in1scmLzxf8lWm2myzrDI2ji+KSuBx9IEatdTKueuVc+BQFp7HbSfl8T5Oq6rA/BTHir2WurXCKelpyVV7XSht5zPIxBszSW8Q0MNPECim/Q9+jTftj/LjUM2kYHXs9rhUOtEYIOhBLAQgJP8A7Vh/uZ/9X/4KeXbbRLBHORgEkbJCCfRDmh2Z5V1Wl/1RsP8AukP7oUM6Ur26psdgh7DMDS8NyGAdmNg5dkkjk1AdC+ekuCNxbBGZyPXrhj+6aEu8gOBXOs3Sq7F9JZRh3lknaHg5tD5hYtidgmTRNtFqxFr82RAkVbuc5wzz1AFMqGudBJrw6PbFI0hkZidTJ7HOqO8OJB8vFAat69IkMcUcsLOuxlwc0vwOjIAPaGE617ssiVJ7ivH8ps8U+HB1jQ7DWtK7q0FfJUTfl1SWSd8ElKt0I0c0+i4cj7jUbldWw/6BZv2Y+aAjF29KEby7roDE1rC4Fr8bnOq0BgbgaKkEmpNOytObpVdi7Nlbh+tIcRHg2g96glzXe60TRwMNHSOAqdw1cab6AE05K4rLsFYGR4DDjNM3uc7GTxqCMP3aIDzsztvBbHCOhilOjHEEOpmcDvWpwIB1yyUrVG7Z3AbvtDere7A7txOr2mlpFRXi00IPMK2LovoSWFlrkyHVF76biwHHTxa5Ae7/ANoYLGwOmfma4WNze6nAcOZoOag1o6VXV+jsow/WkNT4BtB5lRVjZ70tuvblJ1zbHGM/3WjzJ4lWZd/R7Yo2gPjMrqZve51T3BpAHl4oDTuHpJgmcGTsMDjkHF2KOvN1AW+IpzWBnSRWV8f5MOwXjF12uF2HTq9+uq5m22wTIYnWiy4g1gq+Ikmjd7muOeWpBrlU1yoYZcnpn7J+LUB1drLM+xXi97RT6QTxncQ52PyDg5vgrjue847TCyaM1a8V5g72nmDkuTtrsw23QgAhs0dTG46Z6td9U0Ge4gHiDVt13va7rmcyhYa9uGQdl26oofJzTnTeEBe6KvrL0qQEfSWeZruDCxw83Fp9y518dKDnNLbNDgJ/tJCCR3MGVeZJ7kBvdK9+tbELG01e8tdJ9VjTVoPMuAPc3mF76IrrLIZLQ4fnXBrfsR1qfFxcPuqIbL7Mz3jL1sheIi6skztXneGE+k7dXQeQN02aBsbGxsaGtYA1rRoAMgEBSm2X60m/ax/wxq8lRu2X60m/ax/wxq8kBWfTKw/9ld6o64HvPVEe5rvJdvorkabA0ClWySB32icQr90tXU2vuIW2zOiqA8EPjcdA8VpXkQSD3qpbjvu0XZO9pYdQJYX5VpoajQ55OFQQd4ogL3UF6XJGiyRtPpGZpbxya+p7qGniFgPSnBhys82PgSzDX7Va0+6oDtBfU9ukMsgyYMmtrgjYXAe8loLjqacgALB6Hv0ab9sf5cah1/8A63d/xMXxjUx6Hv0ab9sf5cah1/8A63d/xMXxjQF3qlOlGNwt8lfWZGW92HD8WuV1qEdJOzDrVG2aFuKWIEFo1fHrQcXA1IG+rt9EBKrnla6CJzKYDGwtp7OEUW6qW2R24ksTepezrYQTQVo9hJzw1yIrXsmmZ1Ujt/SnHgPUWeQv3dbhDQePYcS7uy70ByOl2RptcYHpNiGLuLnFo+J8VYGw/wCgWb9mPmqPt9olmc6eQucXuNXkZFwAyB0yFMhoKK8Nh/0Czfsx80BVHR3+sbN3yfypFeiovo7/AFjZu+T+VIr0QFYdMvpWXun+MS6F2sJ2fcBr1M58A+Qn3Arn9MvpWXun+MSk/R6wOu2BpFQRKCDoQZJKoCE9EUjRa5AfSdCcPcHMLh8D91W8qLv+6J7stQfGXBodihl4jPsn6wFQQdRyKlt39KceEdfZ5A/eYsJaTxo9wLe7PvQE6veVrYJXPpgEby6vs4TVUFcvp/dPxapFtbttJbR1EbDHESKtrV8hr2QaaCtOyK50z3LgXXGRI4EEEBwIOoIIBBQH6HWhel0QWluCeJkg3YhmO5wzb4FEQFMbZ3ZFZ5SyJuFtdMTj/ESpfsHs1ZZWdZJC17hT0i4t8WE4T4hEQFiMYAAAAABkBuXtEQFd37csD7XJI5lXGRhrifuDNwNNysREQBce/rjs9paeuia8tacLsw4anJzSDTlWiIgKlu+6onWnq3Mqzhid8a1VmXtcFmjsb4GQtbG4xlwFauIeyhc6uJxyGZKIgPuxVgjhhkEbcIMhJzJzwM4lcK87lgdbTIWVf10ZrifqCzdWm5EQFhIiICI7Y7O2WRj5nQt6wD0xVpP2sJGLxqoNsNcsFolDZY8Q4YnD+EhEQE42vuWB0cEfVNDGF+FratArStA0hdzZ+BrLNCxoo0MAAqT7zmiICHbLXHBHaYZGR0cC+hxPP9m8aE03qxERARHba7IpzB1rcVBLTtOFK9X7JHBdbZWBsdmjYwUaMdBUn13bzmiIDo2uyMlYY5GNew6tcAQfAqoNtbkgs8pbFHhFdMTz/ESvqICdbGbP2aONszYW9YfXNXEfZxE4fCi4kWz9n6+Q9XmTJnif7f2kRAf/2Q==;clipPath=inset(0.66% 9.46% 20.93% 10.36%);" vertex="1" parent="1">
          <mxGeometry x="533" y="511.23" width="47" height="47" as="geometry" />
        </mxCell>
        <mxCell id="FWO0GWQRVAM2mk7AwP2H-35" value="" style="shape=image;verticalLabelPosition=bottom;verticalAlign=top;imageAspect=0;aspect=fixed;image=data:image/webp,UklGRkIpAABXRUJQVlA4IDYpAADwJwGdASpiA4oCPpFIoUuoJqUipFQIWQASCWVu/GPZpy5v6H2YDuL7P/r/7V3uldfFf3P9xP8P7/3CfVx5b+3frj/Ae8rrq7X8+7mT/0/5b2l/3v/mf5n3Q/sD2C/1c/Yn31f6L1R+Yr9r/3D95D/r+vL/C/7n2AP6l1MfoOfy7z6PaB/sn/C6gD//8Ch5U/2n9q9mXi9+8/s39/9s+tHKl91MiP5Z+Z/6H+E9un8l3t/MTUF9r7u2AHuopr/3LqAcKD6n7An81/y/rE/5flF+wOna9c3pACdVqVb3kIHzXw26re8hA+a+G3Vb3kIHzXw26re8hA+a+G3Vb3kIHzXw26re8hA+a+G3Vb3kIHzXw26re8hA+a+G3Vb3kIHzXw26re8hA+a+G3Vb3kIHzXw26re8hA+a+G3Vb3kIHzXw26re8hA+a+G3Vb1QA+a+G3Vb3kIHzXw26re8hA+a+G3Vb3YKC6t9eaJrol8Set1DYf/gJyy7iacXkIHzXw26re8hA+a+G3Vb3kIHzXwxE+JfuGg2ReF2ztjIDwmhhjNbnMXmkYLoyqK+VL6Le8hA+a+G3Vb3kIHzXw26re8a3tFUZ/hsHonIRsrsOVL+yXy923c14QF9zRK0zfeCDf0yOpVveQgfNfDbqt7yED5r4YVx6tjufOLqRs4ugjw5Qs3PPlXls+3l0BTidY9AFimjKD9bTdkBdVveQgfNfDbqt7yED5r4bcjAWuz4j8pT4qIDnsi2EpfYj0v8jLdZA0Cq78E2/8Gea/1v/ZEb/mHmGKEbSTfFDUq3vIQPmvht1W95CB818MLmL2gm/J/GAGm/MGjceP4JumAxMFXQcJ6DV+9P2Uy1QLTmwIM/L+FX/R9bt2OJ3xDqVb3kIHzXw26re8g+BZnn2YeqImrkDuFh62k98jXopgwXdnN8IPCaUn3vSC60ZMaXxb3kIHzXw26re8hA+a+GzhZXxZs7I0M0tmBN2AQSqbJxQDZjZ6DSiVWxiTJ8DFKt7yED5r4bdVveQgfNfDDBdeMcT3jCj9+B9Cg/71vGc8JkK7jmK4NTcS3CtdkFLdUqXLhDIh1Kt7yED5r4bdVveQgeprktZROojruW1irm5rttDiFGeXoVgfbe6M9UG0gqdAJNzZbLsA1EtnEyPMYdIFiUSM7Wipae8hA+a+G3Vb3kIHzXgfVLOLW5T/yc9pIINfpgsfTf/2fFZqF891j+RIyAN4H3gILyYyc5qMDsz9nk6HfWyBnGcpwMV8Nuq3vIQPmvht1W95B8Fbp2f2Do0updUuKwDF/PG290IYjDs2QRX/uxhjJejhYxrv1/8ztLSbVjwJuJrUTI6lW95CB818Nuq3vIQPlCgx/d3BlUZOpOFjKRSZzXtnjAiWHmqAUSUgi+T7L1qKbPh9G0SETDbqt7yED5r4bdVveQgW/4yJPO70L8M5gijWt5h03BM6DuN/4JQAV1JrDJeOIh16tc7RtzcRur82XNfDbqt7yED5r4bdVvddGrtcJw8nwwtU0rQLkQY6/GivfsuL2Aowf0EWUuTLHUFACnNBqHt5CB818Nuq3vIQPmvht1W0FjW1KzQ9W8mQ4QWmjqzr004+0OYJ+EgiotFdFQj+6i2obXvMcQIdSre8hA+a+G3Vb3kIHzXvYbzvil8m45eP+6SLkw/jW3IP4T5o2cr4nEL05IcXlB3BjOJE8vhMEXGIVOOpVveQgfNfDbqt7yED5ruGWPHICi5vOADDDfyZU7vofXeyAkM8bCyPa49i56ES23JrmQYhU+QvnxZqAN6dU937fEOpVveQgfNfDbqt7yED5Qh49gr7sGmtVgTuisDHZ0HcbrcvpJKyD5+x3BqcEiDRK28UxQoMQDO2CFigScq3vIQPmvht1W95CB818NuFeUW6T92tNFfHdW1Hvy2IsmQUtzqgxzif3/m53+E7vGlcW95CB818Nuq3vIQPmvht1W95Asu8VIyS+clf4tSLZN5kkIbgkaw+G3Vb3kIHzXw26re8hA+a+G3Vb3kIHzYLUQPmvht1W95CB818Nuq3vIQPmvht1W95CB818Nuq3vIQPmvht1W95CB818Nuq3vIQPmvht1W95CB818Nuq3vIQPmvht1W91z3tbT6e7AcGxs69F0t0LEw26re8hA+a+G3Vb3kIHpN0gbaBiXO8EB9YPn/lC0ahuEwfMhNiGJhtwKXdbpik/7jk8XnR5M9XT7T6e8hA+a+G3Vb3kIHzXwwUMgYidGCRcejPk3p23s0GSOArDS7Pt0auzFpraxV94SjChXn6zJD55FeLweE8REcOPBfEkTURgiY0X6B3AA9XE//EjPLNChQuPnFRieQO36EfZE5WgXU51uu/jGKGRud2ZHUq3vIQPmvhs0n1E5s0Up1UcxvRSs6s0p6iW2mwqy9H4kphho+i1YY/oVeyPpcsQP6a84jiOP7lux2w+McaqDDGIcB/Y/f3//HGDpIF1yXhS/9BPNwdN7Bmj4/FGIdp8gWvD9q5MS9nVOaBKl8FlKOl69T2UdYlCp7yED5r4bdVveMULg11BIfJYT9VlktWY72xIcBAIB6xQKCMFeMSA9iFje6YMuxRNdgoqGT3J8f/bWzkTrc+odyZxSBJSPInDcFO7wAkrjUfTUFkhFnZLQ05fb4h1Kt7yED5r3wbJqvjpiRvaX6NoW4YJqx1HoNEZNsggdefCg7NR83xZqq4Z5QBgXJu21eEs71U1sHoXgLQBhrrYAxgoR6ke4xpSSnQ/xLaUzMi3nB/6yVbygmxvE2O7QpIp62J9+l6pbcNGpan0Va48+XQCBNaWTiTcHuEzEj0ua+G3Vb3kIHotKtIxIdl8TlmlIRxZFKrhxPrtQx5v8wd75jJJ8Qg9ZSX7lOpkA6+t1TscjjbGgF+LqkCA+mTIP/+Hz6NBHc7CCyNIxNx0+ASObXIUn6tuXmGvWKIWE5A+/Fr/7wpSFCaduNlhjYwLl1pzH2iTGuxpc18Nuq3vIQPmwX9A1XdQJMkFR8lwo/EFcLtzUcHtveQgfNfDbqt7yED5r4bdVveQgfNfDbqt7yED5r4bdVveQgfNfDbqt7yED5r4bdVveQgfNfDbqt7yED5r4bdVveQgfNfDbqt7yED5r4bdVveQgfNfDbqt7yED5r4bdVveQgfNfDbqt7yED5ruAAA/v+CCAAAAAAAAAAAAAAAAI2Lt2O1sKo7jbB93hc4F4AAApJKrbobhc9aM74INvVP2U4JJ3pH9Blz8tCHrSNq1flc2R4m/dBVK8WBbt5Kox25AduPmIS1vvFtfoEwwB1Av86HMQhmhnpBDK1EmDGKcsNrFWlJbQCAAAPRle0lgnkQ4kG5heb3r/9ph72ImZTV39op6t0hPFPiO5s6xvjOnFU/gtX5gkc5QR+geaDsLc1SQsBDcF59rqSOc39Gxg/ryCgBdOOIqsrQ0KYLoJ89cr/Vk3vAHhNDOSUyiRjhmNdatuGQIWi08/AAALC9DqU+J/6H4tR+pjAvSXnMtU8ZFIgOq/FqgTlP1ayE7nIAqxvcrr4+nMb22boaBRa0LaR9PVMCSLSjuE39OXS+1YO4OAGNWnLnANCde5BsQ2bl8PGvAGXMAGqeHFL4eD+5wlWAnLgAADS0/hK3W8LpU6Di1WQQpYLOmU3vYLd8Wpkut1+McoT6jM/IimLmgrzqx2TwICqTLRtr0ReVfy/fsCupSCBcSjy6xHAB7XxilxH276Iv56e78hlduvE5OHF7D2Ydx6cE+ezAN3RXIncekFfMeSka1UtA6y+Y5iBl4xZbouxeGoSB58Giv63Gbt/+Eosp/TxbvP/GEgwSV/l7hZBeN0i6EdUke2KZOOrcyFi1S3AWUAAAt616jqsaBNwN+EopBNxZ+G2FzRtLxOZUTep4+OarEQIM+bSo3v4nHbHV2wGeGKBeZCCleWIRgeTdbWrhy1WEfhTkCDoGc9b67v1lGhAqTew7swhBQmC7WAbQBD0bUXkw4dMnRsGs0bPLSplSezvwzzxBxezl7vvm8h6GW8EbPxOL3MkHfnNBG6y430E3X8fXctbUgJMzDcy+auR/cJEXT2wCvy8vqlgd5Ojr6wBZdspFY76c0xo3blwfwEb9vCvwp5V8gcOtx0O6+CgYRJ8OV9P8ouT0eGy6eajCDed1IWgD+z06Rztuf/ZjM1QLcnxAstaoibGy3i0F8BMPJ1lkQGZ9EALyVQAbLltcXDv66EJAAMB80YgMF+KYWpEM0NIXCdRIPA2wucAqSyIvSqzN5TUv/RMlV5u7hjIsXixfEmbyAClG+aTFmo9y5RhBDQPbr7yX1ffZhhs7OP78kpzWHp5t3wjpt8BgcJunX+2v4jCW7N5BZ+0Gnuakxe7JrFgn71rUOsLwZc0NvCS9hiZ+K/Db4bGPezUK7kwQacWTZJPh9/zci1Gn06oikRgYJuvU2Zav6w8E++KoiqmB4cB9kQkw9Tuobd3iMhv3yGqzlH3xXpoykSYlsOyGYUMtpAOkZHKZ71CtP1vF/uoMSA+KeWculH+rPyHf99myAABAUbZ7hkM9zwwjQjxsZAMGmmFdRaSac0HtMBioMK6foIl4O72nZZ0ZEJmu5KnjNTzTPsNSSpVnyg/XMgLn7CGgt6VqWW8EjHN3Ad0/zryUCcIJXE6wMW3blwfdiUPrI+1mZnVGf/W9MuhTbMX/gS7yWyQ4REjHC0IhOrZ39F8NeGpbPrUUTv7RZdFY9IHZtZIC5/sl0m+8BIlYvTxeelPGMUSA3vK06bNRESksrvfABGHa5gFvlxkmUX3F0DOiLAEc2fGNel4pIGagAODACK4ivtDQFmiizjk769QFJ1Zavi3ogqRhYRwDsjbWGrTFbJ4f9JzU2lCZWrpLMACKoqt5f8VCyqQFlVv/PE8YumIhL5/KkvWsNeBsW9ktJjqWK8UEWDqMTQ8HmAe21ud6/bUQb7gmvd7okW7ZRRIeIeMbIEThStqvqABhKd35ogczH++iawb9j1uAAGKVyryufLDvD0uLzuokaGDdCbHHZpCqr31N0CJLLGeji4rN7FCnbKu3jccd4QqVJ4BOE3naG5Oi58iVKT4LqkwXQUJ1MfRyM7yI49krpkan86EGLhoBb4366ipjx7tuRXJh+W5+L3J5WyJ/Ntff1bDu/LPwrN6kDo9P5kBGTPV4RYKaBQzPIpvVspPas9XPUAOKBq8tWklIoLanm7bU9SmYMGecrI8rDTvfqTJ5QjmVn8szR0ze/5K8knZfNDhlpmbGLnM4oIAEpDdG+mG5sJ2W0Cwv8GrZ1fFewq+LRk87Op5GaHif2TSXZfZk3UJxKwTbH7gFObW2ORZINVn76+KBPCXwTyG6NlOo2aSgHIke3L1cjb1nC+Lw3VefZUTWQj8lQdGmCzCC41hX+Au3Vn2r6Ge92FytwyT2uu29RIsg9SsmPH0J0QdkXOoJpK5nRLoH4rhOLey6oXP31XfnP0cDxqvW3meAHuJFmbfRm+YV/k6S3B7E/n5MyLsVZAs06eh/4+Ymv9w1/mBOfxUxrDH26oghUsH3Sw7dkeipH9gWGxx1Z4ZyU9Br7nFKYlb0lr36TaopTDModOJogLiuFdVB12HAa3NkPpYRr6jUEgVPlCQA/vbIZHxD6v+Qe81F07hNuw4Mv4we8XGYfv/NEzCDSruAAA0FfqUYhXP9WCgLoXbBTARtHyt+KSbHjUT/odmmeZ2tRd3Mg9d94bw609G94q4Bd0S0Gde6S5m6CeQ3tJKbqMFYVsCrnWKF2MiSky8PAFJ5DLWPwcm99cdAw+urKljVyvX1rJYhBU/2q+eW2tGiLnx6dSxKGtk5poftTMjOp6megBAQsYMSWGCk4/bGOJKhqPnDUBe0V/FXU8/nrcrykoUV8LDqSrFCjwXhyBaPHemkm8y/o4761f9hLEWxFfaROPFhdDhEIN8u7OwJ1WaFIKy46H/MAdFPnmQi3yhreTh7aljLKt9EsSbuD+TKRk89yRiMgbWI4XP74l/2OOduGxJ6pz4vbAsVXX7Z5ScxjMImCebuzzeG8C4snYFdJYZ8YMe9NKCyiOvAMJDmK1iFX/S8LvY1EjcWgt+ksl94DTqhpNl8GfXaXzGN01kosWUTF9yKJErBTNAAAA05kDc0sOTavDHR0bxxL+bDy4sqj5cFjWp1oxQSnbn6Gx3MdoGLiux2D3vIzA5ZHE/UzOgXHGn5doKAzsFadDnswcUhXtHIXSMBFNs6g4/HZGhgfl8+zEZDvI0HK9v/uJMyBq6wtvolL3EPaTMR3h9lXb4D45XDPIzaTV1/h5BsRvmzpY1cUl89VR5hFgDVQPoppMJLYL7usCIvAY8L69Cl6DkwW4bgVZFBXeqO7ukD2Q8ZsXPqQAReZYKPHZSSkImWmenOSR0g39Jyy6745qImV4bHHV8zX9cDeb9dutpQPxaEakCR56GS3kvQsqYN4CLX+7XPIjfaa12wwhhJ3CqZN7RKacO2orrCUWtC2cLEYOANjWF4PccVFAuTJZ+3wfQAIpNkQ33u0XhPbd+mAJrhO1E+DwYIm3DvRsNpBIDQ52A0eJnl3WL+GiKTMjSHWq/2j8kKrPJs4lDvvbngSrWpWuQMEh8WZOFomcIE9PHtjRE96bU7/FFC2wFOwxLC2uvTPowySGuRnci6o1/A7jkPhqRzUQY/Qj+0IMKmYF5o4wU1lJaUho9zeZ2r1geyT0fzzNvAhkbA+ZugukzL88gEpQ+UeS76ndEYJx+kIQ108QDKDzS6kQZB6+WNTnVgL2bGL0Sa9s5D4/qYAy5myhbk1s66ASTzc2kWowGilOAE74pCYoVX5tM2ANwEmJRb5LtyHIlobZESu7dLf4ik9f/auz9wTgyjKXZbShDu3W8UD1ZBHBXdDLpAtQYVBigLhcJ1pLl+rPW5CWY9UpfJ/pgl1HTDpTZ16ElG+1OeRUQEk9jQjpcCq6Fr5BdgN7slRMHRgIMA7Lsa7jcJxPQfc8yxvHbrBnGI227nY1+pOAOTT3AnjWTsoaUXQkoqv0K3upBsWe0OrVXW4YfOmHwwQoe+VfHnyEHqwikK6q74vvNaZ54FKSAAAfkVRuoGhITua0B7zMvVzVuCLFnnLYMSXbJEJniJFPL/fSzDZKwBJWbmkt6C65Dfg4Mh9H7gjku+batmeBxDZOhDJ5FeXMbrEm7yNvt/RpWVN5BEfrP+NQwNOP0Rp+SNKNcfWlmBdlKadYxTnqqokQTKm0rxmdy5WjI+lSjlhM48J7rfpfjcAjsCsqqY+LnJQhDJdn/gyOWfKaeBFHiKvAdSt+imyCwjeU1IniGEQQEClSl5RKxexOVAoVnQNMs6Wzlo40wK7aOfXFrvEYyShuwFHgAL1YFRdbIawW/vhAWYHGiaEiFoEBh1daLbwo85UAe8xw9madrqs6scWbHrZcMpwtdCHcmSw18+X+SU5JpyIs4CB6EGmELb3TXhPClhdwjQ9mmel6QPBqNrsUHuZIoTIzc/8ZHmsRqphaMV9g2q1PFHsL3a1k92Oebyn6g1NCZ9ziY98OzbzFPbhocBmurGgAsoDVF7bIAjhwLbXLaECQGU4q+WTsnpuoGdwh+y9tTAErzTi43Fo/EWEk+UPVkrdSengE7fHN1xS8oSEstn0jYY5LNeXugAADbugwgN5FfTIAY5tvI3Om4p5bwmpnQFqqOtDYxkpGUmRdrd1YgqJhJXxfiJJpWTOOq+Ce4uD2gNnHbXv47d4crb/zQoAMYZ5qxkc8thqwiwZDVt4uwqckhiE3r28AMijGQnQKy9ppuTXc4wwPnade/tAngIVAQC8IHvBF81YGqSi2bXLkqheISsEgoRChVThjycaQdcgcTS6LnjK6tV1KnqNMs0Uq1F5e0IYuE5ZgTkEcE3+JFRQoON97sYzK6fc5FXKkZKrCubZUPAJD4pgCV5qKAsKQIHJ5LN6XthNIBuPKLRTceQ3S8xFGOtto6r1Avhshm9nPCAACVvmQs+ej2ZPBE5cYJ8wyxKrShQ5sBygdXZJ4z8+5n8MSGJ6gYwCd1765bDeZ6UN0WMKgfXfz66F7ckfA+fL+qB1l7XSWzLUo5y9aumBAi1UXiP3ABjVF68B/ULvlRRaD6LafH4XreTCjlTZOBeukU21oND6//oWvoBT5HPIoZ7IEKHsXcprdkiD1TLUQuHqrfdiDY22pSsrJTxyp3fJxhGhKd91Pwxz6FE3qvJFjRbjaFClOai6n7At+XyMwUr/jcWxAkrWOg1RC6NvNoLYGHFI83+BoVU4Y8nGkH3rz4FnpOdR7bxuMPnrgUAIWsLWmk4LCOgW7k78Gp0DhdJ4aHgWcMuvlOIYA3eky7vH0FgYrtWMtDT5QwByCtGfRL14Zt/4awCcUnYHUVWZtcxgchwr10mtHBiWEuJz36/wcobhicAAAdTf/eQZ0U1XjVa+rEjWI98zYn6qEzyX8vWHck+wEtLS+KoCBZkl1DafrzTWp9aS3bIXckNtCRv0LFIUK1GCPr1LKqEwscQzptQxkqaijzlFnUBTZNRlUj7BMJX/NTaG5ghWKejY2ZwYCAgx9XRW2C0DOrM8wa4cMXLBWqVx1q+UeGjCVWc7iZSFQAyt6c76kw99Sf6zkRcc0/G9XicrD2LIgxBcqONVU7rZnu7IU3aCevdlpa5maOdRzv+LKpltWhAKjpzz7g869/cKb3IeWFOvHs1iBIakAWYCf6tXnVkxoxRPOBLN75zQq/MzDFsQd6Mvgay/l27L7DXgg2z9hXt1xS5zqxqCKDdjOWc4/uGKAAAXuxdDZfh3/dIzVqVaMf+4tYrMs/ZH8N0gfJlmWrRS+xNq8PU9+20EFdPseGgenPgRadvOGo5ezUlLJkIC4UmljT0Er8qpyMyY3yhGEWRoJdlLznyhrV9WaiLyi0+269UEtgmr9nwO1rEKv/BG3oTlilMOMiea/Dp6G55QbYYuNNy9nj/di2ugyEqvcnzlvOn2aUn/Pvutr1HtvG41qLaqT7GEOwzItFLXVASo1KIi5c/xY9+SvI74OVLk9KIc5+sB60aBkVbkKHlYL18PAxFzQ2gjWYZyGdAAAAoUUDcw653/D1a5sCvFKDglLOXmmyrgqf9zpDRYmLz+0uxBrUT7qwE+nbsg+oCv2y5DCE5ULDppT2JNu6WKdXJd9+OsXI54zEwkvJxOAAAAAAAAAAAAAAASm3T9MU9yo6bwukx3REBIZY+dQSAeJk8RpXRrr1nvkzwo8GVzL3J0UY9enQ+Z7VZ1PLzIcGBsd7JM4Tn7kpW/KPLghpT3pf+TSuKz3ZtuFx35STnMDhMhu2awNsAA4IDELYTNCA9VVQjF/ZDoHBW//8lLI9tS4D1UUCWrWo+8+atEzLwJIrLKc3DXunDkUW3qBr0c4xfpmvIS9HAe3Ir06F1Xj7ufjpvvCd1r4AjGe9luBC4VIEVKDtQ7taWu4cGTKeWfNapguXD/IR75yO0qdVdAsUFUh9zXx9TCDdd7/aesyTyojAeVtVLyso/MzD4plf4NJ1H1hQS7mmjspeLjlRuPMKpqudMs54/4nMaGfq+CuSIgrVidny11ZLOVpFRV2cVAqdqiSJkjNYjY9GnwAN2K1k+Q9fRf2xu4NOKENXHvy7LHbhG3FP/d3SRiOq/ua0xW/K1xCHZo4w8Lm9t1msoxlBF2HalpiK+HILElU6bq62Nwr6v0HU5ksf57Er9GXQV5L3XMQScO0LZ9zBgCj/3NzeSXtAuld727vPM2TQsH7SxYznNJ9FrziFTdI6MrrbXjIQEZjq/VX+OHpAczgLnyAKdkAINvoryY/TKTPOOd/1IQVqsqEpCKNd/S2IpMJkPDr4sLvC375XKLkuTy2YBFCIbDWmWt9Vvr50GCaApFufuzeDQK396hG3k+agHa3a0zDgCs3xPGS6tT4G8Ud0lWHuQPC0mjEKrd9MG5YPUJypwShj3cDIvfuxJc23T3xNpft+pUWl60klfmMTCOLrcmqpTek/jKbSLDrW+rZ+7gfMWjDTjYUetZbDOrL7t8bnjAvw3zytEp3cjqId0gyPJYPPBP5pC0naxwDRkU1ZBvAOA/4E6zSbmO1IdUf+tGqaFifoXmr6g7nnGxzaI9dV2ZPuRvEVKR7Q024Z8OIldl7GBQIaz9KSZ26CpDgXwdz5wV6MRweifG+T64iXk4t3SKZHYB4fSPlV5rLOIUg1N9goWDK7RcKjZJkhko4osE4p/EOlHjREr0lm5ftlgxOn2YbsDNPoEEd8PhDxQWt46Tf++f+7g5U3eIo6O8sRjZKEs2arFSI3MjHpSTcWnPYGKoYOpGOYFqpw4/JpdWsRXaaEntMm1dqPl8LhDq/N7QEAdunmeDM7rT97LcJf03gUWdifMaB4UaQMgaO4RPOao7t+KSG+d8KiRcBZ9AQad3FNvVEXb9B9Lp/geXb46OcbjQSLZ8wH5urEvArt6ePiI5KJlnLCArswU4fveYzqeWseIi2gGP2XdyiHXf4LHWencsYI29joVxsqtOqr8rHp4X654xFjn945MYZQ5J8S2fqSPcnKcFW2XB/TT0gFF1X/QCbMCmPmLLInVMPOBUgIzKvYJxGKqqEnDRFykJPYI6Pqffd9l95JX98mnfMfhvkg3S05T0iV4iP4EpJo+d5Bsl+1opx2ceOK0Z/P+6QYUjAFShZaTQHOEx/K3ZxM9/BWgBvhcGt0IubPzICVgteWTVGXyAU13zmdh1O2eah9y3l7pepxvRp2J1AfsJUKv+htPX13TdEpppmks822aGqpIGoMe/CPMafjoxVB0EwucjpqM0REJTKqcxN+OBcHwiSysHstYXUWhnCLq43SXzqJWSnnbiIn7JedOaDVFBgS0jbLTFOyUxJuvuXg2iBhCJIXsmVvzpVr8L2PHTOrUjjYO0LIjVlKoNl6vLlyNijgt2CMYnKAnhSxYkzlbs7w10MJSl+/eMXkOIbt+wE9Co67J2MbNsOamL1RaWEQdSTn3YVYcUV87NLproA/mckkk3W9BPMZZy7h5w22rnz1MQJv7CEfuvdZCUN/RlSGystLboNccmj1AO8V8XeFrWDge2KnTmI+gATPPpMNQDGOsMuQw6JBEoCt9MQHOWXZ4NXUSbEuv3NXz9APGohOH4/k95+Ty8eBBoo2uiZb3x6UvCWKKyExycBEY93fqzV9ObW+PRX2mskntFXNtBMcxt2tbeZWmDYFloFZR/9S4dzwr5HmZcsnpgml5dFWXn182W4jzGyyYaaotLVnFF4HmTqYe5GN+yXOpdwvm2xby7qThcuKj8LgvuYFNfgrQ8arR7AHcqhGWgCVXgsLU5o6oiTpuppVw9I1cP+kWBKmlk/RUZHF636zoeGumb6a7Cm4/01l3hGWhqguITke7w+DEP9Ryabi8aDjbrbBDv3Tx/1zSHIyKsxcBoFqxJ6n7SwyrymN9ngzZBZ9BTQQB0vm9iGNgklLDvUx6dEi0IlbZ8W7mny3UyWF4FFFnIruH9+vAFCoTFhCAclykzOhRFPLYXAPFt4Xx8dYxW75YPpRslHzvR2MUB9uaONrwo7/f138RwobZRWGkLk2akH0FI9hoWFyevkEiPvGBWARTLOWz0glDo5Oj12pjcSAkqaIPfsXZajajZ9gjjgTwfRy2fo02hxNDK9BJAJ6RpqlLKJ4+Z9rKFZIicwWYQJYHvczzyIXhEOkZaLAxeKJ4DORsBa1B2PwQMi2RLsBpnp795oYMXaCSw8fkzwZI8L6NWDmKcxolJEtZzJaN2aYXJ1k3AbW5XV0BazzijU9TKjL+jLczaLietgWqdveMVl6K1/TzSd3kvFdd8GDxhMn1YBriHgQIelkRNsu0WfU8jeFJ4LEW3XFyC9bhx7WDk/mu4/qawGrK977vJhTTKB3ZrxEqYxiMz2D5l6wGGnXZB9tQ7Kcd2plRP9qR+zlreB8wIuCsos+wVKNGpSJSLJC1UHD3NjZveMxekRSxalkDeFwoN7PQng2K5Gs7+h4dT0ihHJNkCS/7x2sxj28KvnYBxmir7b79hvOP+YsiDtEwcQ4G/L7EpzsFt2r/DcZDq9ZMOexawN8Mnkmf7SxwL34No72LtUh/iUx8CduOKTTFgmEkodWkGxkKjGA/0j13pHSqiRsctuvbp+tlc7z7KHLIFURNPFBFCIQILdKdndKW2Ma56AW1Kgb9+GHxSjC48TGhbbH0AfrFUXORxn1HX43GI3Na140KnsWHDm6T+lWFZk2gDY7c6S4EByY76mQu91b97qws+BI+UOYi7QMc/igYv2TJht0zPl7BxltrQVQzYRi46Fvz3GX1i1q32qFJ68Kp0/8hL9HSHBMdKt0/ZB29xrTSAyPj5YPiP/yv4UPFh4r6u+zD5pKYERW6uw8+2IMG57LbYmuLOSAJtzKWK7CXF6v7Y7uZs84QDD3eghi09QIpZyXcwRg3OzBl/FixzjK8N+PMGdndfA/scQHD8ih+aWfa3mousU9HpzVwsVGphvl8sIiWPCYiRYPdnV+4kJIl+3EGjYltEPq4OBdiPM6PojhHZCA2PeNoQCdzALKdIBFPssDqIQh3xZW4VGZe3z7oNdOPBjSP8WTjuihYKQiHI+tPD6GMETvKSjkK7fRxSQck5wH1AlongiKPUVBFmOdvg5/DPH4xPer/fGL5GIVWEa7f34c6okPOqG5GuB8FHYEnCcm8WL0gqjMlfV3uzPqzrIo7Hlw8aD1feUkUcFpX1itaUgjyqFCqksrEKcwEE07Ev8Y2iqWht5wg+C4yLPdXh07ewPVhIpYyhbdWLkXTzrWS/X/Unw3OrhOAmwxb6ODkNZsKE+SAjtocJ5/t+WF3fU7ZSs1Gl/s9XpPjjvdRSCycElulfS1EDE0q093MOI/OsS3uzWJuJNQGh0272WHRBf5U44y6Q+vVMbbP+UoPC+JxySy361T7UIhrkw1X9TFeAkNbJ1W0jZ66OJAtPT2HKkyqBVda14ZfucvYcK6p8nmNYtugi7Le66ufnk1Q/1TTjMG5BX5j3deck5eBf0wTnhNjQCsyku6z3gZkXIl1or+OmFrLe0fa6uBVnenOxzq56P3/E8h2H5IXf8++yL8YLyiR5TOIVg12Yxv9Op8gPl/UvPrIds873m7MO+skuwUfTI6C0ldWX3tO2agwUuil0ZaCh680DDeyZnAAJBY/XDxr/IHRLaa80NV/EGgtOzxeJrg6jqOo9nVdyAEhy4aQM/Vo9WP+SXxJFmjHU+hexnR0g/bCEywfuB5c27UyB/S7ghDqQp7SzXWKqntr3a231BXH8R+sT+A8c6sXKsSKw6kCfy9uBbdW7Rb2JpJB1nWsb1GlnXStFd0eG799TRY4b3FetM5JlgMYCGLxfznER0SYBQLRvnrRi7lEzgTbpJ+o8ZN3Y8OxwPeaTW+stYSDilLisGxFexgUFkFWEdaHK9dEc86nwNyWBKClT5Ii0aTJRI1SgnblajFhgUw6b06fIpXJDutFUyyBJhYLeL6RLGTif2B/7QTfbUHcKGne1pvT6eK+H9/pW1Pbz2gnQxJnp1xQV1PDtblJYnwoPrT4ee98dJ4rcoDxaYDMreKVPjL6jlI4Pr6uWms63BiH0lRwTZe4HFsoH4Sx6bvD6zPKZZlKd0ABDrX6JTr/AofK04SIpRQVbKdfRmwAJoVNUOAkFuy5zlwZZI1PLyZ8aCgszSsmgX/tfQnC7yPoT/5A6JbjssiyRJs5WMgoVZQ/z+Hm4+73Xtw4AvLUnulz2MwvfS9onvMSIgcpOLxZwpIhi9T40ANPAcmmTQkZep7j1R1iMXBfkNpUXqTTNKabQRehOFjC7CXQPkSWQpxQnhmUi2A+FnwBamGfIxPcsYRNb78SBTTGYHiT16Sh1OCCTHzhqAvaCAdpwZprlYcYNBGdeK2QgAh+ey+33PPwG2PRRwyuCpl4VocWkF6vUYM0Gv0qLr/3suNAiu/v4gr/i76ELZ6fWni9Q3a+ImFfSAlWBmsJDtO9QEQEpTMXzpiMPRLFVdWbrU9UCCAWxb+JWZpDMJf6GKxnkLCH+9c5quSUVwI5gogAAAAAAAAAAAAAAAAAAAAAAAAAAAAAAAAAAA==;clipPath=inset(8.67% 29.33% 34.89% 28%);" vertex="1" parent="1">
          <mxGeometry x="179.58" y="300" width="49.12" height="48.73" as="geometry" />
        </mxCell>
        <mxCell id="FWO0GWQRVAM2mk7AwP2H-41" value="" style="shape=image;verticalLabelPosition=bottom;verticalAlign=top;imageAspect=0;aspect=fixed;image=data:image/png,iVBORw0KGgoAAAANSUhEUgAAAMgAAADICAYAAACtWK6eAAA2pUlEQVR4nOydB3hURdfHz92SLdlsdlMgm4KUJBSlkwpKV8DQlPIKInawS1BR1E9fFWwQfJVXUV67gAoSVFSUoggkELpKSUInmwTSs5tsspvs/Z6ZTULKrbt3S5L7ex4ehdwy2Z3/zDlnZs6RgYhXCYtLHeEflXSTNjy5P5DQh0D/SMAlAsgz+QfSDpMEcbgwa2W2t9vZWSG83YDOiFIfGxA1+vVHNOGJ8wiAfhxu+SMva8XTV7NWHfJA80SaIQrEk3QfCYYuQycZ4lLTgCB687y7liTtnxUcXLWyMCst100tFGmFKBA3o9THyHXRU5J10SnT1MGx05BMXHkeCVBHAOwvO/PjlvIzW9PLzmw9J1xrRVojCsSN9JiwZrquV8pKgiB6uOsdNaXZay7tfv55szGz1F3v6MyIAnEDhvjUEYb4xUsBYKIn3kcCWWI2Zn5QkJW22mzMvOKJd3YWRIEIiCE+dbwhLvV5IIiRzj2BbPpKSKe+HLJSaVV8fPHwm/8xHl5x0bk2iDRHFIiLKPS9JUHj355iCB26FAiI43aXc92fO6SFJIn157c9+FL52Z+MbnxRh0cUiAuExaf2MQx7chUhkU7geg9JkkA0LHa4H/KKKW//soKsFZ+a8/ebPfDCDocoEJ7oom+N1kdPvk3fa/I0ICAeAKTeaIdjDuI8E5VZSrJ/KT+zdXPZma2/1ZTlmNzfwo6BKBCO6KJTru85Yc07AMQ4b7elJbzNtbLS3B9fuPDrwvfd16aOgygQFjTJzxkMXYc+HhCR9Cj6K6eb3O1iUL0Sm248XkrCkar8jDfyD6Slm/Iz69zZtvaMKBAawuIX9wpLSF0kIcn5AAQ3YXibJmHyUCgJpyuNGSsKD65abzZmWNzcwnaHKJBWGOJS+4clLH6GAJgJAAqu95EkAJ8B3NcgSbhoMmb8J+/P59fUlOaIQmmgHX+lwqKJSAqMumnZv1XBvR8DAAm3u8iG//rux8jb2iPJ4wUHVz1ekLXyT/e1qv3gu9+sh9BEJIUY4lIfCohMRj5GF+53esHRcAW+zSXJPfkHVy0rzFr5qxtb5fO0o29YONRhQwO0Ex6eprf2uE0V1HscN+ebbOhk7fsj468T8lxN6fnNJSe/+PTq8bUn3dg0n6R9f9s80YQnKcISFs/Whie9BgREcburnc0U7sMGdvvG/EPvvFmYtfIvbzfGU3SKb14TnqQxJCy+WxORuIgAoienm0Rd0GEnSfKngqxVywoPrjzg7ca4mw7dBTQRSXpDXOqCgMjkxwHAwOmmTi0Mnr88Se4syEpbVnAw7Xd3tsqbdNiu0GPCmgf0vSYvBwJCvN2W9kXjJhYSCI7dw1Kave7yhe1PmzNeL3B78zxMhxKIf1SyRGt4dnJY/NClBOB9UiIuwWdGIc12CfF54f63VxVmvXPWzQ3zGO1eIHKNQRbS746RuuhJ05T6vlMJLs53pzaj3I4NADLLzvyYfvXYR+uqCo8UebtBrtCuu4khLjXekLD4PeA1W4jq8BgklJnyM94syEr7yGzMLPN2c5yhXfYUQ3zqKENc6lIgiPHc7/L9Ve+OCklCsTk/4/2GI8HtakZpR71lJITFDZ1kSFiM/Ivh3O4RZwsfo9xkzFhbbjzyblHW63nebgwX2kXv6TFhzQh9dMq7AMRgb7dFhAZ+Y1FVdcnp5Xl/vrjCbMywurVdLuLTAjHEpd5gSFj8DAD8C/nj3m6PiOCcMeVlpBUcXPWF2ZhR5e3GUOGTAjHEp8Yb4hc9DyC5lfORVtGa8hHIZv/P+QsxmvIy/lN4MG2tyZhZ7p52OYfPdCllUKw2uO8dc7sOenAhEDDA2+0REYKGUYvzYRmy0lxweN3V42s/LD+z9bgHGsiK1wViGJYapYlKejwgPOkBIIhAb7dHxF3wnuIPWa7uXG7MXPND5eWMeve1ixmvCcQQn9rbMGzxYpDAXABQc7pJNKM6HyScqMzf93be7hfW15Tm2Dz9eo93t4CIJE3UyGUvKoN6L+LueIvK6OyQQO4rzEp7vCAr7Ygn3+uxXqcJT9KHJ6Qu0ETw2FnbJAxRIB0W/meCf8E7iLPS9rmvUddwe6/ThCd1McSnPhIQmfwwgLizVkQoyD/ys9KWF2albXfnW9wmkNCBD8SFXH/H88qg3uMJrj4GiJMFX2RSgACVBNQKAmRSAqx1JNTaHH9qrCTU273dQrdz5sqxj1aUnNjwSU2Z8D6KW7pizLSNLwZEJi8FAKU7nt9Z0WskMKinHyT0UcCQaD/oopNicTBxtsAG/1ywwrFzNjh5yQrnC+vaj2j4DZYnCrJW3l+QlbZfyCYILpCY6RvTAiKSFwn93M6KXAqQ1E8Jc0f7w5BoBUhc/MZMFjt8n1kNX+0yQ1FFe1AKLz/UVJm3N+XMltmCpSwSVCAx0zctC4hIWsp6oWhGsdJVL4UpiSqYmqgGQ5DwxYiRKZaVXQvpGdWw/1Qt1NhIwd8hPJw6TmltwZGxJ76bfEyINwrWTWOmb5ofEJH0mVDP66zoAyTw3KxAuPEGJfjJPDOKFFXUw+fbzZCeWY39lg5AQc7mGYPM+ZlXXX2QIN+AJiKpa+z0jccBiK7UV4hTBhf6Rslh+d166NbFO+Xr80vr4PVvKiDjZK1X3i8k9nry42MfRN7v6nNcrm0h9zdI+87ekU4QRH/6q0Rx0CGVAIwaoIRF07Xw+NRA0Gk4Zj11A8jhnzBUDQN7yqGiyg6Xi7y2w8NlCAkxpL7WtKfqypHzrjzHZYFou40aGBQ7+U1Xn9MZ6RIogXcWBsP8cRo8a/hC0kbUhqhQGUyMU0NshAwO51rB0k7NLrnGUFf8z+c/uPIMl+dyfUwKbUEZPqljOhv9uskh7cEgCA10bYwqNdXD0bNW7HTLpQT2W/zkAP5KCcRGyEEhd/7zHz1QBddf5wf/XlcG+0/78rkmahNeFdT7Jlef7LJAlPrYBOqfiOKgY3g/BaxaEIzNK76Ume3w+/EaOJRbC2fybXCusA7vJqcCiQMJsadBBgO6+2HHP9Cf30u76KTw30dC4MkPS2DPP77qm9D0MwJiDPGpfQuy0k45+2SXBaIK7t2P+ieiOKjo310Or9+j5y0ONEt8vsOMQ7O1HEOy6Dp0H/rz3d5q8FcSMGagEu69OYB3IOClOTq4Z1Vxe/RL4gDAaYG41Is1EYnK2OmbygAIccWcA9d3k8Oni0N5ieP0ZRu8s6UCDuYIZ+Io/QiYFKeCByYE4BmCKyWV9fDQ6hI4W9CuKrZ9fmR1xN3O3uxSyEQTnjyIWhzt06lzJ927ymD1I9zNqivl9fDyV2Uw7+0iQcWBqLGSsHlfNcx6/Sp8vsMEVo4zUrBWCmufCMHOe3uBBK6166lxyUOMGvX6A3JV8Ejqn4omViOjByhhxQN60Pmzf9x5xXXw2oZyeHtTJZy8ZHPrUGO1ARzItsLWLAuYLST06CoDtYJZwWj2GTdIBX9dsEJhme+bWwRAKEnCenN+Zqkz97s0g6iComkK6IviaGTOKH9Y8UAQ6DXs4rhcVAf3v1MMO4/VcPYzhOBKWT189IsJZi0vguw89g2xOo0E1jwaAr0M7WMmCQ0dNdbZe50WiCYiSUMCMbDtT0TzqpEbusth8e3cjtn/c8EK81cWe3UDYXmVHZ5YU4KFyoZcBvDOgiAI1npvYZMrsh5DRzt7rysCiSMoq8CKs0cj993MrXr0r4ctWBwVVd7fXYsEeteKIvj7PLvfEx4sgxX3B+EzKb4MAaTTfojzAglPpE7/SReU72SMHaSEm/qrWK/7/S8LLP3Mt/I6V1aTcO+qYjh1iV0kA3r44dCxz0DV/wiiR1hcag9nHue0QLQRwykFQvrCfgkvYwiSwnOzdazXHciugafX+pY4GrGTAE+sKYXCUnZH/O7x3GZKz0Dd/wjCuWiWUwLR9ZwUQBIkpUA6uzwiQ6Sw5rFgfPqPiW/3VMGiD8t82mMrMdlh/soiLGQmekf6wdLZgT6xl4yuA4bFL57izOOcEogqpM8IAoiANj9op+ZVV50UBvbwgx5hMtyxnbWp/WQA7z0UDJEhzNGdnw9Ww5vfVng0UuUsxZV2PJPkGpmjW7eP8Id7fGYmofpcybEANCsSDDgVpwuISKL2P3xiCGGnf3c5zBjhD70McryAp1K0bXd2ng32nqiBfSdq4cQlK9RxCPlPS1KzbuGotwN88qvZleZ7HFsdwKfbzfisChP3TwiAnccscPGqt9dH2n6fBBBhYfFD+hVm7eZV690pgWjoBOLDB6O0aglMGKaCW4aoYFAvP9bre0fK8Z/7bgmAMnM9fPCTCe9nosNfScC9t7SdVFvz2XYTnL/SrrZqYHYdt8DZAg0eVOhQyAl4cGIAPP+5T+WfboIAYhgA8BIIbxNLE56kAMeLWkA2NMHXUPkRMG+sBr57IRSWzAzkJI7W6DVSWDpbB+uXhMKEoSrK7SKzbvJn3bp+8pIV/rfNxPv9vgCaRV76shxvq2di/BC1D2xFoW5jWNziMXyfxF8gEUmD0H9a/7vvSQNg4jAVfPt8KDw5TQtBAa4H69GMsuxuPXz8ZAh0b2ZK6fwlcOdoZvvbZLHD0k/LwNr+Jo8mTl22wWfbmc1DNHg8dKvWY22ihi6SxX89hLdAAg3DE6l/4lsO55RENbw2Xw/hbsgI0r+HH3z5TAjcPU6D0/DMHePPelT2y51muFzsbdvcdT79zQQ5LA77Tf2VcMN13q53RNUfib7hcak0eROo4S0QdVTCrdQ/8Y05RK+RYFPqhTvY1yFcQa2QwGNTtfD2/XqYM4p59jhx0QrrdvlkASXeoBnw/74sg+oa5lV/9Pn7edXSouyPBEkAr31ZvASiiUj2B4Jw+Riju0CO8oePB2N/wJnTes4waoAK73ClA9nuL39V3k7yTnEj11gHn+1gNrViIuSQ3M+HVtgbCItfPJXP9by6UUB44jCq/VekD6x/NK5BMEVZqKi3O3bR5hptcPycFeeIEpIfD1ThY7EdjW92V7F+VkOcCIi4HZKfH8JrEqRb/yB8YP3j+X/pYGBPbl9Ida0ddh2rgT0nauDA6VowWVoKvKtOiiMxaCZyZRSstZGwtp1Grdgw15Dw6W9meGYm/W7lhD4Ue1k9CUXpN4IgenSNS+1x5WAap3RAvATiH5lMvf/Kyx7I/HEaSEnglkC+uLIeR5MOn6HfiHelvB7/2XOiFoZG+8FjU7TYMecL8j2ulnt/h667SM+sgn+N9KddHO0ZJoeIECkYvRacoO6VEse+LE4C4Wxi+UclSwiSpMxg4k1xhAZK4P4J3LY4fPNnFcxeXsQojtaga+9OK4Yf99MvEtJxINtXs4AIg9UGOLcvHRIJwKQ47pUvBIemY3Yd9jTnPSecBaI1JCYCQQRzvd5ToNGd7ZgospUXry2FtzZW4ENBzvDqhnJ8P58zGzuOMm/y6whs3lcFFVX0M8SMEWoIUHlnCKXzjAlJ/Xiuz+AsEE140kR+zXA/Q6L94NZ45hHqXKEN5r5ZBH/85VpnRc48moHuf6eY076sgzm1cKEdbinhC/JFmHL5hmilMCXJO7MInSwJIGJ00SkRXJ7BXSCRycmUPyC9Z2DddwuzaWW2OHailpiE8wPOFdZBWnoF63Ub93SMdQ8usJmSw/t52VmnJprLRZwEogiKlRFAxlP+0Ev66NdNDol9mCNMa7eZIL9EeAfxm91V8MtBC+3PkRm2rwNkSOfKoVzm33VAdwXjWpE30PdKuZ7LdZwEotLHXgdAUA/XXloDYZs9kHmz/nf3jeJvbSqHglJqEyrjZE1HqbPBiYJSO+PxXJWCgAE9vL31pBUEtxmEU5hXFRwbS/kD0jtnQHoZZHDjDcznvb/904yPjbqLymoSXllfDh882rZw77bD9LOLuxg9QAnjh6iwMCstdqissuOARGW1HUoq7WCusUO52Y4ztVttJPajhPx8jpy1Qt9u9KHwuBgFZGX7TgJsXXQKTcrclnASiFIf25fyB16aNeeP0zBuJbHWkTi3lLtBX/j+07WQ2GxBDHXKQ7me7wh7TtRAcj8FTB/uz/i1oM8GCaSqhsSiQf9FwkGiQv9faqrH4jLj/3cIqriiHifNrq6lV9T+U7Uwl2FHc0IfBfx3q08tmsZwuYiTQOQawyCXmyMQQQESGDOIefb49DcTPirqCd7fWglDo0NxnijE1gPeKWOGZoQ3vq2AnDwbPDJFS1v9FpdHkBGgUQF05ZFY85dD1fACw0Gow2esYKq2Q4Ca+r19o/wgTC/1UjbGtkvZBElcp++VElF2dquR6U5OPojGMMxnBDKyvxIfgqLj4hUb3gLhKU5ctMH/tlXi/6+3A2zJ5L+gKBTo/Rv3VsMjq0twomkh0bKUm661kZBxin7WlkgAbrzBO9EskmpOJUCqDI6lrW3TCKtANBGJftTTkXecUGRrM7FxTzXYPDxIffKbGbLzrNhRPe8DGxNPXLLBog9L8SEtoaA6t9+awyymZY8w7zjqdC03DFs0iu1eDgJJHoDckDY/8II+FHIC1wpnIivH8+FV5Oy++EU57DjqeeecDiSS//5YKdjX5K9kF8g/F5kPUvUM89IBEboPQULQFH9qdgnbBfqwROoFQi9Er4ZG+zGOZFfK6r1WuwK99yeGtRFvsHlfNaTvqxJEJGzbeRAXrzJ/9j28JRDcZWhOGMY/Gcp0K+tvreqWPMKVtgnJkGjmHbVsC1buplTAFXshQD7JmxsrBBGJmoOJVWMl8SBFR4hWirPLeAfq9ttBksR0F2NrlUGxCgCCdyYId9G9K/MI5Op+q45IY3Qr7bsKlxJGaJRSfP6ejWyW8+r9unlrwZB6iNBHp9DsMXTAKBBdr5R4AKDYwes5BwSZVOMGK/EZZ7YzGacus9e26Iwga1jpR7h0RlwmA04ZJ3NY6ot4TyAE5a4PZVAsTY0bB4wfmTaCzrxyr/8RopXgVJYJvRXQt5scx+3ZQCPl1fL2nzVEaFCnnj9OAw+nuJaKRyoB0GmkrJ8xmx8SFerFWgmU0V6ie9iw1G6Fh9IuUd3CKBD/iCRqB91NBKgInMnwtuFqXOebD1fL67DNLXIN1KmFEEcjag7LGPks2eCVft4suEOTL0sCiQBAKRDa1qq7xxEEARQOjHvMq4Q+CvjqmVCcBZGvOIDDF9MZGTNQKZg4oCHDJBtVLOmAlHLf2tWL6Br3xI10P6OdQbRdbuxL6X+44QD6k9O0WBiu0B4KSnqS67pI4akZ3Mq/cUWrZv/iq2qYB1CFH4H9IV/a7UyAjNZSohUIAVSzh7DrH+FBUnjjXj1cf53r6WFM1aJ91QgSxzsLg3FYVUg0LNtNgMMMgvzKP940wOUiG+Tm1+EsjduPWMDohnM7XCEI6K8JT9KY8zPb7FGiFUhY3GKaDIrCcM/NGuxvMO2r4kO5WRQI8jmQWYVmDqHFgQjksIZhtpB4ZwFTSFguA+hpkOM/twxV4bwC5wttcOSMFbYftQheF74FFKmA8H7cyKTx5vzM9NY/oPyN/cOTkaXY9mC7QIejpiap4dHJWsHEAQ3bzDszMqmjFNob9wa5RRzQEF1ko94OrGlJqegRJseRyzWPhcCy+TqcrcY9UPc5Q/ziFKp/p5xBtJGJA4Bom8FdCN+jq04Kj05mr6PRnOw8G95GnnGqFh9nrbGRUGsl8d6sQH8JThxd0YlnECFCudW1dlj7ixmf1KQzpdQcgyfIzOJijtExYZgakvoq4eNfTbBO6FOhNH2YzqWgFIiu+yiaAjmuKSQoQAIfPBbMuRTB8XNW/CHRne+2WEmwWOs7tYMuRCgXieOJNaXYxLFY7bBklo7ym+ayYREaZhFXQQNf6m2BcP11cnhlXYUnchv3DRuWGlx4KK2k+T9SCkQZOoRGIM6DPto37tHDdSwlygCfca7DCZ+9cTKvveFqKLe5OKBhg2NshJzyZGKwADVW+HLLUDWux/7w6hLGE41CQEggGQB+bP5vlPMgQYDgC4R3jtXA0Bj2laa/z1th3tvFojg44Goot7U4gGWDo8ZLCeD6d/fDJS3cjSY8qY2Z1WY4N8SlDgAgItve7vwCyNhBSnjoVna/4/vMKnhlPXvOqc6OENGqfy5Y4eV15ZQHvOiO7/J5V42VhLziOsgrrsf5kGttJNjqSHyYTecvwZ0+OlzOuaJwSoIax4he3VAugAlH3Zc1Ecm3AsDS5v/WRiCaSGEL5MSEy+CVeXrsUDNx7KwVXtsgioMNIRxyJI77WDJENh7fPXnJBqsWBEFww1Z1JE62DjpzeRGnhUDk08y80R/uHKNhrSuPmJyoxiHkV9a7WiSUrkQbDAiMTgmuOLO1yQ9p0ypN+AjG/fF8QaMcW9KwM/k2SF1b6tY0PR0BoaJVL68r45Q+FVod35XLuO0I5rpKXlVD4pqHM167Cp9uN4Glln1qmJqkhjvH+HN6vjMQAC1SXLUUSGg/IICkcNCd67lDov1gGIvfgb6wZz4u45UUujMiZLTqfCG/qF/j8V2CcOzoFZryKjus/sEED75bglMOsfHEtECI7+2eBBDBPW7t0/zvLQSi1/aIAIIIEuplCyax+x3/22Zm3SItIny0ii+b91VjH1HIxd3WIHMOzW5sSAiA52azWybOYJcSvVu8q/lfSKLlD6/BvyE9wmSss8df563w1S7Ppehpr7gjWsWXxuiWu7O27P67Ft74lt3H6BYqg7mjhTe1lEG96U0sXXRKH6FeNH4wc3oebAt/JUREwv10C5XC5ATmZHXuwtWNh0KIoxHkt3jCTdy4pxq2ZrHnF5s3VgNddE6afDS/iEofQ29iKfwNg3k9jYFRLPmr/rOlsl2YVpPiVPDZ4lBYOlsHs25SeyzbKvI50CDz0RMheLR0hktFdXDXimJBxOFpXl1fjjcuMhGgksDy+TrnKhoTdIlOIEYXfWuTm9Hi0f60GRT5dYvuXWXQO5J+C/vV8jps0/o6i6Zr4dW79Hjbg5+cgCUzdfDSnTq3ZzwSYuMhmjlSPyrxiUR2zoBmq2c/KYPf/2IWyeBoBfSJcvKcO3UpdZkyqE9TLfVmAsFl2wQxscYOYp499p+2+nxI96nbtTg+35rJCWp4aa77ROLNaJUvsmpzJWvYOKmvsBGtsIGPNeViaBJIWPzQvgAUO3idMK/GsSSX3nvCt9PzIHHcMYr+hKM7ReLtaJWvYSyph+/2Me/oTRZYIBLFtROG12YQknr/FV95XNdFBrGR9FOetY7Etcl9FTZxNNIkEgHf7QvRKl/k8x1mvHObjr5RfpxW4imhfCwxMCAiGYfImp4anvAUZYofgmcXYLMHc/JsuPaELzI5QcVJHNeuV8OMG4UpUOlL0Spfo6TSDhkMVgfyD4df7+QsQlD2RbkmPBHn7cUCUehjJADkLc69oSXNi8lQwZQi35sgcSyZxX/0XjQ9EJc6dhYholX/XLC222gVV3YcY3bWU1iqHfNFFz0ZZ1zEAtHHpAwGAEPri0gn/I+hMcwJGP78x/fMK2RWvXynHlRO5GxSyAl4brYO/m8Of3NLiGhV48bD9hqt4grb8YdhsQp8II8/1N+aKjj2mkAIICj9D77mVaCagIhg+lEQ2ZG5LLlbPQ1Xn4ONqUlqeJGHSLyx8bA9U2qy46PXdBANGVOcg3IiuD5y+EIdFkhY/GJBThDGRDD7H6cv23zqyxRKHI1wFYkYynWOPf8wm+ds1gsdlBWoAKDe6j/cMYOQVDt4+cM2xRWW+Y4ZILQ4GuEiEjGU6xyZp5jNc7bs/3QQNK6Ef2RSssQwbNF1QNCdIOQHWzKGq+W+sfGKb7SKL40ioUIM5TrP2QJm8zwyxNn09dT7TgIiEodLlMF9Jzn51DZ0CWQWSH6J92cQZ6NVfEEieWbGtVmiebTKFYe8o0ermDBZSLhcTN+HQgOlnNKjcoUAIlGmi7mVpoAI/xeF6phNLG+ml0Q8PUML/xrpvpmjNbNHakDhJ4HXvyn3yDHZzsCpSzaIYpgpehnkcPSsMwMIZX9XyACfIGz9Q+cSNLD5IEUV3vt2F9/unDhOXbbilVpnmZakxufyXck/3JmiVWycYwlnG4KkcPSscO+TECDcCUI7i4tR6/7kX5QgU2eOEz7H95nVMO+tYnh/a6VL73dVHJ0tWsUEm5mu4Zjcjis0Q75zL2HaL4Nw53FNOpA4ZjsxcyBxvLq+HM+lH/9qhl8Pe357fmd2yOlgm0VVHKrx8kHQp1lYMt95WiBCiKORtzZW4jxPnkIUBzW2OpY+xqEaLz1tny2oQNj27Xuy/NbURJVg4oCGzBsL3i3xSCROFAc9tnp3DsJt7xW0x5pZ8hpxTX7sKlMSVfDMTOp1CCa+2W3GScnovoLCsnqYv7IYdrJsnHOF9nxM1hOwlbLmUs+dD4IKpIylkL4nisgjs+qluXreKWHQzPHWJnZnvNTkyOP1v20mF1pJTXs/JusJ2M6fu55freXw2PZ1LgSa8oqZPageYS4U6uaAqz4HHz74ySSoSMRoFTeY1kCg4eyIK7Tu/m0F4sIMZWRxYqPD3VdE/mknxfHdvipGs4oJJJJdAphbyPEUfQ5uRLGcmSmudG2Aad39KSYs56cQtpXymHD3zCBLZgY6tQi4JaMaln/tWsLs17+tgCsuFPCptwPOSyyKgxvdQpm36bg6g7SWSBuB0G395UJ1LQmlJvrOEqyVQheW7Sh8mZ6shlk38c+wh8yq1za4miXc4ZM8+G6xUyLB4vioBDJoKmiJtCWKpQCTqzNIa9r0Vrp8WlxhOtSCGNDD9ZLPjSBxPHU7/42HbNEqviDfa97bRfAHSw6n5pwrrIO73i6CvSdEcXAlKEDCeCCv3Gxn9YOZ4bgOQrhQzXbnMeZDLTOGC5NP9bnZgfDCHTq3Rav4UmKyw+K1ZfDFDnbH/XxhHcx98yqcZhlMRFoyaoCSMYp1/Lyr+da4roPg65x7036WlD5DYhTOp2hpAIljxgjnzCq+0Sq+/Od7E6NIaqwkvPBFKWs8X6QtbAniTl4S3o9j2IvlnC9SUFqPC+LQgUaAQT2dN7NcFYcntkvSiaS6xg4L3yuG05dFdfAF9Zs4lmoBpy8LPyMjgQhciBpg30lmM2ugkwJ5dpZz4ti8r8pj4mgEiWR3M5+kqsYOj75fCn9fEM0qZ4gKlUEAw0JzXT3AKXcIxCT3+4j2pyQ4ZWrtYUntE9+bv0CWzNTienZ8QeJY9nWFR8XRyPJvKvAZmOpaOzz2fim2kUWcYxhLQoZj52qdC/GSAAwud7mk4NuprwBJZlP+mHAu7Hv0rBWuMCRo6B3px/oLN2dakhpm3cR/nSN9X5XL6xyuUFxphwXvlYjiEIAxA5nzPW8/4sSCbcO5QLocyyZjxjKJ2ZhRfnLDmFFAkgeoLiKansSP3/9iNrNemquDkEB2Z316shqediLJwTe7zfCal2aO5ly8UgfHzonicIUB3eWMNfara0j4jbdASMbEiDWl2cvydi9dKXH8JacwJ33GJCChgPpy/rPItkPMDQ4PlsGLdzDvuH3hDt8K5Yp4hyWzAhnrqSPzqrKa71BIAEEzdZiMGa+eXD/mBUtpLtk0hJvz95fmH1y5lPmh3BtxOs8GZQyr6ogR1ytpc/kicUxP9s1QrojnmJakgj4sOQF2HRcw3zNJZhUdfe2lxr+2sHHKc39cByRk0t/NfSS31QF8yaFA58tzdRCmbzk8uCoOb5tVIsLQRSeBx6Ywm9fVtXYnNozS95CCrLSXyi8cb7qghUBqynJtOVtmzACAyzzfSMmGP6pYk32F6qSw8gF9099FcYg0snS2DnQsi8ob91RDBWfzqvE6GtMqL/PdgoNp25r/WxvLzmrKM5EAewIikucCgEsbp+rtABeu1EFKAnNq+pBAKYRoJbhi6YMT+eeOEsXR8UCm1byxzHX2K6rs8PznZaxHva/BYAGRkHlp55PzrKa8FuFXStfHbMzMJwEOBYQnTwQCXCq8kF9Sjx2sIdHMq6D9uvlBUl8lSHjuQvlmtxmvN4h0DOQygIdTAuChlEDGfVdWG8DLX5XxWBykz/VmKcnemrtl5szqq8fb+AS0sQGzMfMs8n8CIl2fSQ7mWHFpNrYDU3zFgWYOURwdC0fx1ADWo7Vrfq6EzRnsqZiuyYJu9iD3Xti2MIVKHMAkEMCRrcwCTXhyqUIblcLaEhb2n66Fm25Qsia45kr6vip4dYMojo5CgJqABycEYHGwcfKSFZvUXHbuMoWVSIBLuekzbzbnZ9J2JE5hqb5zdv2oCurtskhCAyXw5VOh2DF3BdHn6DgQBMCURDU8dGsATj7NRq2NhPkriiA33+UNn5bCrLTk/KyVx5gu4tRT5Ur96YDI4Q+4dmLdceLw6FkrTHfhTMgP+0VxdAQiQ6Qwb6wGH3ibnuwP/kpu9nXa5gruZfxIknYfiaU0+5Pz2xb+j+0RnDt8zPSNzwdEJL9G2Y6GxtCtTLZm8W1amDPauSzrtjqAogpxu3h7p6texupntGbV5gr46neOm88Z8q+TAFdOrR/dv6Y0p4jtMbxmhIEPXfxCKpXN43MPFTIpwDsLglkPwIiINLLjqAWWfFLG7WKGmQOwb50xLmfzzJ1cHsXLGag49/Ovmoik7nJVyAA+97UGOVc/H7TgBA8De/rhSrEiInTsOm7BRxa4VQdgFEd5ftbK2Rd3pG7j+m6nembcoqJP623Wu525tzWGICleMU3uJ84mIi0pNzsWAtmOcV+Dsa4NWXVp/5jsH27/g08bnAonmS7v/T2476wpANCFpi2ctWe2kPDLIQtculoHcbEKcTYRwRw/Z4VH/1vCM7EFfd+pzMt4Kvf7GRv4tsPp3qgJT+oRe9um/bQicaJIVWyEDF69S+/WDIwivk1ecR2s+K6C9VQqH6T19g8PfhC10Kl7nX2p1ZRXDo7tKPOAoEphyl8hJSY7bNpbDXtP1OCsH5GhMt5nQUTaJ2aLHb75swpe/KJMiDWOJkgg/zq9ZdYsm8m5HEsu976+d+xapwruPcfV51AhlwIM76fEJcx6GqT4kFVksBTUHGPmIr6LrQ7gyNlaOJRTCwdzarEpZRM+el+as3nGQHN+Zp6zD3BZIHKNIeiG+Yd2EQQMpL3IuZqgIiIuUZn93Zwz2x/n7Xc0x+Wh2GYuKM3dMuMWEuAC7UWEuO4t4llMxoyXXRUHCDmuayKS+sZO37gfgHC+GLiIiACQQG49ujpyshDPEsyYNxszT5mMBx4S6nkiIk6Sk5s+8y6hHibM3vMGSk9/+7cmIkml0EaNEPK5IiIcKc1JnzHSbMykyc7DH8HDQbnpM58lSXKr0M8VEWFKgYioNO57wGzMPCfkK90SL83dMvMeALhKe4Hos4s4A8MGRJMxc+mZ9FmbhX6loCZWI1ZTXnV9rekvbbdRd1AvIrrjrSKdlVpT/jenvx7/pDue7RaBIKquHDnrH5FkVmijbnHXO0REAOBCzqYpKXU1JW4p1eU2gQB22jfu14QnhSu0UUPd+R6RTovNeGDFuIqzP1101wvcbuz4RyVLek/9dj8AEUd9RftaZo8KlcLQaAUuSCqVOPxGc40d12YUK9V6lsq8jPvObJn5iTvf4ZGeqQlP6hY7fdMBICDMXe8ID5bC18+GNp1tfvT9Esg8xT7r3neLBhZM0jYd//w+swpe21DRJmNGv25y+L85OoiOkNN+aGVmO2zJqIIvdpqdSKYswgeTMePt3PSZz7j7PR7Z9WfOz7xUtu+9Sch/98T7uPLARA0sbCaOzFM1lOIY0ssPPng0GGIYxIHQayRwz80BsH5JF7x1X8RZmAcXEsgM44FVz3miJR77Fs8fe+OoRW6dHJ6w+GvUlzz1Xio0SgKXVRg3WIUjh8hM+uMvCy4N3VociX0U8NZ9ejwz2eoAMk7V4B2oxpJ6fARUQgAEaSUwuKcfjBmkAq1agk9JfvhYCDzwn2I4UyAmmBASS2n29+e3LZhXU5orbEF0Gjw6zBUeTPvNnJ85Jnb6piwAaHsqiuWwvVAgU2nsYEfFono7wNpfKmHtNupM9KnTtVgc9fUAL35RCtuPUqfa33rAAh9tM8Pax4MhIkQGWn8JzLrJX8z8yBt6n5QE2Hth97PTa0pzPWa/evxghdmYecxSkv0p5Q89II7HpwbgkR4aCj+u/qGCVhy9DDKIDHHo+OJVG604GrlSVg+rf6xsmoUG9XIpY2snhClgQxbmps+YZjFmedS588rJo/O/Lvw3AOnxKjeLpmtxxnCkQ2QurUqvgC920udZQj6FrGGONVm4fS+Zp2qh3OyY/UO04sEuftAPkAXnvlpuNmaWeLQ5njaxGqkpzcnPP7ByRnjCUzs89c7UhmR1RMPM8ca35bAlkzn5cUWVHV+LnHjkVyj9CNZU+0hIH/5swiWLy830VVeR7zIxTgVTE9XQt5sc1ApJ0zt3HrPA5n3VtJnLn5kRCLNHOrJTIj+nXzc53D0+AAvaUmuH/aetOBH4yP5KPCY/9wm9aYjQqgnY/EJX0AdI8Jnwqf9uu0toaIwfLJgY0KKt6LPIzbfBx9tMsOeEi+t0zNH+v8r2f/yhay9wDrcuFDJhzt9/XhORbFdoo0YL8TzUIWeM8Ac/meNT/vmgBfKK63FHTL1dC3MbxIH4cpcJPt/BnqEPdfCJcUrQaaTYDzHopTh1ag1LfqaTl2xw7KyVtrA9mlk+Tg3B7Q0PloFcdq1nIBH27eYHUxP9QaMiICu7tk1MZ3g/JdzQ3WG+martcP8ELagVjmegZ/UIk8HfF6zQM0yOxa1SEDhzDB2jB6hgUoIafz67/6qBP/5uKaYHJ2rgxTv0EBnSsq0yKQFddVK4eYiatq2cYPY9r+akzxhZffU4x6xxwuI1gYBje/yfKn3vamVw7HjaiziuI1IJxG4HWH5PEEyKc5Q4Qd8DEscHW02cMoOjS84X1sGNNyhxx42JkMOcURoYcYMCj9qhOilOU1Riqsfv4gIard97OBiXwkZcuFIHPx+sxqn80cxRVF6PS0UoFQQM6OEHA7r7QcbJ2haibC6QHl1luA3nC224mi7qtOjaZz8tw6W2u+ik0CVQBntOWKDU1LaRcinA83focEdHfPiLCVfmbWzrW/cFwW3D/fGM1Lqt6O/ofWF6KW1bOUEjDpIkL5zftuDmyou7zvJ7oHB4PVh/7tcFb8eoNskCIpOWU17gpN8eESyFV+bpISjgmh+AvofYCDnU8ag3fzDHCvNXFsHqh4MbRlCA/t398J9GkBmWm2+F34/XwO6/a+AMQ1YO5Af1bShKuWlPFby5seW6CxL2Z9vN8MFjIdC9qwwS+yqwefh/X1K7bGqlBF5ZXwY/7L82QyBTq8xsxzMBEpLSD2D2Tf54jac1g6P9mtpTZrLjWaB5W0dcr8T/n3mqBh7/oJRiYDHBK/N0cGu8mrWtPLmSmz5zhDk/0yjEw5zFJ7zI3C0zXjcZM1w+P9ychbdqm8RhbTaiJfZRwpiBSl7PulxUD/etKsY1ScyWtuqSSQF3sodTtLBhSRd4/5FgHAFrTWigBEY3FMRHI/6qLZWUM9nVCjsWTn3Dq0b2V+HRnAr0nObigIYVfcDirm06QoFmHX9l22egjt24UJpxqgYstWSbtqJnfLbDTDvrfrHT3KKtoRzq37ORn5U2y9viAF8RCKLg4Kq7AeCSUM/TNxR/LKqoh4dWl8CFK9f8gfnjNNg34UNxpR1e+7oCRi8phMc+KMGO6alLVjx7NAeZIgl9FPD54lAY1LNlmBeZIQEqR7vQTMHk8B/KqYWr5Y6HI/semV1UIH+HjlxjHf79Afs9UhgS3bI9SHTJDWW4UQffmlVN2dYycz38c4H+PWcL6lq0Fd3rCqa8fQ8XZq3806WHCITXTaxGzHkZ1oKslS8Z4hdTr5E4QUFpPTzy3xK4eLUOXl1fAe8/Gozt9X7X+cGdYzR45OMLGkWRnY3+vP+TCc9SaEZK6qvANRYbU6cix/jJ6Vq4e2Vx073XX3et4yBT78GJzNWUmhfPR3b+3xSd9GoF/YJyrY2EP/+ugRk3OnyIKQnqFhkLh8UqQN9Q8etykQ0O5Vgp24q4ayxzuYrmbY0Jl8POY87VLreUZv+Ru2XWB07d7AZ8RiDgqFH9Wde4p+dKCPs42os4Ou0llfWw4N1ivCUEgRzYT38zYdOLaNiHdSi3lnEE5kJpQzZI9EfnL4GHUgLgtmRHh+zXzQ/PJgcaki8bgq71ovFDVLzeo6cph2ypZXaokFM9LdnfUUg1RtHknyCmJqqb/ONfDllamFDN2xoUIIUFk9hLozXdG+x87Kcsd+uzTt/sBnzGxGrkzJbbZgNjji1uz1n9Y2WTOBr5clcV/H3eMUqqFRJ49S4drW2P7PVpSWqYN0YD996sob2uOeVVdnj9mwrYtNcxMyHbnq+/Q4dMSv1+K4u+j5+3NdWqRwJurMnSVSeBQT0d/49MvV3HnRvxqfCT0VeuYaLSmPlK4cG0A4I1RAB8agYBx1aU0pPrR4+8fs6uH0gg6LM1slBU0XZkRR3h6Y9L4bPUEAgLkkH3rnJ4454gePbT0jbb01V+BI7iaBrs8OPnrHCY43mPHw9Uw/RkDY54dQu99hFX1TjahEbqh1cX4wiZJ/hypxlH9NCsNme0P/x62IJDt8hfQPx+3ALnWm2qbGwrNPhDC94TYBGbYYyxlGW/diZ9xkuuv0RYfG4GAcdK+6Wc9JmjSBIEzVABDcJZ87Op6e/IBFo2X9/GaUdOOfJdGrnxBu4zgUIuaSppXdJs7aHxQBV6V1wsez2UWTeqYe5of5g4jD6KxQUkiEtFjlkkNsIP+kTJceFMaMiR+/XutoumzQ9/xUbK8Q5orm3twjOKZTJm/PvUujEv8rrJQ/ikQMCRpaI8d8uMKWhwEfrZ24/WwNn8a7YJcq7nj2vrhDZffU5JUONDWVyYdZP/tdDpyWumy+nLNrA0RK4mJ6hp/QpEXKwfLL5dB6m3BeKSEN1oolhcQDPWtkOOdqB2pcSrcFQLcSbfCv9cbGunNW+rVi2BuN70gu5lkLVo6w08olikBLblps982YlfyyP4rEDAYW6dKFAd/pfQz0Wm1svrypti/shRvfcWDT5O25ytB6rhYkN4GHXmTxaFwM2D6WcSNMr/35xAfM4EGgIFe/65JpBzhXWQ1eCwd9FJ4cU7AinXJkIDJbjqVmNkqKC0DodsXWHX8Wth5VEDlE0z3NaD1ONP87Yi7hmvoWwr4u7xmhZtPcCxIhQJkJ373cwZPH8Vj+LVrSZcMGdsyNZFpwyQq0L6Ml1HtxeLDmRqodF0WIOpI5cReDvJn39f+3KtdQDZeXUwfogS/9xfKcGdHznv4cEyvNLdO1IO8bEKuHOsPyyZqcMr142RoS93VrU59nvykhUmJ6pxO5EPNHqgCnfciio71NaRMHqAEt64Nwiv2kPDKv3bmypaVFpqvtUEPZ8q/NuaMrMdH/5C7W48lmyy2OHNbytweW4qUFsnxKnx54IE3bqtg3v5wcJJATBxmCMa1thWjpHBmlxHFsRCLhd7C59z0qk4v23hkn5zfr+N9gInTwh8sbMKEnorYHC0QyToi/72z2qcgKGRY+es8MQHpbDigSAI9Hd0rK56KfxrJHOt991/1cCXu9qus1wurse7fZE5gkAie2mujvIZ9XaAj7dVMm405EN6RjUMjblmKh3JraUMZjRv61NrHb+7zl8iaFurr5x6x2zMzHHi1/AoPj+DIOosJaUkCXsDIpMnA0DbBQSC/wwCDV/qvpO1EN9bgW1ymZTAxUSzcmpbbOwrKKvHji4aOdFoq/IjQC5zOOJo5LTbHRWSTl22wfYjFnj3+0r4fKe5zSp7I2jEP3KmFi/kKeUEqBSSpjAumrXOFTgOZ634rgK2HW4bfnVmBkEYS+ph7EDH7mT0nuVfl0NhGfM6SmFZPfyQWY236yAzs3lb0edXbq7HIeJlX5dTtpUKS2n2jrM/3fmQ3Wp2bRHKA7SffDuOEgtxODsKU4n49vUrdTpIIA4cXR2e6O12cMWnnfTWmI2ZB015GffRXyGKw9swWbskSRpz02+f6sHmuEy7MLGaU3p64zFNeJJBoY0a5u22iLSERPMDwyCVu2XmGLMxM9ejjXKRdjWDNJK7ZeZCkoQMb7dDpCVM4jDlZdxtNmYe9miDBKBdCgQcZ0imAZCX6a8QMxv6CiZjxprcLTM/93Y7nKFdG+2aiKTBsdM3HaIXuui0exuSgP1H34tI8nY7nKXd+SDNsZryCpX6mApVcO8J1FeI4vAmVnP+8ZyNU8a6qzSBJ2jXAkGUn/3pgCYi6QaFNqof55vIhrlFLE/NE34DzsWdT00w52cKdkrUG7RbH6Q5BQdX3EGScJTzDURjIg1C/MPrD3dMeZnPlJ/depz/t+lbdAiBmPMO1OWm3z6SJEnuIhFxGyZjxlu5W2a87e12CEGHEAg4EtGZcrfMHAsA/3i7LZ0ZkzFzWW76zCXebodQtHsfpDlWU16NyZi5zk8bWafQRiW0l82YHQMyt9y4766z6bO8kiLUXXTYME/XwQ8OUncdMl/XK2UMAcT1QHSswcBHqLBLZXuLDr2/ueTUhnU1pTntNlpFR4cVSHM0EUkhARFJySQQURFxj3azE/Iu3m5T+4S0VeZl5VXn77tEknDenLdvr7nggEcK2YiIiPggHcZJFxFxB/8fAAD//wNV1dl8AGbfAAAAAElFTkSuQmCC" vertex="1" parent="1">
          <mxGeometry x="420" y="298.73" width="50" height="50" as="geometry" />
        </mxCell>
        <mxCell id="FWO0GWQRVAM2mk7AwP2H-42" value="&lt;div align=&quot;left&quot;&gt;&lt;ul&gt;&lt;li&gt;Anomaly Detection Features&lt;br&gt;&lt;/li&gt;&lt;/ul&gt;&lt;/div&gt;" style="text;html=1;strokeColor=none;fillColor=none;align=center;verticalAlign=middle;whiteSpace=wrap;rounded=0;" vertex="1" parent="1">
          <mxGeometry x="-100" y="360" width="190" height="75" as="geometry" />
        </mxCell>
        <mxCell id="FWO0GWQRVAM2mk7AwP2H-43" value="&lt;div align=&quot;left&quot;&gt;&lt;ul&gt;&lt;li&gt;ML training pipelines&lt;br&gt;&lt;/li&gt;&lt;/ul&gt;&lt;/div&gt;" style="text;html=1;strokeColor=none;fillColor=none;align=center;verticalAlign=middle;whiteSpace=wrap;rounded=0;" vertex="1" parent="1">
          <mxGeometry x="159.58" y="360" width="190" height="75" as="geometry" />
        </mxCell>
        <mxCell id="FWO0GWQRVAM2mk7AwP2H-44" value="&lt;ul&gt;&lt;li&gt;Model deployemnt&lt;br&gt;&lt;/li&gt;&lt;/ul&gt;" style="text;html=1;strokeColor=none;fillColor=none;align=center;verticalAlign=middle;whiteSpace=wrap;rounded=0;" vertex="1" parent="1">
          <mxGeometry x="400" y="360" width="190" height="75" as="geometry" />
        </mxCell>
        <mxCell id="FWO0GWQRVAM2mk7AwP2H-45" value="&lt;div align=&quot;left&quot;&gt;&lt;ul&gt;&lt;li&gt;Metrics collect from the k8s cluster&lt;br&gt;&lt;/li&gt;&lt;/ul&gt;&lt;/div&gt;" style="text;html=1;strokeColor=none;fillColor=none;align=left;verticalAlign=middle;whiteSpace=wrap;rounded=0;" vertex="1" parent="1">
          <mxGeometry x="179.58" y="540" width="275" height="75" as="geometry" />
        </mxCell>
        <mxCell id="FWO0GWQRVAM2mk7AwP2H-46" value="&lt;ul&gt;&lt;li&gt;Visualization of model results&lt;br&gt;&lt;/li&gt;&lt;/ul&gt;" style="text;html=1;strokeColor=none;fillColor=none;align=left;verticalAlign=middle;whiteSpace=wrap;rounded=0;" vertex="1" parent="1">
          <mxGeometry x="530" y="540" width="275" height="75" as="geometry" />
        </mxCell>
      </root>
    </mxGraphModel>
  </diagram>
</mxfile>
